#VRML V2.0 utf8

# Generated by VCGLIB, (C)Copyright 1999-2001 VCG, IEI-CNR

NavigationInfo {
	type [ "EXAMINE", "ANY" ]
}
Transform {
  scale 1 1 1
  translation 0 0 0
  children
  [
    Shape
    {
      geometry IndexedFaceSet
      {
        creaseAngle .5
        solid FALSE
        coord Coordinate
        {
          point
          [
            2.46063 -1.00984 2.04724, 2.46063 -1.00984 0, 2.46063 0.761811 2.04724, 2.46063 0.761811 -0, 
            2.46063 -1.00984 0.905512, 2.73622 -1.28543 1.14173, 2.73622 -1.28543 2.04724, 2.73622 -1.95472 1.14173, 
            2.73622 -2.46654 2.04724, 2.73622 -1.95472 0.905512, 2.73622 -2.46654 0, 2.73622 -1.28543 0.905512, 
            2.73622 -1.28543 0, -1.88886 -1.67913 1.35302, -1.88467 -1.75639 1.34662, -1.94963 -1.75639 1.29313, 
            -1.95511 -1.67913 1.29848, -2.00797 -1.67913 1.23087, -2.04492 -1.67913 1.15342, -1.7322 -1.68 1.41246, 
            -1.81236 -1.67913 1.39192, -1.80966 -1.75639 1.38476, -1.81961 -2.04106 1.07282, -1.89212 -2.00433 1.07289, 
            -1.95997 -1.94859 1.07314, -1.96674 -1.90244 1.16509, -2.0406 -1.81329 1.07277, -2.02965 -1.7956 1.14919, 
            -2.06383 -1.67708 1.07279, -1.73229 -1.77186 1.40169, -1.80165 -1.83064 1.36356, -1.73228 -1.85934 1.36864, 
            -1.73239 -2.00204 1.24247, -1.7326 -1.94164 1.31281, -1.73221 -2.06489 1.07278, -1.73288 -2.05275 1.14752, 
            -1.9948 -1.79324 1.22379, -1.92376 -1.86516 1.2667, -1.8311 -2.01042 1.17161, -1.87225 -1.83064 1.32766, 
            -1.82343 -1.89821 1.3162, -1.87418 -1.96301 1.21458, 0.0796461 -1.67913 1.35302, 0.0838378 -1.75639 1.34662, 
            0.0133954 -1.67913 1.29847, 0.018876 -1.75639 1.29313, -0.039461 -1.67913 1.23087, -0.0764148 -1.67913 1.15342, 
            0.15614 -1.67913 1.39192, 0.158846 -1.75639 1.38476, 0.148898 -2.04106 1.07282, 0.0763886 -2.00433 1.07289, 
            0.00853525 -1.94859 1.07314, 0.00176131 -1.90244 1.16509, -0.0611436 -1.7956 1.14919, -0.0720916 -1.81329 1.07277, 
            -0.095321 -1.67708 1.07279, 0.236306 -1.67979 1.41246, 0.23622 -1.77191 1.40165, 0.166855 -1.83064 1.36356, 
            0.23622 -1.85934 1.36864, 0.236115 -2.00204 1.24247, 0.235758 -1.94457 1.31001, 0.236282 -2.06485 1.07278, 
            0.235707 -2.05348 1.14569, -0.026294 -1.79324 1.22379, 0.0447438 -1.86516 1.2667, 0.137408 -2.01042 1.17161, 
            0.0962508 -1.83064 1.32766, 0.145072 -1.89821 1.3162, 0.0943213 -1.96301 1.21458, -2.03348 -1.67904 0.864809, 
            -2.00146 -1.75639 0.820404, -1.94963 -1.75639 0.754112, -1.95511 -1.67913 0.748768, -1.73228 -2.00156 0.804906, 
            -2.03769 -1.75639 0.89635, -2.06384 -1.67913 0.974409, -2.05468 -1.75622 0.974409, -2.05297 -1.77066 0.974409, 
            -2.02095 -1.85709 0.974409, -2.00583 -1.86039 0.909498, -1.95615 -1.95304 0.974108, -1.81746 -2.04168 0.974409, 
            -1.82111 -2.04067 0.974409, -1.87794 -2.00774 0.952135, -1.90015 -1.99663 0.974464, -1.7325 -1.95145 0.741335, 
            -1.82244 -1.90264 0.734176, -1.73228 -1.85934 0.678604, -1.80165 -1.83064 0.683687, -1.85386 -1.67909 0.673512, 
            -1.80966 -1.75639 0.662486, -1.73229 -1.77186 0.645554, -1.73222 -1.67911 0.634619, -1.88366 -1.79316 0.708663, 
            -1.8476 -1.96024 0.808028, -1.92255 -1.86516 0.779305, -1.82458 -2.0105 0.869186, -1.98219 -1.83064 0.832334, 
            -1.93291 -1.92933 0.861101, -1.73275 -2.05173 0.898934, -1.73225 -2.06501 0.974438, -0.0276802 -1.67908 0.796362, 
            0.0211541 -1.7932 0.762235, 0.235601 -2.05237 0.899322, -0.0961212 -1.67863 0.974216, -0.0569623 -1.75168 0.858856, 
            -0.0844638 -1.77066 0.974409, -0.0355557 -1.82631 0.864299, -0.0524484 -1.85708 0.974409, -0.00036143 -1.8977 0.878936, 
            0.0281101 -1.97137 0.974242, 0.132942 -2.03691 0.974031, 0.14392 -2.0105 0.869186, 0.236171 -2.00144 0.804611, 
            0.235884 -1.95268 0.742589, 0.23622 -1.85934 0.678604, 0.0796464 -1.67913 0.694222, 0.115941 -1.75463 0.678769, 
            0.23622 -1.77191 0.645594, 0.235813 -1.67895 0.632844, 0.142063 -1.85857 0.704364, 0.088889 -1.90101 0.769781, 
            0.143508 -1.9588 0.791779, 0.0783321 -1.96024 0.850931, 0.236256 -2.06501 0.974438, -1.61417 -0.498031 1.41287, 
            -1.5793 -0.104331 1.40595, -1.67323 -0.498031 1.41732, -1.67323 -0.104331 1.41732, -1.73228 -0.498031 1.41287, 
            -1.76716 -0.104331 1.40595, -1.28262 -1.67913 1.07283, -1.28262 -0.104331 1.07283, -1.30154 -1.67913 1.15342, 
            -1.30564 -0.104331 1.16461, -1.33849 -1.67913 1.23087, -1.34989 -0.104331 1.24824, -1.39135 -1.67913 1.29848, 
            -1.41282 -0.104331 1.3189, -1.4576 -1.67913 1.35302, -1.49079 -0.104331 1.3725, -1.53666 -1.67937 1.39307, 
            -1.61417 -1.67913 1.41287, -1.85567 -0.104331 1.3725, -1.93364 -0.104331 1.3189, -1.99657 -0.104331 1.24824, 
            -2.04082 -0.104331 1.16461, -2.06384 -0.104331 1.07283, 0.354331 -0.498031 1.41287, 0.389208 -0.104331 1.40595, 
            0.295276 -0.498031 1.41732, 0.295276 -0.104331 1.41732, 0.23622 -0.498031 1.41287, 0.201343 -0.104331 1.40595, 
            0.685889 -0.104331 1.07283, 0.666966 -1.67913 1.15342, 0.662867 -0.104331 1.16461, 0.630013 -1.67913 1.23087, 
            0.618613 -0.104331 1.24824, 0.555684 -0.104331 1.3189, 0.577155 -1.67913 1.29848, 0.510905 -1.67913 1.35302, 
            0.477715 -0.104331 1.3725, 0.434411 -1.67913 1.39192, 0.354245 -1.68 1.41246, 0.112837 -0.104331 1.3725, 
            0.0348669 -0.104331 1.3189, -0.0280618 -0.104331 1.24824, -0.0723154 -0.104331 1.16461, -0.0953374 -0.104331 1.07283, 
            -1.39683 -1.75639 1.29313, -1.61412 -2.0026 1.24135, -1.32099 -1.75168 1.18839, -1.29986 -1.80017 1.07281, 
            -1.3424 -1.82631 1.18294, -1.37688 -1.9336 1.07283, -1.529 -2.04168 1.07283, -1.52535 -2.04067 1.07283, 
            -1.46851 -2.00774 1.09511, -1.46329 -2.00624 1.07283, -1.4211 -1.98336 1.07335, -1.61381 -1.94364 1.31178, 
            -1.52402 -1.90264 1.31307, -1.61417 -1.85934 1.36864, -1.5384 -1.79271 1.37795, -1.61417 -1.77186 1.40169, 
            -1.4628 -1.79316 1.33858, -1.4239 -1.86516 1.26794, -1.52187 -2.0105 1.17806, -1.37759 -1.8977 1.16831, 
            -1.47726 -1.96301 1.21969, -1.61371 -2.05173 1.14831, -1.61421 -2.06501 1.07281, 0.506713 -1.75639 1.34662, 
            0.647514 -1.75168 1.18839, 0.685889 -1.67913 1.07283, 0.675015 -1.77066 1.07283, 0.626107 -1.82631 1.18294, 
            0.643 -1.85708 1.07283, 0.612023 -1.91549 1.07317, 0.547399 -1.98336 1.07335, 0.457608 -2.03691 1.07321, 
            0.35495 -2.05237 1.14792, 0.35438 -2.00144 1.24263, 0.444483 -1.90264 1.31307, 0.35455 -1.95145 1.30591, 
            0.354331 -1.85934 1.36864, 0.460447 -1.8333 1.34825, 0.431706 -1.75639 1.38476, 0.354337 -1.77186 1.40169, 
            0.427976 -1.98525 1.23633, 0.569397 -1.7932 1.28501, 0.55176 -1.90101 1.22671, 0.492581 -1.98415 1.18239, 
            0.354296 -2.06501 1.07281, -1.08268 -2.3878 0.23622, -1.08268 -0.104331 0.23622, -2.5 -2.3878 0.23622, 
            -2.5 -0.104331 0.23622, 0.649606 -2.3878 0.23622, 0.649606 -0.104331 0.23622, -0.767717 -2.3878 0.23622, 
            -0.767717 -0.104331 0.23622, -2.06384 -0.104331 0.974409, -1.28262 -0.104331 0.974409, 0.649606 -0.104331 1.81102, 
            -0.0953374 -0.104331 0.974409, -0.767717 -0.104331 0.374016, 1.04331 -0.104331 1.41732, -1.49079 -0.104331 0.674743, 
            -1.41282 -0.104331 0.728346, -1.08268 -0.104331 0.374016, -1.34989 -0.104331 0.799004, -1.30564 -0.104331 0.882635, 
            -2.04082 -0.104331 0.882635, -2.5 -0.104331 1.81102, 0.685889 -0.104331 0.974409, 1.04331 -0.104331 0.629921, 
            -1.85567 -0.104331 0.674743, -1.93364 -0.104331 0.728346, -1.99657 -0.104331 0.799004, 0.662867 -0.104331 0.882635, 
            0.618613 -0.104331 0.799004, 0.555684 -0.104331 0.728346, 0.477715 -0.104331 0.674743, -1.5793 -0.104331 0.641291, 
            -1.67323 -0.104331 0.629921, -1.76716 -0.104331 0.641291, 0.389208 -0.104331 0.641291, 0.295276 -0.104331 0.629921, 
            0.201343 -0.104331 0.641291, 0.112837 -0.104331 0.674743, 0.0348669 -0.104331 0.728346, -0.0280618 -0.104331 0.799004, 
            -0.0723154 -0.104331 0.882635, 1.24016 -2.46654 0.11811, -2.73622 -2.46654 0, -2.73622 -2.46654 2.04724, 
            1.24016 -2.46654 1.92913, 2.42126 -2.46654 1.92913, 2.42126 -2.46654 0.11811, -1.00394 -2.46654 0.15748, 
            -2.57874 -2.46654 0.15748, 0.682222 -2.46654 0.15748, -0.846457 -2.46654 0.15748, -0.846457 -2.46654 0.295276, 
            -1.00394 -2.46654 0.295276, -2.57874 -2.46654 1.88976, 0.682222 -2.46654 1.88976, 1.12205 -2.46654 1.44994, 
            1.12205 -2.46654 0.597306, -2.73622 -1.95472 1.14173, -2.73622 -1.00984 1.14173, -2.73622 0.998031 2.04724, 
            -2.73622 -1.00984 0.905512, -2.73622 0.998031 0, -2.73622 -1.95472 0.905512, 1.16142 0.998031 0, 
            1.16142 0.761811 0, 2.46063 0.761811 -0, 2.46063 0.761811 2.04724, 1.16142 0.761811 2.04724, 
            1.16142 0.998031 2.04724, 2.46063 -1.00984 2.04724, -1.51575 0.998031 1.29639, -1.59171 0.998031 1.32785, 
            -1.97746 0.998031 1.10514, -1.98819 0.998031 1.02362, -1.97746 0.998031 0.942104, 0.452756 0.998031 1.29639, 
            0.376793 0.998031 1.32785, -1.67323 0.998031 1.33858, -1.75475 0.998031 1.32785, -1.83071 0.998031 1.29639, 
            0.517987 0.998031 0.800911, 0.452756 0.998031 0.750858, 0.376793 0.998031 0.719393, -1.89594 0.998031 1.24633, 
            -1.94599 0.998031 1.1811, -1.94599 0.998031 0.866142, -1.89594 0.998031 0.800911, -1.83071 0.998031 0.750858, 
            -1.59171 0.998031 0.719393, -0.019685 0.998031 1.02362, -0.00895315 0.998031 0.942104, 0.072565 0.998031 0.800911, 
            0.137795 0.998031 0.750858, 0.213758 0.998031 0.719393, 0.295276 0.998031 0.708661, 0.599504 0.998031 1.10514, 
            0.568039 0.998031 1.1811, 0.517987 0.998031 1.24633, -1.369 0.998031 1.10514, -1.40046 0.998031 1.1811, 
            -1.45052 0.998031 1.24633, -1.75475 0.998031 0.719393, -1.67323 0.998031 0.708661, 0.0225118 0.998031 0.866142, 
            0.295276 0.998031 1.33858, 0.213758 0.998031 1.32785, 0.137795 0.998031 1.29639, 0.072565 0.998031 1.24633, 
            -1.51575 0.998031 0.750858, -1.45052 0.998031 0.800911, -1.40046 0.998031 0.866142, 0.568039 0.998031 0.866142, 
            0.599504 0.998031 0.942104, 0.610236 0.998031 1.02362, -1.369 0.998031 0.942104, -1.35827 0.998031 1.02362, 
            -0.00895315 0.998031 1.10514, 0.0225118 0.998031 1.1811, 2.46063 -1.00984 1.14173, 1.73228 0.761811 0.708661, 
            1.73228 0.761811 1.33858, 1.88976 0.761811 0.708661, 1.88976 0.761811 1.33858, 1.73228 0.761811 1.49606, 
            1.88976 0.761811 1.49606, 1.73228 0.761811 0.551181, 1.88976 0.761811 0.551181, 2.46063 0.761811 0, 
            2.46063 0.761811 1.75891, 2.34252 -2.3878 1.85039, 2.34252 -2.07283 1.85039, 2.34252 -2.3878 0.19685, 
            2.34252 -2.07283 0.19685, 1.3189 -2.3878 0.19685, 1.3189 -2.07283 0.19685, 1.3189 -2.3878 1.85039, 
            1.3189 -2.07283 1.85039, 1.35827 -2.07283 1.81102, 1.35827 -2.07283 0.23622, 2.30315 -2.07283 0.23622, 
            2.30315 -2.07283 1.81102, 2.30315 -0.104331 0.23622, 1.35827 -0.104331 0.23622, 1.35827 -0.104331 1.81102, 
            2.30315 -0.104331 1.81102, 1.73228 -0.104331 0.551181, 1.88976 -0.104331 0.551181, 1.88976 -0.104331 0.708661, 
            1.88976 -0.104331 1.33858, 1.73228 -0.104331 1.33858, 1.73228 -0.104331 0.708661, 1.88976 -0.104331 1.49606, 
            1.73228 -0.104331 1.49606, -2.5 -2.3878 1.81102, 0.649606 -2.3878 1.81102, 1.04331 -2.3878 1.41732, 
            1.04331 -2.3878 0.629921, -1.08268 -2.3878 0.374016, -0.767717 -2.3878 0.374016, -1.61417 -0.498031 0.634376, 
            -1.67323 -0.498031 0.629921, -1.73228 -0.498031 0.634376, -2.04492 -1.67913 0.893827, -2.00797 -1.67913 0.816374, 
            -1.95511 -1.67913 0.748769, -1.88886 -1.67913 0.694223, -1.81236 -1.67913 0.655326, -1.76662 -1.67913 0.643359, 
            -1.73228 -1.67913 0.634376, -1.53409 -1.67913 0.655326, -1.4576 -1.67913 0.694222, -1.39135 -1.67913 0.748769, 
            -1.33849 -1.67913 0.816374, -1.30154 -1.67913 0.893828, 0.354331 -0.498031 0.634376, 0.295276 -0.498031 0.629921, 
            0.23622 -0.498031 0.634376, -0.0953374 -1.67913 0.974409, -0.0764148 -1.67913 0.893828, -0.039461 -1.67913 0.816374, 
            0.0133962 -1.67913 0.748769, 0.0796461 -1.67913 0.694222, 0.158788 -1.67913 0.654144, 0.23622 -1.67913 0.634376, 
            0.43441 -1.67913 0.655326, 0.510906 -1.67913 0.694223, 0.577155 -1.67913 0.748769, 0.630012 -1.67913 0.816374, 
            0.666966 -1.67913 0.893827, 0.685889 -1.67913 0.974409, -1.46179 -1.75639 0.700626, -1.345 -1.75639 0.820404, 
            -1.5368 -1.75639 0.662486, -1.61417 -2.06453 0.974409, -1.47285 -2.01631 0.974403, -1.44958 -1.99089 0.926199, 
            -1.3649 -1.89899 0.915951, -1.37688 -1.9336 0.974409, -1.31681 -1.7956 0.898049, -1.31369 -1.83295 0.974406, 
            -1.28262 -1.67582 0.974409, -1.61417 -1.68004 0.634811, -1.61417 -1.77191 0.645594, -1.61417 -1.85934 0.678604, 
            -1.61418 -1.96656 0.760347, -1.56403 -2.04456 0.923496, -1.61417 -2.04353 0.886954, -1.37598 -1.86516 0.840601, 
            -1.40312 -1.79318 0.758048, -1.46373 -1.90101 0.772345, -1.4533 -1.96024 0.854744, -1.54276 -2.00922 0.850308, 
            -1.50552 -1.82641 0.697023, -1.54558 -1.93415 0.748195, 0.506713 -1.75639 0.700626, 0.571675 -1.75639 0.754112, 
            0.431706 -1.75639 0.662486, 0.354331 -2.06453 0.974409, 0.513265 -1.98875 0.907957, 0.498854 -2.01545 0.974385, 
            0.620396 -1.89676 0.974254, 0.651695 -1.7956 0.898049, 0.675181 -1.77017 0.97441, 0.354337 -1.68004 0.634811, 
            0.354331 -1.77191 0.645594, 0.41702 -1.86382 0.69533, 0.354331 -1.85934 0.678604, 0.354325 -1.96656 0.760347, 
            0.404477 -2.04456 0.923496, 0.354331 -2.04353 0.886954, 0.616845 -1.79324 0.823453, 0.578759 -1.92472 0.89509, 
            0.528186 -1.83268 0.743031, 0.500371 -1.92332 0.787681, 0.427594 -1.98765 0.811784, 0.354331 -0.498031 1.07283, 
            0.685889 -1.67913 1.07283, 0.505213 -2.00624 1.07283, 0.675015 -1.77066 1.07283, 0.642999 -1.85708 1.07283, 
            0.591625 -1.9336 1.07283, 0.443158 -2.04067 1.07283, 0.23622 -0.498031 1.07283, 0.236221 -2.06526 1.07283, 
            0.147393 -2.04067 1.07283, -0.0524481 -1.85709 1.07283, 0.523752 -1.99596 1.07283, -0.0953374 -1.67913 1.07283, 
            0.0668004 -1.99596 1.07283, -0.00107413 -1.9336 1.07283, -0.0844638 -1.77066 1.07283, 0.354331 -0.498031 0.974409, 
            0.147394 -2.04067 0.974409, 0.23622 -0.498031 0.974409, -0.0844638 -1.77066 0.974409, -0.0524485 -1.85708 0.974409, 
            -0.00107433 -1.9336 0.974409, 0.0667996 -1.99596 0.974409, -1.52535 -2.04067 1.07283, -1.61417 -0.498031 1.07283, 
            -1.3255 -1.85708 1.07283, -1.37688 -1.9336 1.07283, -1.44475 -1.99596 1.07283, -1.73228 -0.498031 1.07283, 
            -2.05297 -1.77066 1.07283, -1.29349 -1.77066 1.07283, -1.9017 -1.99596 1.07283, -1.82111 -2.04067 1.07283, 
            -2.06384 -1.67913 1.07283, -1.96958 -1.9336 1.07283, -2.02095 -1.85708 1.07283, -1.9017 -1.99596 0.974409, 
            -1.73228 -0.498031 0.974409, -1.82111 -2.04067 0.974409, -2.02095 -1.85708 0.974409, -1.61417 -0.498031 0.974409, 
            -1.96958 -1.9336 0.974409, -1.73228 -1.9986 0.801239, -1.73228 -2.0424 0.883795, -1.73228 -2.06526 0.974409, 
            -1.73228 -1.93639 0.731502, -1.73228 -1.77191 0.645594, -1.73228 -2.06526 1.07283, -1.73228 -1.67913 1.41287, 
            -1.73228 -1.77191 1.40165, -1.73228 -1.9986 1.24601, -1.73228 -1.93639 1.31574, -1.73228 -2.0424 1.16345, 
            -1.61417 -2.06526 1.07283, -1.61417 -1.77191 1.40165, -1.61417 -2.0424 1.16345, -1.61417 -1.9986 1.24601, 
            -1.61417 -1.93639 1.31574, 0.23622 -1.77191 0.645594, 0.23622 -1.9986 0.801238, 0.23622 -1.85934 0.678604, 
            0.23622 -1.93639 0.731502, 0.236221 -2.06526 0.974409, 0.23622 -2.0424 0.883794, 0.23622 -1.67913 1.41287, 
            0.23622 -1.77191 1.40165, 0.23622 -1.85934 1.36864, 0.23622 -1.93639 1.31574, 0.23622 -1.9986 1.24601, 
            0.23622 -2.0424 1.16345, 0.354331 -1.93639 1.31574, 0.354331 -2.06526 1.07283, 0.354331 -2.0424 1.16345, 
            0.354331 -2.00652 1.23108, 0.354331 -1.9986 1.24601, 0.354331 -1.77191 1.40165, 0.354331 -1.67913 1.41287, 
            1.78503 -1.60039 1.44332, 1.78503 -1.60039 1.39133, 1.83702 -1.60039 1.44332, 1.83702 -1.60039 1.39133, 
            1.88976 -1.40354 1.49606, 1.73228 -1.40354 1.49606, 1.88976 -1.40354 1.33858, 1.73228 -1.40354 1.33858, 
            1.83702 -1.60039 0.603927, 1.83702 -1.60039 0.655915, 1.78503 -1.60039 0.603927, 1.78503 -1.60039 0.655915, 
            1.73228 -1.40354 0.551181, 1.88976 -1.40354 0.551181, 1.73228 -1.40354 0.708661, 1.88976 -1.40354 0.708661, 
            3.05118 -1.95472 0.905512, 3.05118 -1.95472 1.14173, 3.05118 -1.00984 0.905512, 3.05118 -1.3248 0.905512, 
            2.95276 -1.3248 0.905512, 3.05118 -1.63976 0.905512, 2.95276 -1.63976 0.905512, 2.95276 -1.3248 1.14173, 
            3.05118 -1.3248 1.14173, 3.05118 -1.00984 1.14173, 3.05118 -1.63976 1.14173, 2.95276 -1.63976 1.14173, 
            -3.05118 -1.00984 0.905512, -3.05118 -1.00984 1.14173, -3.05118 -1.95472 1.14173, -3.05118 -1.95472 0.905512, 
            -3.05118 -1.3248 0.905512, -2.95276 -1.3248 0.905512, -2.95276 -1.63976 0.905512, -3.05118 -1.63976 0.905512, 
            -3.05118 -1.63976 1.14173, -2.95276 -1.63976 1.14173, -2.95276 -1.3248 1.14173, -3.05118 -1.3248 1.14173, 
            1.88976 0.801181 -0.551181, 1.88976 0.958661 -0.551181, 1.88976 0.958435 0.537992, 1.88976 0.801167 0.520547, 
            1.88976 0.939167 0.597221, 1.88976 0.88197 0.671636, 1.88976 0.782265 0.546828, 1.88976 0.805615 0.703726, 
            1.73228 0.853676 0.689415, 1.73228 0.784485 0.545433, 1.73228 0.915715 0.634545, 1.73228 0.958374 0.551333, 
            1.73228 0.801158 0.519625, 1.73228 0.801181 -0.551181, 1.73228 0.958661 -0.551181, 1.78503 0.853927 -0.748031, 
            1.78503 0.905915 -0.748031, 1.83702 0.853927 -0.748031, 1.83702 0.905915 -0.748031, 1.88976 1.57654 1.49565, 
            1.73228 1.57959 1.49582, 1.88976 1.58858 -0.578876, 1.88976 1.74606 -0.578876, 1.88976 1.74606 1.29921, 
            1.88976 1.73061 1.37942, 1.88976 1.58855 1.31366, 1.88976 1.68841 1.43841, 1.88976 1.64764 1.46969, 
            1.88976 1.55839 1.33853, 1.73228 1.55946 1.33855, 1.73228 1.64764 1.46969, 1.73228 1.68841 1.43841, 
            1.73228 1.7342 1.37077, 1.73228 1.58853 1.3124, 1.73228 1.74606 1.29921, 1.73228 1.58858 -0.578876, 
            1.73228 1.74606 -0.578876, 1.78503 1.64133 -0.775726, 1.78503 1.69332 -0.775726, 1.83702 1.64133 -0.775726, 
            1.83702 1.69332 -0.775726, 0.210661 2.37392 -0.748057, 0.295275 2.3878 -0.748031, 0.0782194 2.24897 -0.748057, 
            0.128243 2.31861 -0.748031, 0.0729278 2.06696 -0.748057, 0.0590551 2.15157 -0.748031, 0.197884 1.93452 -0.748057, 
            0.128243 1.98454 -0.748031, 0.379892 1.92923 -0.748057, 0.295276 1.91535 -0.748031, 0.512333 2.05418 -0.748057, 
            0.462309 1.98454 -0.748031, 0.517624 2.23619 -0.748057, 0.531496 2.15157 -0.748031, 0.392666 2.36863 -0.748057, 
            0.462309 2.31861 -0.748031, 0.373646 1.76547 0.718551, 0.511045 1.78194 0.79406, 0.561854 1.79295 0.855438, 
            0.594795 1.78226 0.926152, 0.538524 1.80871 1.22303, 0.481767 1.82013 1.27668, 0.41122 1.75787 1.31647, 
            0.320688 1.76161 1.33828, 0.2558 1.75787 1.3361, 0.179331 1.75787 1.31647, 0.110146 1.75787 1.27843, 
            0.010097 1.81068 1.15673, -0.0141362 1.83288 1.08084, -0.0190651 1.81005 1.00354, -0.00414705 1.80185 0.925609, 
            0.0295633 1.80487 0.854172, 0.0797597 1.77297 0.793909, 0.143575 1.77557 0.747534, 0.295689 1.78457 0.708272, 
            0.295276 1.83661 0.629921, 0.254259 1.83212 0.659905, 0.216947 1.84651 0.629921, 0.146195 1.85646 0.701438, 
            0.143542 1.87557 0.629921, 0.0794495 1.92203 0.664092, 0.0288444 1.9833 0.664526, -0.00427007 2.05425 0.629922, 
            -0.0143213 2.18242 0.801527, -0.0190634 2.1318 0.629921, 0.00967436 2.27172 0.751092, -0.0141064 2.21059 0.629922, 
            0.0510144 2.33612 0.766892, 0.0102906 2.28568 0.629921, 0.0525095 1.8117 1.22357, 0.0525939 2.35234 0.629923, 
            0.110146 2.40638 0.629921, 0.179331 1.86527 1.30801, 0.291751 2.4616 0.733484, 0.179332 2.44442 0.62992, 
            0.295276 2.46654 0.629921, 0.2558 2.46405 0.629921, 0.2988 1.86144 1.33364, 0.41122 2.43597 0.73732, 
            0.334751 2.46405 0.629921, 0.41122 1.86527 1.30801, 0.480405 2.3984 0.73137, 0.41122 2.44442 0.62992, 
            0.538014 2.35184 0.68204, 0.480405 2.40638 0.629921, 0.580313 2.2628 0.798031, 0.581616 1.84074 1.15301, 
            0.604681 2.19019 0.776528, 0.580261 2.28568 0.629921, 0.604711 1.82472 1.081, 0.609578 2.13107 0.706067, 
            0.604658 2.21059 0.629923, 0.59469 2.05339 0.691573, 0.561125 1.9826 0.662526, 0.375062 1.8471 0.627641, 
            0.447009 1.87557 0.629921, 0.45231 1.87942 0.629921, 0.510949 1.92194 0.654873, -0.0044619 2.03646 0.745718, 
            0.107516 2.3888 0.77981, 0.176043 2.42645 0.789174, 0.0100338 2.21125 0.902228, 0.0520246 2.2675 0.938159, 
            0.109337 2.3133 0.967384, 0.178584 2.34557 0.988295, 0.255494 2.41245 0.900506, 0.335058 2.41206 0.901444, 
            0.411966 2.39325 0.89473, 0.481215 2.35736 0.880913, 0.538527 2.3068 0.861043, 0.585331 1.96421 0.799893, 
            0.510532 1.89135 0.727107, 0.0300097 1.93028 0.778095, -0.0189821 2.10847 0.776063, 0.255495 2.2968 1.08954, 
            0.335057 2.29614 1.09031, 0.562357 2.21037 0.968429, 0.443422 1.85992 0.692706, -0.0141805 2.03347 0.993193, 
            0.0102906 2.13109 1.00314, 0.0525941 2.17822 1.05027, 0.143082 2.2345 1.1039, 0.411967 2.28032 1.07811, 
            0.481215 2.25046 1.05388, 0.537957 2.17822 1.05027, 0.580828 2.06447 1.06338, 0.0520244 2.07202 1.13593, 
            0.109336 2.09956 1.18276, 0.179331 2.16141 1.18535, 0.2558 2.17295 1.20123, 0.334751 2.17295 1.20123, 
            0.41122 2.16141 1.18535, 0.480405 2.13906 1.15458, 0.604794 2.0477 0.98581, 0.609623 2.02766 0.893175, 
            0.560928 1.89137 0.812695, 0.510793 1.84372 0.770272, 0.0816562 1.85564 0.764316, -0.00415052 1.93105 0.872975, 
            -0.0190715 1.97568 0.937567, 0.178584 2.02269 1.26529, 0.255494 2.0294 1.28411, 0.335057 2.02846 1.2845, 
            0.538527 2.06611 1.13955, 0.215601 1.7877 0.718782, 0.00972355 2.0049 1.09989, 0.0525941 1.94157 1.19529, 
            0.110928 1.91073 1.26283, 0.411966 2.0199 1.26645, 0.481215 2.00429 1.2313, 0.537957 1.94157 1.19529, 
            0.609447 1.84275 1.0011, 0.594702 1.89581 0.89457, 0.449519 1.78378 0.748482, 0.368129 1.8283 0.690242, 
            0.376793 1.84735 -0.669291, 0.295276 1.83661 -0.669291, 0.517987 1.92886 -0.669291, 0.452756 1.87881 -0.669291, 
            0.568039 1.99409 -0.669291, 0.599504 2.07006 -0.669291, 0.610236 2.15157 -0.669291, 0.599504 2.23309 -0.669291, 
            0.568039 2.30906 -0.669291, 0.517987 2.37429 -0.669291, 0.452756 2.42434 -0.669291, 0.376793 2.4558 -0.669291, 
            0.295276 2.46654 -0.669291, 0.213758 2.4558 -0.669291, 0.137795 2.42434 -0.669291, 0.072565 2.37429 -0.669291, 
            0.0225118 2.30906 -0.669291, -0.00895315 2.23309 -0.669291, -0.019685 2.15157 -0.669291, -0.00895315 2.07006 -0.669291, 
            0.0225118 1.99409 -0.669291, 0.072565 1.92886 -0.669291, 0.137795 1.87881 -0.669291, 0.213758 1.84735 -0.669291, 
            -1.75784 2.37392 -0.748057, -1.67323 2.3878 -0.748031, -1.89029 2.24897 -0.748057, -1.84026 2.31861 -0.748031, 
            -1.89558 2.06696 -0.748057, -1.90945 2.15157 -0.748031, -1.77062 1.93452 -0.748057, -1.84026 1.98454 -0.748031, 
            -1.58861 1.92923 -0.748057, -1.67323 1.91535 -0.748031, -1.45617 2.05418 -0.748057, -1.5062 1.98454 -0.748031, 
            -1.45088 2.23619 -0.748057, -1.43701 2.15157 -0.748031, -1.57584 2.36863 -0.748057, -1.5062 2.31861 -0.748031, 
            -1.59475 1.77098 0.718546, -1.52126 1.76877 0.74769, -1.45762 1.75788 0.794026, -1.4073 1.75787 0.854858, 
            -1.37368 1.75787 0.926295, -1.36383 1.79483 1.08199, -1.38824 1.75787 1.15773, -1.43055 1.75788 1.22439, 
            -1.4881 1.75787 1.27843, -1.55728 1.75787 1.31647, -1.63375 1.75787 1.3361, -1.7021 1.76341 1.33814, 
            -1.78917 1.75787 1.31646, -1.82955 1.75787 1.29427, -1.85836 1.75787 1.27843, -1.95821 1.75787 1.15773, 
            -1.98264 1.83288 1.08084, -1.98759 1.78432 1.00389, -1.88883 1.75787 0.794026, -1.82495 1.76816 0.747593, 
            -1.75301 1.78193 0.718946, -1.67306 1.77452 0.708546, -1.67333 1.83655 0.64645, -1.75277 1.84664 0.643638, 
            -1.88891 1.90775 0.706153, -1.82518 1.8756 0.654287, -1.93917 1.96327 0.734548, -1.88883 1.92198 0.629921, 
            -1.97284 2.02866 0.768373, -1.93916 1.98281 0.62992, -1.97269 1.78383 0.925959, -1.97277 2.05425 0.62992, 
            -1.98732 2.12825 0.737701, -1.98261 2.21059 0.629938, -1.95821 2.28568 0.629921, -1.91599 1.8117 1.22357, 
            -1.86099 2.3888 0.77981, -1.91591 2.35234 0.629919, -1.85836 1.85932 1.27045, -1.79246 2.42645 0.789174, 
            -1.85836 2.40638 0.629921, -1.78917 1.86527 1.30801, -1.71756 2.44561 0.796215, -1.78917 2.44442 0.629922, 
            -1.71191 1.92498 1.31828, -1.63455 2.44623 0.797029, -1.67323 2.46654 0.629921, -1.7127 2.46405 0.629921, 
            -1.6289 1.92417 1.31766, -1.55887 2.42807 0.791075, -1.63375 2.46405 0.629921, -1.554 1.91712 1.29849, 
            -1.4881 2.3984 0.73137, -1.55728 2.44442 0.62992, -1.4881 1.85932 1.27045, -1.4881 2.40638 0.629921, 
            -1.42897 1.89484 1.20817, -1.43055 2.35234 0.629922, -1.38824 1.84044 1.15123, -1.3882 2.28519 0.67702, 
            -1.3638 2.20997 0.675511, -1.35895 2.13094 0.706185, -1.3738 2.05382 0.671971, -1.40736 1.98257 0.663698, 
            -1.4568 1.80911 0.788002, -1.52106 1.87572 0.64129, -1.51619 1.87942 0.629921, -1.45764 1.92194 0.644156, 
            -1.43084 2.33771 0.770775, -1.38824 2.25985 0.793022, -1.45961 1.89227 0.727691, -1.75143 1.83027 0.68224, 
            -1.95943 2.26211 0.790756, -1.91914 2.3247 0.811542, -1.85836 2.3357 0.924338, -1.78917 2.36959 0.941606, 
            -1.7127 2.38708 0.950519, -1.63375 2.38708 0.950519, -1.48729 2.35736 0.880913, -1.36377 2.15979 0.845298, 
            -1.37392 1.98821 0.822462, -1.40796 1.93119 0.777029, -1.82323 1.82844 0.726462, -1.98283 2.18242 0.801527, 
            -1.95821 2.18488 0.940157, -1.91648 2.21301 1.01409, -1.85917 2.25367 1.05012, -1.78992 2.28227 1.07582, 
            -1.71301 2.2968 1.08954, -1.63345 2.29614 1.09031, -1.55654 2.344 0.990865, -1.4881 2.28253 1.01111, 
            -1.42998 2.26388 0.94407, -1.38799 2.20633 0.910256, -1.63146 1.80911 0.691106, -1.98268 2.03347 0.993194, 
            -1.95847 2.10491 1.029, -1.55728 2.24333 1.11538, -1.4881 2.21644 1.08849, -1.43055 2.17822 1.05027, 
            -1.91591 2.10729 1.11085, -1.85836 2.13906 1.15458, -1.78917 2.16141 1.18535, -1.7127 2.17295 1.20123, 
            -1.63375 2.17295 1.20123, -1.55728 2.16141 1.18535, -1.4881 2.13906 1.15458, -1.38799 2.09775 1.03511, 
            -1.35888 2.00839 0.91511, -1.88771 1.82126 0.782857, -1.93907 1.87537 0.822374, -1.91648 1.989 1.17884, 
            -1.85917 2.00887 1.2294, -1.78992 2.02269 1.26529, -1.7127 2.07847 1.25913, -1.63375 2.07847 1.25913, 
            -1.55728 2.06956 1.24164, -1.42998 2.06611 1.13955, -1.36371 1.98846 1.02677, -1.37348 1.85072 0.914703, 
            -1.40675 1.82816 0.846428, -1.93903 1.79068 0.854511, -1.97265 1.8909 0.897074, -1.98757 1.95169 0.9563, 
            -1.95827 1.92598 1.13485, -1.48729 2.00429 1.2313, -1.38799 1.9559 1.12031, -1.35897 1.8178 1.00256, 
            -1.52744 1.8425 0.714909, -1.59343 1.84698 0.653832, -1.59171 1.84735 -0.669291, -1.67323 1.83661 -0.669291, 
            -1.45052 1.92886 -0.669291, -1.51575 1.87881 -0.669291, -1.40046 1.99409 -0.669291, -1.369 2.07006 -0.669291, 
            -1.35827 2.15157 -0.669291, -1.369 2.23309 -0.669291, -1.40046 2.30906 -0.669291, -1.45052 2.37429 -0.669291, 
            -1.51575 2.42434 -0.669291, -1.59171 2.4558 -0.669291, -1.67323 2.46654 -0.669291, -1.75475 2.4558 -0.669291, 
            -1.83071 2.42434 -0.669291, -1.89594 2.37429 -0.669291, -1.94599 2.30906 -0.669291, -1.97746 2.23309 -0.669291, 
            -1.98819 2.15157 -0.669291, -1.97746 2.07006 -0.669291, -1.94599 1.99409 -0.669291, -1.89594 1.92886 -0.669291, 
            -1.83071 1.87881 -0.669291, -1.75475 1.84735 -0.669291
          ]
        }
        color Color
        {
          color
          [
            0.25098 0.25098 0.25098, 0.25098 0.25098 0.25098, 0.25098 0.25098 0.25098, 0.25098 0.25098 0.25098, 
            0.25098 0.25098 0.25098, 0.25098 0.25098 0.25098, 0.25098 0.25098 0.25098, 0.25098 0.25098 0.25098, 
            0.25098 0.25098 0.25098, 0.25098 0.25098 0.25098, 0.25098 0.25098 0.25098, 0.25098 0.25098 0.25098, 
            0.25098 0.25098 0.25098, 1 1 0, 1 1 0, 1 1 0, 
            1 1 0, 1 1 0, 1 1 0, 1 1 0, 
            1 1 0, 1 1 0, 1 1 0, 1 1 0, 
            1 1 0, 1 1 0, 1 1 0, 1 1 0, 
            1 1 0, 1 1 0, 1 1 0, 1 1 0, 
            1 1 0, 1 1 0, 1 1 0, 1 1 0, 
            1 1 0, 1 1 0, 1 1 0, 1 1 0, 
            1 1 0, 1 1 0, 1 1 0, 1 1 0, 
            1 1 0, 1 1 0, 1 1 0, 1 1 0, 
            1 1 0, 1 1 0, 1 1 0, 1 1 0, 
            1 1 0, 1 1 0, 1 1 0, 1 1 0, 
            1 1 0, 1 1 0, 1 1 0, 1 1 0, 
            1 1 0, 1 1 0, 1 1 0, 1 1 0, 
            1 1 0, 1 1 0, 1 1 0, 1 1 0, 
            1 1 0, 1 1 0, 1 1 0, 1 1 0, 
            1 1 0, 1 1 0, 1 1 0, 1 1 0, 
            1 1 0, 1 1 0, 1 1 0, 1 1 0, 
            1 1 0, 1 1 0, 1 1 0, 1 1 0, 
            1 1 0, 1 1 0, 1 1 0, 1 1 0, 
            1 1 0, 1 1 0, 1 1 0, 1 1 0, 
            1 1 0, 1 1 0, 1 1 0, 1 1 0, 
            1 1 0, 1 1 0, 1 1 0, 1 1 0, 
            1 1 0, 1 1 0, 1 1 0, 1 1 0, 
            1 1 0, 1 1 0, 1 1 0, 1 1 0, 
            1 1 0, 1 1 0, 1 1 0, 1 1 0, 
            1 1 0, 1 1 0, 1 1 0, 1 1 0, 
            1 1 0, 1 1 0, 1 1 0, 1 1 0, 
            1 1 0, 1 1 0, 1 1 0, 1 1 0, 
            1 1 0, 1 1 0, 1 1 0, 1 1 0, 
            1 1 0, 1 1 0, 1 1 0, 1 1 0, 
            1 1 0, 1 1 0, 1 1 0, 1 1 0, 
            1 1 0, 1 1 0, 1 1 0, 1 1 0, 
            1 1 0, 1 1 0, 1 1 0, 1 1 0, 
            1 1 0, 1 1 0, 1 1 0, 1 1 0, 
            1 1 0, 1 1 0, 1 1 0, 1 1 0, 
            1 1 0, 1 1 0, 1 1 0, 1 1 0, 
            1 1 0, 1 1 0, 1 1 0, 1 1 0, 
            1 1 0, 1 1 0, 1 1 0, 1 1 0, 
            1 1 0, 1 1 0, 1 1 0, 1 1 0, 
            1 1 0, 1 1 0, 1 1 0, 1 1 0, 
            1 1 0, 1 1 0, 1 1 0, 1 1 0, 
            1 1 0, 1 1 0, 1 1 0, 1 1 0, 
            1 1 0, 1 1 0, 1 1 0, 1 1 0, 
            1 1 0, 1 1 0, 1 1 0, 1 1 0, 
            1 1 0, 1 1 0, 1 1 0, 1 1 0, 
            1 1 0, 1 1 0, 1 1 0, 1 1 0, 
            1 1 0, 1 1 0, 1 1 0, 1 1 0, 
            1 1 0, 1 1 0, 1 1 0, 1 1 0, 
            1 1 0, 1 1 0, 1 1 0, 1 1 0, 
            1 1 0, 1 1 0, 1 1 0, 1 1 0, 
            1 1 0, 1 1 0, 1 1 0, 1 1 0, 
            1 1 0, 0.25098 0.25098 0.25098, 0.25098 0.25098 0.25098, 0.25098 0.25098 0.25098, 
            0.25098 0.25098 0.25098, 0.25098 0.25098 0.25098, 0.25098 0.25098 0.25098, 0.25098 0.25098 0.25098, 
            0.25098 0.25098 0.25098, 0.25098 0.25098 0.25098, 0.25098 0.25098 0.25098, 0.25098 0.25098 0.25098, 
            0.25098 0.25098 0.25098, 0.25098 0.25098 0.25098, 0.25098 0.25098 0.25098, 0.25098 0.25098 0.25098, 
            0.25098 0.25098 0.25098, 0.25098 0.25098 0.25098, 0.25098 0.25098 0.25098, 0.25098 0.25098 0.25098, 
            0.25098 0.25098 0.25098, 0.25098 0.25098 0.25098, 0.25098 0.25098 0.25098, 0.25098 0.25098 0.25098, 
            0.25098 0.25098 0.25098, 0.25098 0.25098 0.25098, 0.25098 0.25098 0.25098, 0.25098 0.25098 0.25098, 
            0.25098 0.25098 0.25098, 0.25098 0.25098 0.25098, 0.25098 0.25098 0.25098, 0.25098 0.25098 0.25098, 
            0.25098 0.25098 0.25098, 0.25098 0.25098 0.25098, 0.25098 0.25098 0.25098, 0.25098 0.25098 0.25098, 
            0.25098 0.25098 0.25098, 0.25098 0.25098 0.25098, 0.25098 0.25098 0.25098, 0.25098 0.25098 0.25098, 
            0.25098 0.25098 0.25098, 0.25098 0.25098 0.25098, 0.25098 0.25098 0.25098, 0.25098 0.25098 0.25098, 
            0.25098 0.25098 0.25098, 0.25098 0.25098 0.25098, 0.25098 0.25098 0.25098, 0.25098 0.25098 0.25098, 
            0.25098 0.25098 0.25098, 0.25098 0.25098 0.25098, 0.25098 0.25098 0.25098, 0.25098 0.25098 0.25098, 
            0.25098 0.25098 0.25098, 0.25098 0.25098 0.25098, 0.25098 0.25098 0.25098, 0.25098 0.25098 0.25098, 
            0.25098 0.25098 0.25098, 0.25098 0.25098 0.25098, 0.25098 0.25098 0.25098, 0.25098 0.25098 0.25098, 
            0.25098 0.25098 0.25098, 0.25098 0.25098 0.25098, 0.25098 0.25098 0.25098, 0.25098 0.25098 0.25098, 
            0.25098 0.25098 0.25098, 0.25098 0.25098 0.25098, 0.25098 0.25098 0.25098, 0.25098 0.25098 0.25098, 
            0.25098 0.25098 0.25098, 0.25098 0.25098 0.25098, 0.25098 0.25098 0.25098, 0.25098 0.25098 0.25098, 
            0.25098 0.25098 0.25098, 0.25098 0.25098 0.25098, 0.25098 0.25098 0.25098, 0.25098 0.25098 0.25098, 
            0.25098 0.25098 0.25098, 0.25098 0.25098 0.25098, 0.25098 0.25098 0.25098, 0.25098 0.25098 0.25098, 
            0.25098 0.25098 0.25098, 0.25098 0.25098 0.25098, 0.25098 0.25098 0.25098, 0.25098 0.25098 0.25098, 
            0.25098 0.25098 0.25098, 0.25098 0.25098 0.25098, 0.25098 0.25098 0.25098, 0.25098 0.25098 0.25098, 
            0.25098 0.25098 0.25098, 0.25098 0.25098 0.25098, 0.25098 0.25098 0.25098, 0.25098 0.25098 0.25098, 
            0.25098 0.25098 0.25098, 0.25098 0.25098 0.25098, 0.25098 0.25098 0.25098, 0.25098 0.25098 0.25098, 
            0.25098 0.25098 0.25098, 0.25098 0.25098 0.25098, 0.25098 0.25098 0.25098, 0.25098 0.25098 0.25098, 
            0.25098 0.25098 0.25098, 0.25098 0.25098 0.25098, 0.25098 0.25098 0.25098, 0.25098 0.25098 0.25098, 
            0.25098 0.25098 0.25098, 0.25098 0.25098 0.25098, 0.25098 0.25098 0.25098, 0.25098 0.25098 0.25098, 
            0.25098 0.25098 0.25098, 0.25098 0.25098 0.25098, 0.25098 0.25098 0.25098, 0.25098 0.25098 0.25098, 
            0.25098 0.25098 0.25098, 0.25098 0.25098 0.25098, 0.25098 0.25098 0.25098, 0.25098 0.25098 0.25098, 
            0.25098 0.25098 0.25098, 0.25098 0.25098 0.25098, 0.25098 0.25098 0.25098, 0.25098 0.25098 0.25098, 
            0.25098 0.25098 0.25098, 0.25098 0.25098 0.25098, 0.25098 0.25098 0.25098, 0.25098 0.25098 0.25098, 
            0.25098 0.25098 0.25098, 0.25098 0.25098 0.25098, 0.25098 0.25098 0.25098, 0.25098 0.25098 0.25098, 
            0.25098 0.25098 0.25098, 0.25098 0.25098 0.25098, 0.25098 0.25098 0.25098, 0.25098 0.25098 0.25098, 
            0.25098 0.25098 0.25098, 0.25098 0.25098 0.25098, 0.25098 0.25098 0.25098, 0.25098 0.25098 0.25098, 
            0.25098 0.25098 0.25098, 0.25098 0.25098 0.25098, 0.25098 0.25098 0.25098, 0.25098 0.25098 0.25098, 
            0.25098 0.25098 0.25098, 0.25098 0.25098 0.25098, 0.25098 0.25098 0.25098, 0.25098 0.25098 0.25098, 
            0.25098 0.25098 0.25098, 0.25098 0.25098 0.25098, 0.25098 0.25098 0.25098, 0.25098 0.25098 0.25098, 
            0.25098 0.25098 0.25098, 0.25098 0.25098 0.25098, 0.25098 0.25098 0.25098, 0.25098 0.25098 0.25098, 
            0.25098 0.25098 0.25098, 0.25098 0.25098 0.25098, 0.25098 0.25098 0.25098, 0.25098 0.25098 0.25098, 
            0.25098 0.25098 0.25098, 0.25098 0.25098 0.25098, 0.25098 0.25098 0.25098, 1 1 0, 
            1 1 0, 1 1 0, 1 1 0, 1 1 0, 
            1 1 0, 1 1 0, 1 1 0, 1 1 0, 
            1 1 0, 1 1 0, 1 1 0, 1 1 0, 
            1 1 0, 1 1 0, 1 1 0, 1 1 0, 
            1 1 0, 1 1 0, 1 1 0, 1 1 0, 
            1 1 0, 1 1 0, 1 1 0, 1 1 0, 
            1 1 0, 1 1 0, 1 1 0, 1 1 0, 
            1 1 0, 1 1 0, 1 1 0, 1 1 0, 
            1 1 0, 1 1 0, 1 1 0, 1 1 0, 
            1 1 0, 1 1 0, 1 1 0, 1 1 0, 
            1 1 0, 1 1 0, 1 1 0, 1 1 0, 
            1 1 0, 1 1 0, 1 1 0, 1 1 0, 
            1 1 0, 1 1 0, 1 1 0, 1 1 0, 
            1 1 0, 1 1 0, 1 1 0, 1 1 0, 
            1 1 0, 1 1 0, 1 1 0, 1 1 0, 
            1 1 0, 1 1 0, 1 1 0, 1 1 0, 
            1 1 0, 1 1 0, 1 1 0, 1 1 0, 
            1 1 0, 1 1 0, 1 1 0, 1 1 0, 
            1 1 0, 1 1 0, 1 1 0, 1 1 0, 
            1 1 0, 1 1 0, 1 1 0, 1 1 0, 
            1 1 0, 1 1 0, 1 1 0, 1 1 0, 
            1 1 0, 1 1 0, 1 1 0, 1 1 0, 
            1 1 0, 1 1 0, 1 1 0, 1 1 0, 
            1 1 0, 1 1 0, 1 1 0, 1 1 0, 
            1 1 0, 1 1 0, 1 1 0, 1 1 0, 
            1 1 0, 1 1 0, 1 1 0, 1 1 0, 
            1 1 0, 1 1 0, 1 1 0, 1 1 0, 
            1 1 0, 1 1 0, 1 1 0, 1 1 0, 
            1 1 0, 1 1 0, 1 1 0, 1 1 0, 
            1 1 0, 1 1 0, 1 1 0, 1 1 0, 
            1 1 0, 1 1 0, 1 1 0, 1 1 0, 
            1 1 0, 1 1 0, 1 1 0, 1 1 0, 
            1 1 0, 1 1 0, 1 1 0, 1 1 0, 
            1 1 0, 1 1 0, 1 1 0, 1 1 0, 
            1 1 0, 1 1 0, 1 1 0, 1 1 0, 
            1 1 0, 1 1 0, 1 1 0, 1 1 0, 
            1 1 0, 1 1 0, 1 1 0, 1 1 0, 
            1 1 0, 1 1 0, 1 1 0, 1 1 0, 
            1 1 0, 1 1 0, 1 1 0, 1 1 0, 
            1 1 0, 1 1 0, 1 1 0, 1 1 0, 
            1 1 0, 1 1 0, 1 1 0, 1 1 0, 
            1 1 0, 1 1 0, 1 1 0, 1 1 0, 
            0.25098 0.25098 0.25098, 0.25098 0.25098 0.25098, 0.25098 0.25098 0.25098, 0.25098 0.25098 0.25098, 
            0.25098 0.25098 0.25098, 0.25098 0.25098 0.25098, 0.25098 0.25098 0.25098, 0.25098 0.25098 0.25098, 
            0.25098 0.25098 0.25098, 0.25098 0.25098 0.25098, 0.25098 0.25098 0.25098, 0.25098 0.25098 0.25098, 
            0.25098 0.25098 0.25098, 0.25098 0.25098 0.25098, 0.25098 0.25098 0.25098, 0.25098 0.25098 0.25098, 
            0.25098 0.25098 0.25098, 0.25098 0.25098 0.25098, 0.25098 0.25098 0.25098, 0.25098 0.25098 0.25098, 
            0.25098 0.25098 0.25098, 0.25098 0.25098 0.25098, 0.25098 0.25098 0.25098, 0.25098 0.25098 0.25098, 
            1 1 0, 1 1 0, 1 1 0, 1 1 0, 
            1 1 0, 1 1 0, 1 1 0, 1 1 0, 
            1 1 0, 1 1 0, 1 1 0, 1 1 0, 
            1 1 0, 1 1 0, 1 1 0, 1 1 0, 
            1 1 0, 1 1 0, 1 1 0, 1 1 0, 
            1 1 0, 1 1 0, 1 1 0, 1 1 0, 
            1 1 0, 1 1 0, 1 1 0, 1 1 0, 
            1 1 0, 1 1 0, 1 1 0, 1 1 0, 
            1 1 0, 1 1 0, 1 1 0, 1 1 0, 
            1 1 0, 1 1 0, 1 1 0, 1 1 0, 
            1 1 0, 1 1 0, 1 1 0, 1 1 0, 
            1 1 0, 1 1 0, 1 1 0, 1 1 0, 
            1 1 0, 1 1 0, 1 1 0, 1 1 0, 
            1 1 0, 1 1 0, 1 1 0, 1 1 0, 
            1 1 0, 1 1 0, 1 1 0, 1 1 0, 
            1 1 0, 1 1 0, 1 1 0, 1 1 0, 
            1 1 0, 1 1 0, 1 1 0, 1 1 0, 
            1 1 0, 1 1 0, 1 1 0, 1 1 0, 
            1 1 0, 1 1 0, 1 1 0, 1 1 0, 
            1 1 0, 1 1 0, 1 1 0, 1 1 0, 
            1 1 0, 1 1 0, 1 1 0, 1 1 0, 
            1 1 0, 1 1 0, 1 1 0, 1 1 0, 
            1 1 0, 1 1 0, 1 1 0, 1 1 0, 
            1 1 0, 1 1 0, 1 1 0, 1 1 0, 
            1 1 0, 1 1 0, 1 1 0, 1 1 0, 
            1 1 0, 1 1 0, 1 1 0, 1 1 0, 
            1 1 0, 1 1 0, 1 1 0, 1 1 0, 
            1 1 0, 1 1 0, 1 1 0, 1 1 0, 
            1 1 0, 1 1 0, 1 1 0, 1 1 0, 
            1 1 0, 1 1 0, 1 1 0, 1 1 0, 
            1 1 0, 1 1 0, 1 1 0, 1 1 0, 
            1 1 0, 1 1 0, 1 1 0, 1 1 0, 
            1 1 0, 1 1 0, 1 1 0, 1 1 0, 
            1 1 0, 1 1 0, 1 1 0, 1 1 0, 
            1 1 0, 1 1 0, 1 1 0, 1 1 0, 
            1 1 0, 1 1 0, 1 1 0, 1 1 0, 
            1 1 0, 1 1 0, 1 1 0, 1 1 0, 
            1 1 0, 1 1 0, 1 1 0, 1 1 0, 
            1 1 0, 1 1 0, 1 1 0, 1 1 0, 
            1 1 0, 1 1 0, 1 1 0, 1 1 0, 
            1 1 0, 1 1 0, 1 1 0, 1 1 0, 
            1 1 0, 1 1 0, 1 1 0, 1 1 0, 
            1 1 0, 1 1 0, 1 1 0, 1 1 0, 
            1 1 0, 1 1 0, 1 1 0, 1 1 0, 
            1 1 0, 1 1 0, 1 1 0, 1 1 0, 
            1 1 0, 1 1 0, 1 1 0, 1 1 0, 
            1 1 0, 1 1 0, 1 1 0, 1 1 0, 
            1 1 0, 1 1 0, 1 1 0, 1 1 0, 
            1 1 0, 1 1 0, 1 1 0, 1 1 0, 
            1 1 0, 1 1 0, 1 1 0, 1 1 0, 
            1 1 0, 1 1 0, 1 1 0, 1 1 0, 
            1 1 0, 1 1 0, 1 1 0, 1 1 0, 
            1 1 0, 1 1 0, 1 1 0, 1 1 0, 
            1 1 0, 1 1 0, 1 1 0, 1 1 0, 
            1 1 0, 1 1 0, 1 1 0, 1 1 0, 
            1 1 0, 1 1 0, 1 1 0, 1 1 0, 
            1 1 0, 1 1 0, 1 1 0, 1 1 0, 
            1 1 0, 1 1 0, 1 1 0, 1 1 0, 
            1 1 0, 1 1 0, 1 1 0, 1 1 0, 
            1 1 0, 1 1 0, 1 1 0, 1 1 0, 
            1 1 0, 1 1 0, 1 1 0, 1 1 0, 
            1 1 0, 1 1 0, 1 1 0, 1 1 0, 
            1 1 0, 1 1 0, 1 1 0, 1 1 0, 
            1 1 0, 1 1 0, 1 1 0, 1 1 0, 
            1 1 0, 1 1 0, 1 1 0, 1 1 0, 
            1 1 0, 1 1 0, 1 1 0, 1 1 0, 
            1 1 0, 1 1 0, 1 1 0, 1 1 0, 
            1 1 0, 1 1 0, 1 1 0, 1 1 0, 
            1 1 0, 1 1 0, 1 1 0, 1 1 0, 
            1 1 0, 1 1 0, 1 1 0, 1 1 0, 
            1 1 0, 1 1 0, 1 1 0, 1 1 0, 
            1 1 0, 1 1 0, 1 1 0, 1 1 0, 
            1 1 0, 1 1 0, 1 1 0, 1 1 0, 
            1 1 0, 1 1 0, 1 1 0, 1 1 0, 
            1 1 0, 1 1 0, 1 1 0, 1 1 0, 
            1 1 0, 1 1 0, 1 1 0, 1 1 0, 
            1 1 0, 1 1 0, 1 1 0, 1 1 0, 
            1 1 0, 1 1 0, 1 1 0, 1 1 0, 
            1 1 0, 1 1 0, 1 1 0, 1 1 0, 
            1 1 0, 1 1 0, 1 1 0, 1 1 0, 
            1 1 0, 1 1 0, 1 1 0, 1 1 0, 
            1 1 0, 1 1 0, 1 1 0, 1 1 0, 
            1 1 0, 1 1 0, 1 1 0, 1 1 0, 
            1 1 0, 1 1 0, 1 1 0, 1 1 0, 
            1 1 0, 1 1 0, 1 1 0, 1 1 0, 
            1 1 0, 1 1 0, 1 1 0, 1 1 0, 
            1 1 0, 1 1 0, 1 1 0, 1 1 0, 
            1 1 0, 1 1 0, 1 1 0, 1 1 0, 
            1 1 0, 1 1 0, 1 1 0, 1 1 0, 
            1 1 0, 1 1 0, 1 1 0, 1 1 0, 
            1 1 0, 1 1 0, 1 1 0, 1 1 0, 
            1 1 0, 1 1 0, 1 1 0, 1 1 0, 
            1 1 0, 1 1 0
          ]
        }
        coordIndex
        [
          3,4,1,-1, 5,6,7,-1, 7,6,8,-1, 7,8,9,-1, 9,8,10,-1, 9,10,11,-1, 
          11,10,12,-1, 12,1,11,-1, 11,1,4,-1, 20,13,14,-1, 16,17,36,-1, 19,20,21,-1, 
          34,35,22,-1, 22,35,38,-1, 24,25,26,-1, 26,25,27,-1, 26,27,28,-1, 28,27,18,-1, 
          29,19,21,-1, 29,21,30,-1, 29,30,31,-1, 31,30,40,-1, 31,40,33,-1, 17,18,36,-1, 
          36,18,27,-1, 36,27,25,-1, 41,25,24,-1, 41,24,38,-1, 38,24,23,-1, 38,23,22,-1, 
          15,16,36,-1, 15,36,37,-1, 37,36,25,-1, 37,25,41,-1, 13,16,14,-1, 14,16,15,-1, 
          14,15,39,-1, 39,15,37,-1, 39,37,40,-1, 40,37,41,-1, 21,20,14,-1, 21,14,30,-1, 
          30,14,39,-1, 30,39,40,-1, 33,40,41,-1, 33,41,32,-1, 32,41,38,-1, 32,38,35,-1, 
          48,42,43,-1, 44,46,65,-1, 57,48,49,-1, 63,64,50,-1, 50,64,67,-1, 52,53,55,-1, 
          55,53,54,-1, 55,54,56,-1, 56,54,47,-1, 57,49,58,-1, 58,49,59,-1, 58,59,60,-1, 
          60,59,69,-1, 69,62,60,-1, 46,47,65,-1, 65,47,54,-1, 65,54,53,-1, 70,53,52,-1, 
          70,52,67,-1, 67,52,51,-1, 67,51,50,-1, 45,44,65,-1, 45,65,66,-1, 66,65,53,-1, 
          66,53,70,-1, 42,44,43,-1, 43,44,45,-1, 43,45,68,-1, 68,45,66,-1, 68,66,69,-1, 
          69,66,70,-1, 49,48,43,-1, 49,43,59,-1, 59,43,68,-1, 59,68,69,-1, 62,69,70,-1, 
          62,70,61,-1, 61,70,67,-1, 61,67,64,-1, 74,91,95,-1, 71,76,77,-1, 77,76,78,-1, 
          78,76,79,-1, 79,76,81,-1, 79,81,80,-1, 80,81,82,-1, 83,84,85,-1, 85,84,86,-1, 
          85,86,82,-1, 87,88,89,-1, 89,88,90,-1, 89,90,93,-1, 92,91,94,-1, 93,90,92,-1, 
          93,92,94,-1, 95,91,92,-1, 95,92,90,-1, 95,90,88,-1, 96,88,87,-1, 96,87,98,-1, 
          98,87,75,-1, 98,75,101,-1, 73,74,95,-1, 73,95,97,-1, 97,95,88,-1, 97,88,96,-1, 
          71,74,72,-1, 72,74,73,-1, 72,73,99,-1, 99,73,97,-1, 99,97,100,-1, 100,97,96,-1, 
          100,96,98,-1, 76,71,72,-1, 76,72,81,-1, 81,72,99,-1, 81,99,100,-1, 81,100,82,-1, 
          82,100,85,-1, 85,100,98,-1, 85,98,83,-1, 83,98,101,-1, 83,101,102,-1, 106,107,108,-1, 
          108,107,109,-1, 108,109,110,-1, 110,109,111,-1, 110,111,112,-1, 114,115,105,-1, 116,122,117,-1, 
          118,121,119,-1, 117,122,120,-1, 120,122,119,-1, 120,119,121,-1, 123,122,124,-1, 124,122,116,-1, 
          124,116,114,-1, 114,116,115,-1, 103,118,104,-1, 104,118,119,-1, 104,119,122,-1, 104,122,123,-1, 
          125,123,124,-1, 125,124,114,-1, 107,103,104,-1, 107,104,109,-1, 109,104,111,-1, 111,104,123,-1, 
          111,123,125,-1, 106,103,107,-1, 112,111,125,-1, 112,125,113,-1, 113,125,114,-1, 113,114,105,-1, 
          113,105,126,-1, 127,128,129,-1, 129,128,130,-1, 129,130,131,-1, 131,130,132,-1, 133,134,135,-1, 
          135,134,136,-1, 135,136,137,-1, 137,136,138,-1, 137,138,139,-1, 139,138,140,-1, 139,140,141,-1, 
          141,140,142,-1, 141,142,143,-1, 143,142,128,-1, 143,128,127,-1, 143,127,144,-1, 19,131,132,-1, 
          19,132,20,-1, 20,132,145,-1, 20,145,13,-1, 13,145,146,-1, 13,146,16,-1, 16,146,147,-1, 
          16,147,17,-1, 17,147,148,-1, 17,148,18,-1, 18,148,149,-1, 18,149,28,-1, 150,151,152,-1, 
          152,151,153,-1, 152,153,154,-1, 154,153,155,-1, 197,156,157,-1, 157,156,158,-1, 157,158,159,-1, 
          159,158,160,-1, 159,160,162,-1, 162,160,161,-1, 162,161,163,-1, 163,161,164,-1, 163,164,165,-1, 
          165,164,151,-1, 165,151,166,-1, 166,151,150,-1, 57,154,155,-1, 57,155,48,-1, 48,155,167,-1, 
          48,167,42,-1, 42,167,168,-1, 42,168,44,-1, 44,168,169,-1, 44,169,46,-1, 46,169,170,-1, 
          46,170,47,-1, 47,170,171,-1, 47,171,56,-1, 137,139,172,-1, 135,174,133,-1, 133,174,175,-1, 
          175,174,176,-1, 175,176,191,-1, 175,191,177,-1, 177,191,182,-1, 178,179,180,-1, 180,179,181,-1, 
          180,181,182,-1, 183,184,185,-1, 185,184,186,-1, 185,186,187,-1, 187,186,143,-1, 187,143,144,-1, 
          141,143,188,-1, 188,143,186,-1, 188,186,184,-1, 192,184,183,-1, 192,183,190,-1, 190,183,173,-1, 
          190,173,193,-1, 139,141,172,-1, 172,141,188,-1, 172,188,189,-1, 189,188,184,-1, 189,184,192,-1, 
          174,137,172,-1, 174,172,176,-1, 176,172,189,-1, 176,189,191,-1, 191,189,192,-1, 135,137,174,-1, 
          182,191,192,-1, 182,192,180,-1, 180,192,190,-1, 180,190,178,-1, 178,190,193,-1, 178,193,194,-1, 
          159,162,213,-1, 162,163,195,-1, 157,196,197,-1, 197,196,198,-1, 198,196,199,-1, 198,199,200,-1, 
          200,199,201,-1, 212,205,204,-1, 207,206,208,-1, 208,206,209,-1, 208,209,211,-1, 210,165,166,-1, 
          211,209,210,-1, 211,210,166,-1, 163,165,195,-1, 195,165,210,-1, 195,210,209,-1, 212,206,207,-1, 
          212,207,205,-1, 213,162,195,-1, 213,195,209,-1, 213,209,214,-1, 214,209,206,-1, 214,206,215,-1, 
          215,206,212,-1, 215,212,204,-1, 196,159,213,-1, 196,213,199,-1, 199,213,214,-1, 157,159,196,-1, 
          201,199,214,-1, 201,214,202,-1, 202,214,215,-1, 202,215,203,-1, 203,215,204,-1, 203,204,216,-1, 
          217,218,219,-1, 219,218,220,-1, 221,222,223,-1, 223,222,224,-1, 149,225,134,-1, 134,225,226,-1, 
          134,226,227,-1, 169,226,170,-1, 170,226,171,-1, 227,153,151,-1, 156,171,228,-1, 228,171,226,-1, 
          228,226,229,-1, 169,168,226,-1, 226,168,167,-1, 226,167,227,-1, 227,167,155,-1, 227,155,153,-1, 
          151,164,227,-1, 227,164,161,-1, 227,161,230,-1, 231,218,232,-1, 232,218,233,-1, 232,233,234,-1, 
          234,233,229,-1, 234,229,235,-1, 235,229,226,-1, 236,225,220,-1, 220,225,149,-1, 220,149,237,-1, 
          237,149,148,-1, 237,148,147,-1, 140,138,227,-1, 227,138,136,-1, 227,136,134,-1, 147,146,237,-1, 
          237,146,145,-1, 237,145,132,-1, 228,238,156,-1, 156,238,239,-1, 156,239,158,-1, 158,239,230,-1, 
          158,230,160,-1, 160,230,161,-1, 240,241,220,-1, 220,241,242,-1, 220,242,236,-1, 238,243,239,-1, 
          239,243,244,-1, 239,244,222,-1, 222,244,245,-1, 222,245,246,-1, 231,247,218,-1, 218,247,248,-1, 
          218,248,220,-1, 220,248,249,-1, 220,249,240,-1, 246,250,222,-1, 222,250,251,-1, 222,251,224,-1, 
          224,251,252,-1, 224,252,253,-1, 253,254,224,-1, 224,254,255,-1, 224,255,229,-1, 229,255,256,-1, 
          229,256,228,-1, 132,130,237,-1, 237,130,128,-1, 237,128,227,-1, 227,128,142,-1, 227,142,140,-1, 
          257,258,10,-1, 259,260,8,-1, 8,260,261,-1, 8,261,10,-1, 10,261,262,-1, 10,262,257,-1, 
          263,264,258,-1, 258,264,259,-1, 257,265,258,-1, 258,265,266,-1, 258,266,263,-1, 263,266,267,-1, 
          263,267,268,-1, 264,269,259,-1, 259,269,270,-1, 259,270,260,-1, 260,270,271,-1, 260,271,257,-1, 
          257,271,272,-1, 257,272,265,-1, 273,259,274,-1, 274,259,275,-1, 274,275,276,-1, 276,275,277,-1, 
          276,277,278,-1, 278,277,258,-1, 278,258,273,-1, 273,258,259,-1, 277,279,258,-1, 258,279,280,-1, 
          12,10,1,-1, 1,10,258,-1, 258,281,1,-1, 280,281,258,-1, 285,282,283,-1, 259,8,6,-1, 
          284,275,283,-1, 283,275,259,-1, 6,285,259,-1, 259,285,283,-1, 286,287,284,-1, 275,288,277,-1, 
          277,288,289,-1, 277,289,290,-1, 291,292,284,-1, 284,287,275,-1, 287,293,275,-1, 275,293,294,-1, 
          275,294,295,-1, 296,279,297,-1, 297,279,298,-1, 295,299,275,-1, 275,299,300,-1, 275,300,288,-1, 
          290,301,277,-1, 277,301,302,-1, 277,302,303,-1, 304,305,306,-1, 307,308,277,-1, 277,308,309,-1, 
          277,309,279,-1, 279,309,310,-1, 279,310,298,-1, 311,312,284,-1, 284,312,313,-1, 284,313,291,-1, 
          314,315,284,-1, 284,315,316,-1, 284,316,286,-1, 303,317,277,-1, 277,317,318,-1, 277,318,304,-1, 
          304,306,277,-1, 277,306,319,-1, 277,319,307,-1, 292,320,284,-1, 284,320,321,-1, 284,321,314,-1, 
          314,321,322,-1, 314,322,323,-1, 304,324,305,-1, 305,324,325,-1, 305,325,326,-1, 296,327,279,-1, 
          279,327,328,-1, 279,328,284,-1, 284,328,329,-1, 284,329,311,-1, 326,330,305,-1, 305,330,331,-1, 
          305,331,332,-1, 332,331,314,-1, 332,314,333,-1, 333,314,323,-1, 334,285,5,-1, 5,285,6,-1, 
          335,336,337,-1, 337,336,338,-1, 339,283,340,-1, 340,283,282,-1, 339,336,283,-1, 283,336,335,-1, 
          283,335,280,-1, 280,335,341,-1, 280,341,281,-1, 281,341,342,-1, 282,343,340,-1, 340,343,344,-1, 
          342,337,281,-1, 281,337,338,-1, 281,338,340,-1, 281,340,344,-1, 280,279,283,-1, 283,279,284,-1, 
          345,346,347,-1, 347,346,348,-1, 347,348,349,-1, 349,348,350,-1, 349,350,351,-1, 351,350,352,-1, 
          351,352,345,-1, 345,352,346,-1, 353,352,354,-1, 354,352,350,-1, 354,350,355,-1, 355,350,348,-1, 
          355,348,356,-1, 356,348,346,-1, 356,346,353,-1, 353,346,352,-1, 357,358,355,-1, 355,358,354,-1, 
          358,359,354,-1, 354,359,353,-1, 359,360,353,-1, 353,360,356,-1, 360,357,356,-1, 356,357,355,-1, 
          361,358,362,-1, 362,358,357,-1, 362,357,363,-1, 364,365,366,-1, 366,363,364,-1, 364,363,357,-1, 
          364,357,367,-1, 367,357,360,-1, 367,360,368,-1, 368,360,359,-1, 368,359,365,-1, 365,359,358,-1, 
          365,358,366,-1, 366,358,361,-1, 219,220,369,-1, 369,220,237,-1, 369,237,370,-1, 370,237,227,-1, 
          371,230,372,-1, 372,230,239,-1, 370,227,371,-1, 371,227,230,-1, 372,239,221,-1, 221,239,222,-1, 
          373,233,217,-1, 217,233,218,-1, 223,224,374,-1, 374,224,229,-1, 374,229,373,-1, 373,229,233,-1, 
          247,375,248,-1, 248,375,376,-1, 248,376,249,-1, 249,376,377,-1, 77,225,378,-1, 378,225,236,-1, 
          378,236,379,-1, 379,236,242,-1, 379,242,380,-1, 380,242,241,-1, 380,241,381,-1, 381,241,240,-1, 
          381,240,382,-1, 382,240,249,-1, 382,249,383,-1, 383,249,377,-1, 383,377,384,-1, 417,375,247,-1, 
          417,247,385,-1, 385,247,231,-1, 385,231,386,-1, 386,231,232,-1, 386,232,387,-1, 387,232,234,-1, 
          387,234,388,-1, 388,234,235,-1, 388,235,389,-1, 389,235,226,-1, 389,226,416,-1, 250,390,251,-1, 
          251,390,391,-1, 251,391,252,-1, 252,391,392,-1, 393,228,394,-1, 394,228,256,-1, 394,256,395,-1, 
          395,256,255,-1, 395,255,396,-1, 396,255,254,-1, 396,254,397,-1, 397,254,253,-1, 397,253,398,-1, 
          398,253,252,-1, 398,252,392,-1, 398,392,399,-1, 439,390,250,-1, 439,250,400,-1, 400,250,246,-1, 
          400,246,401,-1, 401,246,245,-1, 401,245,402,-1, 402,245,244,-1, 402,244,403,-1, 403,244,243,-1, 
          403,243,404,-1, 404,243,238,-1, 404,238,405,-1, 387,388,407,-1, 417,385,408,-1, 410,421,411,-1, 
          410,411,413,-1, 413,411,412,-1, 413,412,415,-1, 415,412,414,-1, 415,414,416,-1, 416,414,389,-1, 
          417,408,418,-1, 418,408,428,-1, 418,428,419,-1, 419,428,429,-1, 422,420,427,-1, 427,420,429,-1, 
          429,420,419,-1, 421,422,427,-1, 388,389,407,-1, 407,389,414,-1, 407,414,423,-1, 423,414,412,-1, 
          423,412,426,-1, 426,412,411,-1, 424,387,407,-1, 424,407,423,-1, 424,423,425,-1, 425,423,426,-1, 
          427,426,411,-1, 427,411,421,-1, 409,421,410,-1, 386,387,406,-1, 406,387,424,-1, 406,424,428,-1, 
          428,424,425,-1, 429,425,426,-1, 429,426,427,-1, 422,421,409,-1, 385,386,408,-1, 408,386,406,-1, 
          408,406,428,-1, 429,428,425,-1, 401,402,431,-1, 403,404,437,-1, 439,400,432,-1, 435,444,434,-1, 
          435,434,447,-1, 435,447,436,-1, 436,447,437,-1, 436,437,438,-1, 438,437,404,-1, 438,404,405,-1, 
          439,432,440,-1, 440,432,441,-1, 440,441,442,-1, 445,443,450,-1, 450,443,441,-1, 441,443,442,-1, 
          444,445,450,-1, 446,403,437,-1, 446,437,447,-1, 402,403,431,-1, 431,403,446,-1, 431,446,448,-1, 
          448,446,449,-1, 449,446,447,-1, 449,447,434,-1, 449,434,450,-1, 450,434,444,-1, 433,444,435,-1, 
          430,401,431,-1, 430,431,448,-1, 445,444,433,-1, 400,401,432,-1, 432,401,430,-1, 432,430,441,-1, 
          441,430,448,-1, 441,448,449,-1, 441,449,450,-1, 452,454,453,-1, 453,457,451,-1, 451,457,522,-1, 
          458,459,460,-1, 458,460,464,-1, 462,453,456,-1, 456,453,454,-1, 456,454,455,-1, 452,453,156,-1, 
          156,453,451,-1, 156,451,171,-1, 171,451,458,-1, 171,458,463,-1, 463,458,464,-1, 465,461,464,-1, 
          464,461,466,-1, 464,466,463,-1, 468,513,469,-1, 393,470,468,-1, 470,471,468,-1, 468,471,472,-1, 
          393,468,228,-1, 228,468,469,-1, 228,469,238,-1, 238,469,467,-1, 238,467,405,-1, 405,467,433,-1, 
          405,433,438,-1, 435,438,433,-1, 468,472,473,-1, 436,438,435,-1, 474,504,475,-1, 476,477,475,-1, 
          475,477,478,-1, 475,478,474,-1, 133,481,475,-1, 498,483,479,-1, 475,481,476,-1, 482,479,483,-1, 
          480,484,479,-1, 479,484,149,-1, 479,149,475,-1, 475,149,134,-1, 475,134,133,-1, 482,485,479,-1, 
          485,486,479,-1, 479,486,480,-1, 488,487,489,-1, 488,489,495,-1, 490,492,488,-1, 409,410,491,-1, 
          488,492,487,-1, 491,410,413,-1, 77,79,488,-1, 488,79,490,-1, 491,413,415,-1, 491,415,416,-1, 
          491,416,226,-1, 491,226,488,-1, 488,226,225,-1, 488,225,77,-1, 375,491,376,-1, 376,491,488,-1, 
          376,488,377,-1, 409,491,422,-1, 491,420,422,-1, 375,417,491,-1, 491,417,418,-1, 418,419,491,-1, 
          419,420,491,-1, 493,496,494,-1, 497,495,89,-1, 89,495,496,-1, 377,488,384,-1, 384,488,495,-1, 
          384,495,497,-1, 496,495,494,-1, 131,498,479,-1, 131,499,498,-1, 498,499,500,-1, 498,500,31,-1, 
          498,31,502,-1, 502,501,503,-1, 503,498,502,-1, 185,505,475,-1, 475,505,144,-1, 475,144,127,-1, 
          504,506,475,-1, 475,506,507,-1, 475,507,508,-1, 475,508,185,-1, 131,479,129,-1, 129,479,475,-1, 
          129,475,127,-1, 390,467,391,-1, 391,467,469,-1, 391,469,392,-1, 433,467,445,-1, 439,467,390,-1, 
          439,440,467,-1, 467,440,442,-1, 467,442,443,-1, 467,443,445,-1, 392,469,399,-1, 399,469,513,-1, 
          399,513,509,-1, 513,511,509,-1, 512,511,513,-1, 512,513,510,-1, 510,513,514,-1, 516,458,515,-1, 
          515,458,154,-1, 458,516,517,-1, 517,518,458,-1, 518,519,458,-1, 519,520,458,-1, 458,520,459,-1, 
          522,523,451,-1, 451,523,524,-1, 524,525,451,-1, 451,525,521,-1, 521,208,451,-1, 451,208,526,-1, 
          451,526,527,-1, 451,527,150,-1, 154,458,152,-1, 152,458,451,-1, 152,451,150,-1, 528,529,530,-1, 
          530,529,531,-1, 532,367,533,-1, 533,367,368,-1, 534,364,532,-1, 532,364,367,-1, 535,365,534,-1, 
          534,365,364,-1, 533,368,535,-1, 535,368,365,-1, 536,537,538,-1, 538,537,539,-1, 540,361,541,-1, 
          541,361,362,-1, 542,366,540,-1, 540,366,361,-1, 543,363,542,-1, 542,363,366,-1, 541,362,543,-1, 
          543,362,363,-1, 529,535,531,-1, 531,535,534,-1, 528,533,529,-1, 529,533,535,-1, 532,530,534,-1, 
          534,530,531,-1, 530,532,528,-1, 528,532,533,-1, 537,543,539,-1, 539,543,542,-1, 536,541,537,-1, 
          537,541,543,-1, 540,538,542,-1, 542,538,539,-1, 538,540,536,-1, 536,540,541,-1, 9,544,7,-1, 
          7,544,545,-1, 546,547,4,-1, 4,547,548,-1, 549,544,550,-1, 550,544,9,-1, 550,9,548,-1, 
          548,9,11,-1, 548,11,4,-1, 551,552,553,-1, 545,554,7,-1, 7,554,555,-1, 7,555,5,-1, 
          5,555,551,-1, 5,551,334,-1, 334,551,553,-1, 334,553,4,-1, 4,553,546,-1, 544,549,545,-1, 
          545,549,554,-1, 547,546,552,-1, 552,546,553,-1, 548,547,551,-1, 551,547,552,-1, 550,548,555,-1, 
          555,548,551,-1, 549,550,554,-1, 554,550,555,-1, 276,556,274,-1, 274,556,557,-1, 273,558,278,-1, 
          278,558,559,-1, 560,556,561,-1, 561,556,276,-1, 561,276,562,-1, 562,276,278,-1, 562,278,563,-1, 
          563,278,559,-1, 564,558,565,-1, 565,558,273,-1, 565,273,566,-1, 566,273,274,-1, 566,274,567,-1, 
          567,274,557,-1, 563,559,564,-1, 564,559,558,-1, 562,563,565,-1, 565,563,564,-1, 561,562,566,-1, 
          566,562,565,-1, 560,561,567,-1, 567,561,566,-1, 556,560,557,-1, 557,560,567,-1, 568,569,571,-1, 
          571,569,570,-1, 571,570,572,-1, 571,572,574,-1, 574,572,573,-1, 574,573,575,-1, 574,575,342,-1, 
          342,575,337,-1, 341,335,577,-1, 577,335,576,-1, 577,576,578,-1, 577,578,580,-1, 580,578,579,-1, 
          580,579,581,-1, 581,579,582,-1, 568,571,581,-1, 581,571,580,-1, 583,584,585,-1, 585,584,586,-1, 
          582,579,569,-1, 569,579,570,-1, 570,579,572,-1, 572,579,578,-1, 572,578,573,-1, 573,578,576,-1, 
          573,576,575,-1, 575,576,335,-1, 575,335,337,-1, 342,341,574,-1, 574,341,577,-1, 574,577,571,-1, 
          571,577,580,-1, 587,588,340,-1, 340,588,339,-1, 336,597,338,-1, 338,597,596,-1, 589,590,593,-1, 
          593,590,591,-1, 593,591,592,-1, 593,592,594,-1, 593,594,596,-1, 596,594,595,-1, 596,595,587,-1, 
          596,587,338,-1, 338,587,340,-1, 336,339,597,-1, 597,339,588,-1, 597,588,598,-1, 597,598,601,-1, 
          601,598,599,-1, 601,599,600,-1, 601,600,602,-1, 601,602,603,-1, 603,602,604,-1, 589,593,603,-1, 
          603,593,601,-1, 605,606,607,-1, 607,606,608,-1, 604,602,590,-1, 590,602,591,-1, 591,602,600,-1, 
          591,600,592,-1, 592,600,599,-1, 592,599,594,-1, 594,599,598,-1, 594,598,595,-1, 595,598,588,-1, 
          595,588,587,-1, 596,597,593,-1, 593,597,601,-1, 590,608,604,-1, 604,608,606,-1, 589,607,590,-1, 
          590,607,608,-1, 605,603,606,-1, 606,603,604,-1, 603,605,589,-1, 589,605,607,-1, 569,586,582,-1, 
          582,586,584,-1, 568,585,569,-1, 569,585,586,-1, 583,581,584,-1, 584,581,582,-1, 581,583,568,-1, 
          568,583,585,-1, 610,611,612,-1, 610,612,609,-1, 610,613,614,-1, 610,614,611,-1, 610,615,616,-1, 
          610,616,613,-1, 610,617,618,-1, 610,618,615,-1, 610,619,620,-1, 610,620,617,-1, 610,621,622,-1, 
          610,622,619,-1, 610,623,624,-1, 610,624,621,-1, 643,625,310,-1, 310,625,298,-1, 298,625,742,-1, 
          298,742,297,-1, 742,626,297,-1, 297,626,296,-1, 296,626,627,-1, 296,627,327,-1, 627,628,327,-1, 
          327,628,328,-1, 328,628,740,-1, 328,740,329,-1, 740,678,329,-1, 329,678,311,-1, 311,678,675,-1, 
          311,675,312,-1, 675,629,312,-1, 312,629,313,-1, 313,629,630,-1, 313,630,291,-1, 630,631,291,-1, 
          291,631,292,-1, 292,631,632,-1, 292,632,320,-1, 320,632,633,-1, 320,633,321,-1, 633,634,321,-1, 
          321,634,322,-1, 322,634,635,-1, 322,635,323,-1, 635,658,323,-1, 323,658,333,-1, 333,658,636,-1, 
          333,636,332,-1, 636,637,332,-1, 332,637,305,-1, 305,637,638,-1, 305,638,306,-1, 306,638,639,-1, 
          306,639,319,-1, 639,640,319,-1, 319,640,307,-1, 307,640,641,-1, 307,641,308,-1, 641,642,308,-1, 
          308,642,309,-1, 309,642,733,-1, 309,733,310,-1, 310,733,643,-1, 644,645,646,-1, 646,645,647,-1, 
          647,649,648,-1, 647,648,646,-1, 687,651,650,-1, 702,651,687,-1, 652,655,702,-1, 702,655,653,-1, 
          702,653,651,-1, 654,655,652,-1, 656,659,654,-1, 654,659,657,-1, 654,657,655,-1, 688,659,656,-1, 
          689,663,688,-1, 688,663,660,-1, 688,660,659,-1, 658,635,736,-1, 736,635,634,-1, 736,634,661,-1, 
          662,663,689,-1, 661,634,666,-1, 662,664,665,-1, 662,665,663,-1, 634,633,666,-1, 666,633,632,-1, 
          667,671,662,-1, 662,671,668,-1, 662,668,664,-1, 666,632,631,-1, 666,631,669,-1, 670,671,667,-1, 
          669,631,630,-1, 670,672,673,-1, 670,673,671,-1, 676,680,674,-1, 674,680,677,-1, 674,677,672,-1, 
          679,680,676,-1, 683,684,706,-1, 706,684,685,-1, 706,685,686,-1, 662,689,694,-1, 662,694,695,-1, 
          662,695,667,-1, 667,695,696,-1, 667,696,670,-1, 670,696,697,-1, 670,697,672,-1, 672,697,698,-1, 
          672,698,674,-1, 650,649,701,-1, 650,701,687,-1, 654,652,690,-1, 654,690,656,-1, 656,690,691,-1, 
          656,691,688,-1, 688,691,692,-1, 688,692,689,-1, 689,692,693,-1, 689,693,694,-1, 682,681,699,-1, 
          682,699,686,-1, 686,699,700,-1, 686,700,706,-1, 649,647,726,-1, 649,726,701,-1, 694,693,703,-1, 
          694,703,695,-1, 695,703,704,-1, 695,704,696,-1, 696,704,711,-1, 696,711,697,-1, 697,711,712,-1, 
          697,712,698,-1, 698,712,705,-1, 698,705,674,-1, 674,705,676,-1, 676,705,722,-1, 676,722,679,-1, 
          679,722,723,-1, 679,723,681,-1, 681,723,699,-1, 645,643,733,-1, 645,733,647,-1, 687,701,727,-1, 
          687,727,702,-1, 702,727,728,-1, 702,728,652,-1, 652,728,707,-1, 652,707,690,-1, 690,707,708,-1, 
          690,708,691,-1, 691,708,709,-1, 691,709,692,-1, 692,709,710,-1, 692,710,693,-1, 693,710,703,-1, 
          705,712,713,-1, 705,713,714,-1, 705,714,722,-1, 699,724,700,-1, 708,707,734,-1, 708,734,709,-1, 
          709,734,715,-1, 709,715,710,-1, 710,715,716,-1, 710,716,717,-1, 710,717,703,-1, 703,717,718,-1, 
          703,718,704,-1, 704,718,719,-1, 704,719,711,-1, 711,719,720,-1, 711,720,712,-1, 712,720,721,-1, 
          712,721,713,-1, 713,721,732,-1, 713,732,714,-1, 699,723,741,-1, 699,741,724,-1, 700,724,725,-1, 
          700,725,706,-1, 701,726,640,-1, 701,640,727,-1, 717,716,729,-1, 717,729,718,-1, 718,729,730,-1, 
          718,730,719,-1, 719,730,731,-1, 719,731,720,-1, 720,731,737,-1, 720,737,721,-1, 721,737,738,-1, 
          721,738,732,-1, 723,722,740,-1, 723,740,741,-1, 706,725,742,-1, 647,733,642,-1, 647,642,726,-1, 
          727,640,639,-1, 727,639,728,-1, 728,639,638,-1, 728,638,707,-1, 707,638,637,-1, 707,637,734,-1, 
          715,734,735,-1, 715,735,716,-1, 716,735,736,-1, 716,736,729,-1, 732,738,739,-1, 732,739,714,-1, 
          714,739,675,-1, 714,675,722,-1, 722,675,678,-1, 722,678,740,-1, 724,741,627,-1, 724,627,725,-1, 
          725,627,626,-1, 725,626,742,-1, 726,642,641,-1, 726,641,640,-1, 734,637,636,-1, 734,636,735,-1, 
          735,636,658,-1, 735,658,736,-1, 729,736,661,-1, 729,661,730,-1, 730,661,666,-1, 730,666,731,-1, 
          731,666,737,-1, 737,666,669,-1, 737,669,738,-1, 738,669,630,-1, 738,630,739,-1, 739,630,629,-1, 
          739,629,675,-1, 741,740,628,-1, 741,628,627,-1, 644,683,743,-1, 683,706,743,-1, 743,706,742,-1, 
          743,742,625,-1, 644,743,645,-1, 645,743,643,-1, 643,743,625,-1, 744,683,745,-1, 746,686,747,-1, 
          747,686,685,-1, 747,685,744,-1, 744,685,684,-1, 744,684,683,-1, 748,682,746,-1, 746,682,686,-1, 
          749,681,748,-1, 748,681,682,-1, 750,679,749,-1, 749,679,681,-1, 751,680,750,-1, 750,680,679,-1, 
          752,677,751,-1, 751,677,680,-1, 753,672,752,-1, 752,672,677,-1, 754,673,753,-1, 753,673,672,-1, 
          755,671,754,-1, 754,671,673,-1, 756,668,755,-1, 755,668,671,-1, 757,665,756,-1, 756,665,664,-1, 
          756,664,668,-1, 758,663,757,-1, 757,663,665,-1, 759,660,758,-1, 758,660,663,-1, 760,659,759,-1, 
          759,659,660,-1, 761,657,760,-1, 760,657,659,-1, 762,655,761,-1, 761,655,657,-1, 763,653,762,-1, 
          762,653,655,-1, 764,651,763,-1, 763,651,653,-1, 765,650,764,-1, 764,650,651,-1, 766,649,765,-1, 
          765,649,650,-1, 767,648,766,-1, 766,648,649,-1, 683,644,745,-1, 745,644,646,-1, 745,646,767,-1, 
          767,646,648,-1, 756,609,757,-1, 757,609,758,-1, 758,609,612,-1, 758,612,759,-1, 759,612,611,-1, 
          759,611,760,-1, 760,611,761,-1, 761,611,614,-1, 761,614,762,-1, 762,614,613,-1, 762,613,763,-1, 
          763,613,764,-1, 764,613,616,-1, 764,616,765,-1, 765,616,615,-1, 765,615,766,-1, 766,615,767,-1, 
          767,615,618,-1, 767,618,745,-1, 745,618,617,-1, 745,617,744,-1, 744,617,747,-1, 747,617,620,-1, 
          747,620,746,-1, 746,620,619,-1, 746,619,748,-1, 748,619,749,-1, 749,619,622,-1, 749,622,750,-1, 
          750,622,621,-1, 750,621,751,-1, 751,621,752,-1, 752,621,624,-1, 752,624,753,-1, 753,624,623,-1, 
          753,623,754,-1, 754,623,755,-1, 755,623,610,-1, 755,610,756,-1, 756,610,609,-1, 781,768,769,-1, 
          781,769,782,-1, 781,770,771,-1, 781,771,768,-1, 781,772,773,-1, 781,773,770,-1, 781,774,775,-1, 
          781,775,772,-1, 781,776,777,-1, 781,777,774,-1, 781,778,779,-1, 781,779,776,-1, 781,782,783,-1, 
          781,783,780,-1, 805,784,318,-1, 318,784,304,-1, 304,784,785,-1, 304,785,324,-1, 785,786,324,-1, 
          324,786,325,-1, 325,786,787,-1, 325,787,326,-1, 787,788,326,-1, 326,788,330,-1, 330,788,911,-1, 
          330,911,331,-1, 911,789,331,-1, 331,789,314,-1, 314,789,790,-1, 314,790,315,-1, 790,791,315,-1, 
          315,791,316,-1, 316,791,792,-1, 316,792,286,-1, 792,793,286,-1, 286,793,287,-1, 287,793,794,-1, 
          287,794,293,-1, 794,795,293,-1, 293,795,294,-1, 294,795,796,-1, 294,796,295,-1, 796,797,295,-1, 
          295,797,798,-1, 295,798,299,-1, 798,819,299,-1, 299,819,300,-1, 300,819,799,-1, 300,799,288,-1, 
          799,800,288,-1, 288,800,289,-1, 289,800,801,-1, 289,801,290,-1, 290,801,814,-1, 290,814,301,-1, 
          814,905,301,-1, 301,905,302,-1, 302,905,802,-1, 302,802,303,-1, 802,803,303,-1, 303,803,317,-1, 
          317,803,804,-1, 317,804,318,-1, 318,804,805,-1, 810,813,808,-1, 808,813,811,-1, 808,811,809,-1, 
          803,802,893,-1, 893,802,905,-1, 812,813,810,-1, 816,815,812,-1, 812,815,813,-1, 867,817,816,-1, 
          856,817,867,-1, 857,821,856,-1, 856,821,818,-1, 856,818,817,-1, 800,799,908,-1, 908,799,819,-1, 
          820,821,857,-1, 823,827,820,-1, 820,827,824,-1, 820,824,821,-1, 819,798,822,-1, 822,798,797,-1, 
          822,797,825,-1, 826,827,823,-1, 797,796,825,-1, 825,796,795,-1, 825,795,828,-1, 829,830,826,-1, 
          826,830,831,-1, 826,831,827,-1, 828,795,832,-1, 833,837,829,-1, 829,837,834,-1, 829,834,830,-1, 
          795,794,832,-1, 832,794,793,-1, 832,793,835,-1, 836,837,833,-1, 835,793,838,-1, 852,841,836,-1, 
          836,841,839,-1, 836,839,837,-1, 793,792,838,-1, 838,792,791,-1, 838,791,840,-1, 852,843,841,-1, 
          840,791,842,-1, 791,790,842,-1, 842,790,789,-1, 911,788,903,-1, 903,788,904,-1, 788,787,904,-1, 
          904,787,786,-1, 904,786,848,-1, 849,850,851,-1, 836,833,862,-1, 836,862,852,-1, 843,852,853,-1, 
          843,853,844,-1, 844,853,863,-1, 844,863,845,-1, 851,847,854,-1, 851,854,849,-1, 849,854,912,-1, 
          807,806,855,-1, 807,855,809,-1, 820,857,858,-1, 820,858,823,-1, 823,858,859,-1, 823,859,826,-1, 
          826,859,860,-1, 826,860,829,-1, 829,860,861,-1, 829,861,833,-1, 833,861,874,-1, 833,874,862,-1, 
          852,862,876,-1, 852,876,853,-1, 853,876,877,-1, 853,877,863,-1, 846,845,864,-1, 846,864,847,-1, 
          847,864,865,-1, 847,865,854,-1, 806,878,855,-1, 809,855,866,-1, 809,866,808,-1, 856,867,868,-1, 
          856,868,857,-1, 857,868,869,-1, 857,869,858,-1, 858,869,870,-1, 858,870,859,-1, 859,870,871,-1, 
          859,871,860,-1, 860,871,872,-1, 860,872,861,-1, 861,872,873,-1, 861,873,874,-1, 862,874,875,-1, 
          862,875,876,-1, 845,863,892,-1, 845,892,864,-1, 816,812,907,-1, 816,907,867,-1, 867,907,879,-1, 
          867,879,868,-1, 868,879,880,-1, 868,880,869,-1, 874,873,881,-1, 874,881,875,-1, 875,881,882,-1, 
          875,882,876,-1, 876,882,883,-1, 876,883,877,-1, 877,883,891,-1, 877,891,863,-1, 863,891,902,-1, 
          863,902,892,-1, 855,878,804,-1, 855,804,866,-1, 808,866,893,-1, 808,893,810,-1, 810,893,894,-1, 
          810,894,812,-1, 812,894,906,-1, 812,906,907,-1, 869,880,884,-1, 869,884,870,-1, 870,884,885,-1, 
          870,885,871,-1, 871,885,886,-1, 871,886,872,-1, 872,886,887,-1, 872,887,873,-1, 873,887,888,-1, 
          873,888,881,-1, 881,888,889,-1, 881,889,882,-1, 882,889,890,-1, 882,890,883,-1, 883,890,901,-1, 
          883,901,891,-1, 878,805,804,-1, 880,879,908,-1, 880,908,884,-1, 884,908,895,-1, 884,895,885,-1, 
          885,895,896,-1, 885,896,886,-1, 886,896,897,-1, 886,897,887,-1, 887,897,898,-1, 887,898,888,-1, 
          888,898,899,-1, 888,899,889,-1, 889,899,900,-1, 889,900,890,-1, 890,900,909,-1, 890,909,901,-1, 
          891,901,910,-1, 891,910,902,-1, 864,892,903,-1, 864,903,865,-1, 865,903,904,-1, 865,904,854,-1, 
          854,904,848,-1, 854,848,912,-1, 894,893,905,-1, 894,905,906,-1, 879,907,800,-1, 879,800,908,-1, 
          898,897,828,-1, 898,828,899,-1, 899,828,832,-1, 899,832,900,-1, 900,832,835,-1, 900,835,909,-1, 
          901,909,840,-1, 901,840,910,-1, 892,902,911,-1, 892,911,903,-1, 866,804,803,-1, 866,803,893,-1, 
          906,905,814,-1, 906,814,907,-1, 907,814,801,-1, 907,801,800,-1, 895,908,819,-1, 895,819,896,-1, 
          896,819,822,-1, 896,822,897,-1, 897,822,825,-1, 897,825,828,-1, 909,835,838,-1, 909,838,840,-1, 
          910,840,842,-1, 910,842,902,-1, 902,842,789,-1, 902,789,911,-1, 912,848,785,-1, 848,786,785,-1, 
          913,849,912,-1, 913,912,878,-1, 878,912,784,-1, 784,912,785,-1, 806,913,878,-1, 805,878,784,-1, 
          914,913,915,-1, 916,851,917,-1, 917,851,850,-1, 917,850,914,-1, 914,850,849,-1, 914,849,913,-1, 
          918,847,916,-1, 916,847,851,-1, 919,846,918,-1, 918,846,847,-1, 920,845,919,-1, 919,845,846,-1, 
          921,844,920,-1, 920,844,845,-1, 922,843,921,-1, 921,843,844,-1, 923,841,922,-1, 922,841,843,-1, 
          924,839,923,-1, 923,839,841,-1, 925,837,924,-1, 924,837,839,-1, 926,834,925,-1, 925,834,837,-1, 
          927,831,926,-1, 926,831,830,-1, 926,830,834,-1, 928,827,927,-1, 927,827,831,-1, 929,824,928,-1, 
          928,824,827,-1, 930,821,929,-1, 929,821,824,-1, 931,818,930,-1, 930,818,821,-1, 932,817,931,-1, 
          931,817,818,-1, 933,816,932,-1, 932,816,817,-1, 934,815,933,-1, 933,815,816,-1, 935,813,934,-1, 
          934,813,815,-1, 936,811,935,-1, 935,811,813,-1, 937,809,936,-1, 936,809,811,-1, 913,806,915,-1, 
          915,806,807,-1, 915,807,937,-1, 937,807,809,-1, 926,768,927,-1, 927,768,928,-1, 928,768,771,-1, 
          928,771,929,-1, 929,771,770,-1, 929,770,930,-1, 930,770,931,-1, 931,770,773,-1, 931,773,932,-1, 
          932,773,772,-1, 932,772,933,-1, 933,772,934,-1, 934,772,775,-1, 934,775,935,-1, 935,775,774,-1, 
          935,774,936,-1, 936,774,937,-1, 937,774,777,-1, 937,777,915,-1, 915,777,776,-1, 915,776,914,-1, 
          914,776,917,-1, 917,776,779,-1, 917,779,916,-1, 916,779,778,-1, 916,778,918,-1, 918,778,919,-1, 
          919,778,781,-1, 919,781,920,-1, 920,781,780,-1, 920,780,921,-1, 921,780,922,-1, 922,780,783,-1, 
          922,783,923,-1, 923,783,782,-1, 923,782,924,-1, 924,782,925,-1, 925,782,769,-1, 925,769,926,-1, 
          926,769,768,-1, 262,347,257,-1, 257,347,349,-1, 261,345,262,-1, 262,345,347,-1, 351,260,349,-1, 
          349,260,257,-1, 260,351,261,-1, 261,351,345,-1, 371,271,370,-1, 370,271,270,-1, 372,272,371,-1, 
          371,272,271,-1, 269,369,270,-1, 270,369,370,-1, 221,265,372,-1, 372,265,272,-1, 264,219,269,-1, 
          269,219,369,-1, 223,266,221,-1, 221,266,265,-1, 263,217,264,-1, 264,217,219,-1, 374,267,223,-1, 
          223,267,266,-1, 268,373,263,-1, 263,373,217,-1, 373,268,374,-1, 374,268,267,-1, 4,3,2,-1, 
          0,4,2,-1
        ]
      }
      appearance Appearance
      {
        material Material
        {
	       ambientIntensity 0.2
	       diffuseColor 0.9 0.9 0.9
	       specularColor .1 .1 .1
	       shininess .5
        }
      }
    }
  ]
}
