#VRML V2.0 utf8

# Generated by VCGLIB, (C)Copyright 1999-2001 VCG, IEI-CNR

NavigationInfo {
	type [ "EXAMINE", "ANY" ]
}
Transform {
  scale 1 1 1
  translation 0 0 0
  children
  [
    Shape
    {
      geometry IndexedFaceSet
      {
        creaseAngle .5
        solid FALSE
        coord Coordinate
        {
          point
          [
            1.5748 1.1811 0.354331, 1.5748 -1.1811 0.354331, -1.23575 -0.926727 0.354331, -1.23275 -0.949491 0.354331, 
            -1.40575 -0.972268 0.354331, -1.36475 -1.0257 0.354331, -1.34353 -1.03449 0.354331, -1.32075 -1.03749 0.354331, 
            -1.38298 -1.01172 0.354331, -1.39696 -0.993492 0.354331, -1.23575 -0.972268 0.354331, -1.24454 -0.993492 0.354331, 
            -1.25852 -1.01172 0.354331, -1.27675 -1.0257 0.354331, -1.29797 -1.03449 0.354331, -1.40575 -0.926724 0.354331, 
            -1.39696 -0.905491 0.354331, -1.5748 1.1811 0.354331, -1.38298 -0.887265 0.354331, -1.36475 -0.87328 0.354331, 
            -1.29797 -0.864488 0.354331, -1.32075 -0.861489 0.354331, -1.34353 -0.864488 0.354331, -1.27675 -0.87328 0.354331, 
            -1.25852 -0.887265 0.354331, -1.24454 -0.905492 0.354331, -1.40875 -0.949491 0.354331, -1.5748 -1.1811 0.354331, 
            -1.43307 0.738189 0, -1.5748 0.738189 0, -1.5748 1.1811 0, -1.13189 -1.01181 0, 
            -1.13189 -1.1811 0, -1.5748 -1.1811 0, -1.5748 -0.738189 0, -1.43307 -0.738189 0, 
            1.43307 -0.738189 0, 1.5748 -0.738189 0, 1.5748 -1.1811 0, -1.42166 0.138884 0, 
            -1.42284 0.141732 0, -1.26378 0.866142 0, -1.13149 1.00875 0, -1.13031 1.00591 0, 
            -1.42166 -0.0579665 0, -1.42284 -0.0551181 0, -1.42166 0.532585 0, -1.42284 0.535433 0, 
            -0.377953 -0.866142 0, -0.838196 -1.00591 0, -0.840074 -1.00346 0, -0.93158 -1.00346 0, 
            -0.933457 -1.00591 0, -1.12598 -0.866142 0, 1.13149 -1.00875 0, 1.13031 -1.00591 0, 
            1.25591 -0.866142 0, 1.12843 -1.00346 0, 1.03692 -1.00346 0, 1.03505 -1.00591 0, 
            -0.181102 -0.866142 0, -1.26378 -0.728346 0, -1.13149 -1.00875 0, -0.640166 -1.00875 0, 
            -0.641346 -1.00591 0, -0.643223 -1.00346 0, 1.13189 -1.01181 0, 1.13189 -1.1811 0, 
            0.254817 1.0004 0, 0.257874 1 0, 0.141732 1.00158 0, -1.03505 1.00591 0, 
            -0.377953 0.866142 0, -1.03692 1.00346 0, -1.03937 1.00158 0, -1.42166 -0.451667 0, 
            -1.42284 -0.448819 0, -1.42126 0.135827 0, -1.42126 0.529528 0, -1.42166 0.729435 0, 
            -1.42284 0.732283 0, -0.73473 -1.00346 0, -0.736607 -1.00591 0, -0.737787 -1.00875 0, 
            0.845368 -1.0004 0, 0.84252 -1.00158 0, 1.42243 0.0558988 0, 1.42384 0.0536595 0, 
            1.42384 -0.0536595 0, 1.42571 0.0517894 0, 1.42795 0.0503823 0, -1.13189 1.01181 0, 
            -1.13189 1.1811 0, -1.12843 1.00346 0, -1.12598 1.00158 0, -1.12314 1.0004 0, 
            -0.934637 1.00875 0, -0.933457 1.00591 0, -0.93158 1.00346 0, -1.42284 -0.645669 0, 
            -1.42166 -0.648518 0, -1.42472 -0.052672 0, -1.42717 -0.0507949 0, -1.43001 -0.049615 0, 
            -1.42571 0.0517894 0, -1.42384 0.0536595 0, -1.42472 0.144178 0, -1.42717 0.146056 0, 
            -1.43001 0.147235 0, -1.42571 0.44549 0, -1.42384 0.44736 0, -0.645669 -1.00158 0, 
            -0.648518 -1.0004 0, -0.651575 -1 0, 1.42126 -0.135827 0, 1.42156 -0.138455 0, 
            1.42243 -0.140952 0, 1.42384 -0.143191 0, 0.933457 1.00591 0, 1.25591 0.866142 0, 
            0.93158 1.00346 0, 0.929134 1.00158 0, -0.848425 1 0, -0.845368 1.0004 0, 
            -0.84252 1.00158 0, -0.840074 1.00346 0, -0.838196 1.00591 0, -0.249522 1.00346 0, 
            -0.247645 1.00591 0, -0.147638 1.01181 0, -0.923228 -1 0, -0.926285 -1.0004 0, 
            -0.929134 -1.00158 0, 1.12598 -1.00158 0, 1.12314 -1.0004 0, 1.12008 -1 0, 
            1.42571 0.538762 0, 1.42384 0.536892 0, 1.43044 0.64006 0, 1.42156 0.138455 0, 
            1.42243 0.140952 0, 1.42384 0.143191 0, 1.42243 -0.0558988 0, 1.42156 -0.0583953 0, 
            1.42126 -0.0610236 0, 1.42795 -0.146468 0, 1.43044 -0.443209 0, 1.42795 -0.444083 0, 
            1.42243 -0.731502 0, 1.42384 -0.733742 0, 0.338583 1.00158 0, 0.341029 1.00346 0, 
            0.645669 1.00158 0, 0.342906 1.00591 0, 0.643223 1.00346 0, 1.03387 1.00875 0, 
            1.03505 1.00591 0, 1.03692 1.00346 0, -1.43044 -0.737893 0, -1.42795 -0.737019 0, 
            -1.42571 -0.735612 0, -1.42384 -0.733742 0, -1.42243 -0.731502 0, -1.42156 -0.729006 0, 
            -1.42472 -0.643223 0, -1.42717 -0.641346 0, -1.43001 -0.640166 0, -1.42472 -0.446373 0, 
            -1.42717 -0.444496 0, -1.43001 -0.443316 0, -1.42571 0.642341 0, -1.42384 0.644211 0, 
            -1.43001 0.540936 0, -1.42243 0.64645 0, -1.42472 0.73473 0, -1.42717 0.736607 0, 
            -1.43001 0.737787 0, -0.726378 -1 0, -0.729435 -1.0004 0, -0.732283 -1.00158 0, 
            -0.84252 -1.00158 0, -0.845368 -1.0004 0, -0.848425 -1 0, -0.935039 -1.01181 0, 
            -0.935039 -1.1811 0, -1.03346 -1.1811 0, -1.12598 -1.00158 0, -1.12843 -1.00346 0, 
            -1.13031 -1.00591 0, 1.03346 -1.01181 0, 1.03346 -1.1811 0, 0.935039 -1.1811 0, 
            0.838196 -1.00591 0, 0.837017 -1.00875 0, 0.738189 -1.1811 0, 0.836614 -1.01181 0, 
            0.836614 -1.1811 0, 1.5748 0.738189 0, 1.43307 0.738189 0, 1.5748 1.1811 0, 
            1.43044 0.737893 0, 1.42795 0.737019 0, 1.42126 0.135827 0, 1.42126 0.0610236 0, 
            1.42156 0.0583953 0, 1.42571 -0.145061 0, 1.42384 -0.44736 0, 1.42571 -0.44549 0, 
            1.42126 -0.529528 0, 1.42156 -0.532156 0, 1.42243 -0.534652 0, 1.42384 -0.536892 0, 
            0.251969 1.00158 0, 0.144178 1.00346 0, 0.146056 1.00591 0, 0.848425 1 0, 
            0.923228 1 0, 0.926285 1.0004 0, 1.12008 1 0, 1.12314 1.0004 0, 
            1.12598 1.00158 0, 1.12843 1.00346 0, -1.12008 1 0, -1.04528 1 0, 
            -1.04222 1.0004 0, -1.03346 1.01181 0, -1.03346 1.1811 0, -0.935039 1.1811 0, 
            -1.42126 -0.726378 0, -1.42126 -0.651575 0, -1.43307 0.147638 0, -1.5748 0.147638 0, 
            -1.5748 0.442913 0, -1.43307 0.541339 0, -1.5748 0.541339 0, -1.5748 0.639764 0, 
            -0.738189 -1.1811 0, -0.836614 -1.1811 0, -0.738189 -1.01181 0, -0.836614 -1.01181 0, 
            -0.837017 -1.00875 0, -1.03346 -1.01181 0, -1.03387 -1.00875 0, -0.934637 -1.00875 0, 
            -1.03505 -1.00591 0, 1.04528 -1 0, 1.04222 -1.0004 0, 1.03937 -1.00158 0, 
            0.935039 -1.01181 0, 0.934637 -1.00875 0, 1.03387 -1.00875 0, 0.933457 -1.00591 0, 
            0.93158 -1.00346 0, 0.929134 -1.00158 0, 1.42571 0.735612 0, 1.42384 0.733742 0, 
            1.42243 0.731502 0, 1.42384 0.644211 0, 1.42243 0.534652 0, 1.43307 0.0492126 0, 
            1.5748 0.0492126 0, 1.5748 -0.0492126 0, 1.43307 -0.147638 0, 1.5748 -0.147638 0, 
            1.5748 -0.442913 0, 1.42243 -0.4496 0, 1.42156 -0.452096 0, 1.42126 -0.454724 0, 
            0.838196 1.00591 0, 0.840074 1.00346 0, 0.732283 1.00158 0, 0.84252 1.00158 0, 
            0.729435 1.0004 0, -0.0507949 1.00591 0, 0.0551181 1.00158 0, -0.052672 1.00346 0, 
            -0.0551181 1.00158 0, 1.13031 1.00591 0, 1.13149 1.00875 0, 1.13189 1.01181 0, 
            1.13189 1.1811 0, -1.03387 1.00875 0, -0.935039 1.01181 0, -0.929134 1.00158 0, 
            -0.926285 1.0004 0, -0.923228 1 0, -0.73473 1.00346 0, -0.736607 1.00591 0, 
            -0.737787 1.00875 0, -0.651575 1 0, -0.648518 1.0004 0, -0.341029 1.00346 0, 
            -0.338583 1.00158 0, -0.335734 1.0004 0, -0.246063 1.1811 0, -0.147638 1.1811 0, 
            -0.246063 1.01181 0, -0.246465 1.00875 0, -1.42571 -0.538762 0, -1.42384 -0.536892 0, 
            -1.42243 -0.534652 0, -1.42571 -0.145061 0, -1.42384 -0.143191 0, -1.42243 -0.140952 0, 
            -1.43307 -0.0492126 0, -1.5748 -0.0492126 0, -1.5748 0.0492126 0, -1.42243 0.0558988 0, 
            -1.42156 0.0583953 0, -1.42126 0.0610236 0, -1.43307 0.442913 0, -1.43044 0.443209 0, 
            -1.42795 0.444083 0, -1.42243 0.4496 0, -1.42156 0.452096 0, -1.42126 0.454724 0, 
            -1.42472 0.537879 0, -1.42717 0.539756 0, -1.43307 0.639764 0, -1.43044 0.64006 0, 
            -1.42795 0.640933 0, -1.03692 -1.00346 0, -1.03937 -1.00158 0, -1.04222 -1.0004 0, 
            -1.04528 -1 0, 0.926285 -1.0004 0, 0.923228 -1 0, 0.848425 -1 0, 
            1.42571 0.642341 0, 1.42795 0.640933 0, 1.43307 -0.0492126 0, 1.43044 -0.0495087 0, 
            1.43044 0.0495087 0, 1.42795 -0.0503823 0, 1.42571 -0.0517894 0, 1.43044 -0.147342 0, 
            1.43307 -0.442913 0, 1.42571 -0.538762 0, 1.42795 -0.540169 0, 1.42384 -0.644211 0, 
            1.43044 -0.541043 0, 1.42571 -0.642341 0, 1.42795 -0.640933 0, 1.42243 -0.64645 0, 
            1.42156 -0.648946 0, 1.42126 -0.651575 0, 1.42571 -0.735612 0, 1.42795 -0.737019 0, 
            1.43044 -0.737893 0, 0.73473 1.00346 0, 0.736607 1.00591 0, 0.737787 1.00875 0, 
            0.246465 1.00875 0, 0.247645 1.00591 0, 0.249522 1.00346 0, 0.935039 1.01181 0, 
            0.935039 1.1811 0, 1.03346 1.1811 0, -0.836614 1.01181 0, -0.836614 1.1811 0, 
            -0.738189 1.1811 0, -0.645669 1.00158 0, -0.643223 1.00346 0, -0.641346 1.00591 0, 
            -1.43307 -0.639764 0, -1.5748 -0.639764 0, -1.5748 -0.541339 0, -1.43307 0.0492126 0, 
            -1.43044 0.0495087 0, -1.42795 0.0503823 0, -1.42156 0.648946 0, -1.42126 0.651575 0, 
            -1.42126 0.726378 0, -1.12008 -1 0, -1.12314 -1.0004 0, 0.249522 -1.00346 0, 
            0.146056 -1.00591 0, 0.251969 -1.00158 0, 0.144178 -1.00346 0, 0.141732 -1.00158 0, 
            0.648518 -1.0004 0, 0.645669 -1.00158 0, -0.141732 -1.00158 0, -0.144178 -1.00346 0, 
            -0.246465 -1.00875 0, -0.247645 -1.00591 0, -0.146056 -1.00591 0, -0.341029 -1.00346 0, 
            -0.342906 -1.00591 0, -0.639764 -1.1811 0, 1.42156 0.729006 0, 1.42126 0.726378 0, 
            1.42126 0.651575 0, 1.42571 0.44549 0, 1.42795 0.146468 0, 1.42384 0.44736 0, 
            1.42571 0.145061 0, 1.43307 0.639764 0, 1.5748 0.639764 0, 1.5748 0.541339 0, 
            1.5748 -0.541339 0, 1.5748 -0.639764 0, 1.43307 -0.541339 0, 1.43307 -0.639764 0, 
            1.43044 -0.64006 0, 1.42126 -0.726378 0, 1.42156 -0.729006 0, -0.147235 1.00875 0, 
            -0.146056 1.00591 0, -0.144178 1.00346 0, -0.181102 0.866142 0, -0.639764 -1.01181 0, 
            0.049615 1.00875 0, 0.0507949 1.00591 0, 0.052672 1.00346 0, 0.147638 1.01181 0, 
            0.147638 1.1811 0, 0.246063 1.1811 0, 0.344488 1.1811 0, 0.639764 1.1811 0, 
            0.344488 1.01181 0, 0.639764 1.01181 0, 0.344086 1.00875 0, 0.640166 1.00875 0, 
            0.641346 1.00591 0, 0.934637 1.00875 0, 1.03346 1.01181 0, 1.03937 1.00158 0, 
            1.04222 1.0004 0, 1.04528 1 0, -0.837017 1.00875 0, -0.738189 1.01181 0, 
            -0.732283 1.00158 0, -0.729435 1.0004 0, -0.726378 1 0, -0.251969 1.00158 0, 
            -0.254817 1.0004 0, -1.43307 -0.541339 0, -1.43044 -0.541043 0, -1.42795 -0.540169 0, 
            -1.42156 -0.532156 0, -1.42126 -0.529528 0, -1.42126 -0.454724 0, -1.43307 -0.442913 0, 
            -1.5748 -0.442913 0, -1.5748 -0.147638 0, -1.42156 -0.138455 0, -1.42126 -0.135827 0, 
            -1.42126 -0.0610236 0, 0.737787 -1.00875 0, 0.736607 -1.00591 0, 0.73473 -1.00346 0, 
            0.732283 -1.00158 0, 0.0507949 -1.00591 0, -0.0551181 -1.00158 0, 0.052672 -1.00346 0, 
            0.0551181 -1.00158 0, -0.249522 -1.00346 0, -0.251969 -1.00158 0, 1.43307 0.442913 0, 
            1.5748 0.442913 0, 1.5748 0.147638 0, 1.43307 0.541339 0, 1.43044 0.541043 0, 
            1.42795 0.540169 0, -0.141732 1.00158 0, -0.138884 1.0004 0, -0.135827 1 0, 
            0.648518 1.0004 0, 0.651575 1 0, 0.335734 1.0004 0, -0.0492126 1.01181 0, 
            -0.0492126 1.1811 0, 0.0492126 1.1811 0, 0.147235 1.00875 0, 0.246063 1.01181 0, 
            -0.332677 1 0, -0.257874 1 0, -1.43307 -0.147638 0, -1.43044 -0.147342 0, 
            -1.42795 -0.146468 0, -0.0579665 -1.0004 0, -0.0610236 -1 0, -0.254817 -1.0004 0, 
            -0.257874 -1 0, -0.338583 -1.00158 0, -0.344086 -1.00875 0, -0.344488 -1.01181 0, 
            -0.344488 -1.1811 0, 1.42126 0.529528 0, 1.42126 0.454724 0, 1.42156 0.452096 0, 
            1.42243 0.4496 0, 1.42795 0.444083 0, 1.43044 0.443209 0, 1.43044 0.147342 0, 
            1.43307 0.147638 0, -0.049615 1.00875 0, 0.0492126 1.01181 0, -0.639764 1.01181 0, 
            -0.639764 1.1811 0, -0.344488 1.1811 0, -0.342906 1.00591 0, -0.344086 1.00875 0, 
            0.246063 -1.01181 0, 0.246063 -1.1811 0, 0.147638 -1.1811 0, -0.135827 -1 0, 
            -0.138884 -1.0004 0, -0.332677 -1 0, -0.335734 -1.0004 0, 1.42156 0.532156 0, 
            1.42243 0.64645 0, 1.42156 0.648946 0, 0.738189 1.1811 0, 0.836614 1.1811 0, 
            0.738189 1.01181 0, 0.836614 1.01181 0, 0.837017 1.00875 0, -0.640166 1.00875 0, 
            -0.344488 1.01181 0, 0.247645 -1.00591 0, 0.246465 -1.00875 0, 0.147235 -1.00875 0, 
            0.147638 -1.01181 0, 0.840074 -1.00346 0, 0.738189 -1.01181 0, 0.729435 -1.0004 0, 
            0.726378 -1 0, 0.651575 -1 0, 0.342906 -1.00591 0, 0.641346 -1.00591 0, 
            0.640166 -1.00875 0, 0.341029 -1.00346 0, 0.338583 -1.00158 0, 0.643223 -1.00346 0, 
            -0.147638 -1.01181 0, -0.147638 -1.1811 0, -0.246063 -1.1811 0, 0.726378 1 0, 
            0.0492126 -1.01181 0, 0.0492126 -1.1811 0, -0.0492126 -1.1811 0, -0.147235 -1.00875 0, 
            -0.246063 -1.01181 0, -0.0610236 1 0, -0.0579665 1.0004 0, 0.845368 1.0004 0, 
            0.135827 -1 0, 0.0610236 -1 0, 0.0579665 -1.0004 0, -0.0492126 -1.01181 0, 
            -0.049615 -1.00875 0, 0.049615 -1.00875 0, -0.0507949 -1.00591 0, -0.052672 -1.00346 0, 
            0.0579665 1.0004 0, 0.0610236 1 0, 0.135827 1 0, 0.138884 1.0004 0, 
            0.332677 1 0, 0.335734 -1.0004 0, 0.332677 -1 0, 0.257874 -1 0, 
            0.138884 -1.0004 0, 0.254817 -1.0004 0, 0.639764 -1.1811 0, 0.344488 -1.1811 0, 
            0.639764 -1.01181 0, 0.344488 -1.01181 0, 0.344086 -1.00875 0, -1.5748 -0.147638 0.0787402, 
            -1.5748 -0.541339 0.0787402, -1.5748 -0.639764 0.0787402, -1.5748 0.738189 0.0787402, -1.5748 0.639764 0.0787402, 
            -1.5748 0.541339 0.0787402, -1.5748 0.442913 0.0787402, -1.5748 0.147638 0.0787402, -1.5748 0.0492126 0.0787402, 
            -1.5748 -0.442913 0.0787402, -1.5748 -0.0492126 0.0787402, -1.5748 -0.738189 0.0787402, 0.246063 -1.1811 0.0787402, 
            0.344488 -1.1811 0.0787402, -0.246063 -1.1811 0.0787402, 0.147638 -1.1811 0.0787402, 0.935039 -1.1811 0.0787402, 
            -0.0492126 -1.1811 0.0787402, 0.0492126 -1.1811 0.0787402, 0.639764 -1.1811 0.0787402, 0.738189 -1.1811 0.0787402, 
            1.13189 -1.1811 0.0787402, 1.03346 -1.1811 0.0787402, -1.13189 -1.1811 0.0787402, -1.03346 -1.1811 0.0787402, 
            0.836614 -1.1811 0.0787402, -0.935039 -1.1811 0.0787402, -0.836614 -1.1811 0.0787402, -0.738189 -1.1811 0.0787402, 
            -0.639764 -1.1811 0.0787402, -0.147638 -1.1811 0.0787402, -0.344488 -1.1811 0.0787402, 1.5748 -0.442913 0.0787402, 
            1.5748 0.147638 0.0787402, 1.5748 -0.738189 0.0787402, 1.5748 -0.639764 0.0787402, 1.5748 -0.147638 0.0787402, 
            1.5748 -0.0492126 0.0787402, 1.5748 0.541339 0.0787402, 1.5748 0.639764 0.0787402, 1.5748 0.738189 0.0787402, 
            1.5748 0.442913 0.0787402, 1.5748 -0.541339 0.0787402, 1.5748 0.0492126 0.0787402, 1.13189 1.1811 0.0787402, 
            1.03346 1.1811 0.0787402, 0.836614 1.1811 0.0787402, 0.738189 1.1811 0.0787402, 0.639764 1.1811 0.0787402, 
            0.935039 1.1811 0.0787402, 0.246063 1.1811 0.0787402, 0.147638 1.1811 0.0787402, 0.0492126 1.1811 0.0787402, 
            0.344488 1.1811 0.0787402, -0.147638 1.1811 0.0787402, -0.246063 1.1811 0.0787402, -0.344488 1.1811 0.0787402, 
            -0.0492126 1.1811 0.0787402, -0.738189 1.1811 0.0787402, -0.836614 1.1811 0.0787402, -0.935039 1.1811 0.0787402, 
            -0.639764 1.1811 0.0787402, -1.13189 1.1811 0.0787402, -1.03346 1.1811 0.0787402, 1.13189 1.18504 0.0787402, 
            1.03346 1.18504 0.0787402, 1.03346 1.18504 -0.00787402, 1.03639 1.0029 -3.87162e-07, 1.03348 1.00012 -0.00787402, 
            1.13186 1.00004 -0.00787402, 1.13136 1.00112 -0, 1.1286 1.00256 -0.00787402, 1.13189 1.18504 -0.00787402, 
            0.935039 1.18504 0.0787402, 0.836614 1.18504 0.0787402, 0.836614 1.18504 -0.00787402, 0.839532 1.00291 -3.87003e-07, 
            0.836631 1.00012 -0.00787402, 0.93501 1.00004 -0.00787402, 0.934511 1.00112 -0, 0.931748 1.00256 -0.00787402, 
            0.935039 1.18504 -0.00787402, 0.738189 1.18504 0.0787402, 0.639764 1.18504 0.0787402, 0.639764 1.18504 -0.00787402, 
            0.639823 1.00742 -0, 0.639788 1.00785 -0.00787402, 0.648795 1.00002 -0, 0.648401 1.00006 -0.00787402, 
            0.73816 1.00004 -0.00787402, 0.737661 1.00112 -0, 0.734898 1.00256 -0.00787402, 0.738189 1.18504 -0.00787402, 
            0.344488 1.18504 0.0787402, 0.246063 1.18504 0.0787402, 0.246063 1.18504 -0.00787402, 0.246122 1.00742 -0, 
            0.246087 1.00785 -0.00787402, 0.255094 1.00002 -0, 0.254701 1.00006 -0.00787402, 0.344459 1.00004 -0.00787402, 
            0.34396 1.00112 -0, 0.341197 1.00256 -0.00787402, 0.344488 1.18504 -0.00787402, 0.147638 1.18504 0.0787402, 
            0.0492126 1.18504 0.0787402, 0.0492126 1.18504 -0.00787402, 0.0492713 1.00742 -0, 0.0492368 1.00785 -0.00787402, 
            0.0582435 1.00002 -0, 0.0578495 1.00006 -0.00787402, 0.147609 1.00004 -0.00787402, 0.14711 1.00112 -0, 
            0.144347 1.00256 -0.00787402, 0.147638 1.18504 -0.00787402, -0.0492126 1.18504 0.0787402, -0.147638 1.18504 0.0787402, 
            -0.147638 1.18504 -0.00787402, -0.14295 1.00034 -1.88402e-07, -0.147598 1.0004 -0.00787402, -0.0493902 1.00514 0, 
            -0.052504 1.00256 -0.00787402, -0.0492413 1.00004 -0.00787402, -0.0492126 1.18504 -0.00787402, -0.246063 1.18504 0.0787402, 
            -0.344488 1.18504 0.0787402, -0.344488 1.18504 -0.00787402, -0.344429 1.00742 0, -0.344464 1.00785 -0.00787402, 
            -0.335457 1.00002 0, -0.335852 1.00006 -0.00787402, -0.246092 1.00004 -0.00787402, -0.246591 1.00112 0, 
            -0.249354 1.00256 -0.00787402, -0.246063 1.18504 -0.00787402, -0.639764 1.18504 0.0787402, -0.738189 1.18504 0.0787402, 
            -0.738189 1.18504 -0.00787402, -0.73813 1.00742 0, -0.738165 1.00785 -0.00787402, -0.729157 1.00002 0, 
            -0.729551 1.00006 -0.00787402, -0.639793 1.00004 -0.00787402, -0.640292 1.00112 0, -0.643055 1.00256 -0.00787402, 
            -0.639764 1.18504 -0.00787402, -0.836614 1.18504 0.0787402, -0.935039 1.18504 0.0787402, -0.935039 1.18504 -0.00787402, 
            -0.93498 1.00742 0, -0.935015 1.00785 -0.00787402, -0.926403 1.00006 -0.00787402, -0.926008 1.00002 0, 
            -0.836643 1.00004 -0.00787402, -0.837142 1.00112 0, -0.839905 1.00256 -0.00787402, -0.836614 1.18504 -0.00787402, 
            -1.03346 1.18504 0.0787402, -1.13189 1.18504 0.0787402, -1.13189 1.18504 -0.00787402, -1.12898 1.00291 -3.86973e-07, 
            -1.13187 1.00012 -0.00787402, -1.03349 1.00004 -0.00787402, -1.03399 1.00112 0, -1.03676 1.00255 -0.00787402, 
            -1.03346 1.18504 -0.00787402, 1.03346 -1.18504 0.0787402, 1.13189 -1.18504 0.0787402, 1.03346 -1.18504 -0.00787402, 
            1.13189 -1.18504 -0.00787402, 1.13136 -1.00112 0, 1.12933 -1.00329 -0.00787402, 1.13187 -1.00006 -0.00787402, 
            1.03349 -1.00008 -0.00787402, 1.03364 -1.00514 0, 1.03676 -1.00255 -0.00787402, 0.836614 -1.18504 0.0787402, 
            0.935039 -1.18504 0.0787402, 0.836614 -1.18504 -0.00787402, 0.935039 -1.18504 -0.00787402, 0.934511 -1.00112 0, 
            0.935015 -1.00785 -0.00787402, 0.92635 -1.00003 -0.00787402, 0.836643 -1.00008 -0.00787402, 0.836792 -1.00514 0, 
            0.839905 -1.00256 -0.00787402, 0.639764 -1.18504 0.0787402, 0.738189 -1.18504 0.0787402, 0.639764 -1.18504 -0.00787402, 
            0.738189 -1.18504 -0.00787402, 0.737661 -1.00112 0, 0.738165 -1.00785 -0.00787402, 0.729499 -1.00003 -0.00787402, 
            0.640043 -1.00116 -0.00787402, 0.639942 -1.00514 0, 0.246063 -1.18504 0.0787402, 0.344488 -1.18504 0.0787402, 
            0.246063 -1.18504 -0.00787402, 0.344488 -1.18504 -0.00787402, 0.34396 -1.00112 0, 0.344464 -1.00785 -0.00787402, 
            0.335799 -1.00003 -0.00787402, 0.246342 -1.00116 -0.00787402, 0.24624 -1.00514 0, 0.0492126 -1.18504 0.0787402, 
            0.147638 -1.18504 0.0787402, 0.0492411 -1.00008 -0.00787402, 0.0492126 -1.18504 -0.00787402, 0.147638 -1.18504 -0.00787402, 
            0.14711 -1.00112 0, 0.147638 -1.01181 -0.00787402, 0.142981 -1.00024 -0.00787402, 0.0493902 -1.00514 0, 
            0.052504 -1.00256 -0.00787402, -0.147638 -1.18504 0.0787402, -0.0492126 -1.18504 0.0787402, -0.147638 -1.18504 -0.00787402, 
            -0.0492126 -1.18504 -0.00787402, -0.0497404 -1.00112 0, -0.0492368 -1.00785 -0.00787402, -0.0579015 -1.00003 -0.00787402, 
            -0.147609 -1.00008 -0.00787402, -0.14746 -1.00514 0, -0.144347 -1.00256 -0.00787402, -0.344488 -1.18504 0.0787402, 
            -0.246063 -1.18504 0.0787402, -0.344488 -1.18504 -0.00787402, -0.246063 -1.18504 -0.00787402, -0.246591 -1.00112 0, 
            -0.246087 -1.00785 -0.00787402, -0.254753 -1.00003 -0.00787402, -0.344209 -1.00116 -0.00787402, -0.34431 -1.00514 0, 
            -0.738189 -1.18504 0.0787402, -0.639764 -1.18504 0.0787402, -0.738189 -1.18504 -0.00787402, -0.639764 -1.18504 -0.00787402, 
            -0.640292 -1.00112 0, -0.639788 -1.00785 -0.00787402, -0.648453 -1.00003 -0.00787402, -0.73791 -1.00116 -0.00787402, 
            -0.738011 -1.00514 0, -0.935039 -1.18504 0.0787402, -0.836614 -1.18504 0.0787402, -0.935039 -1.18504 -0.00787402, 
            -0.836614 -1.18504 -0.00787402, -0.837142 -1.00112 0, -0.839186 -1.00328 -0.00787402, -0.836631 -1.00006 -0.00787402, 
            -0.93476 -1.00116 -0.00787402, -0.934861 -1.00514 0, -1.13189 -1.18504 0.0787402, -1.03346 -1.18504 0.0787402, 
            -1.13186 -1.00008 -0.00787402, -1.13189 -1.18504 -0.00787402, -1.03346 -1.18504 -0.00787402, -1.03399 -1.00112 0, 
            -1.03348 -1.00006 -0.00787402, -1.03605 -1.00327 -0.00787402, -1.13171 -1.00514 0, -1.1286 -1.00256 -0.00787402, 
            1.57874 0.639764 0.0787402, 1.57874 0.738189 0.0787402, 1.57874 0.738189 -0.00787402, 1.42591 0.73806 -0, 
            1.42235 0.737594 -0.00787402, 1.42235 0.640373 -0, 1.42192 0.640116 -0.00787402, 1.57874 0.639764 -0.00787402, 
            1.57874 0.442913 0.0787402, 1.57874 0.541339 0.0787402, 1.57874 0.541339 -0.00787402, 1.43153 0.541336 -0, 
            1.42161 0.541185 -0.00787402, 1.42147 0.535518 -2.05153e-07, 1.42169 0.447353 -0, 1.42133 0.450221 -0.00787402, 
            1.43044 0.442923 -0.00787402, 1.57874 0.442913 -0.00787402, 1.57874 0.0492126 0.0787402, 1.57874 0.147638 0.0787402, 
            1.57874 0.147638 -0.00787402, 1.43153 0.147635 -0, 1.42161 0.147484 -0.00787402, 1.42147 0.141817 -1.97162e-07, 
            1.42169 0.0536523 -0, 1.42133 0.0565201 -0.00787402, 1.43044 0.0492221 -0.00787402, 1.57874 0.0492126 -0.00787402, 
            1.57874 -0.147638 0.0787402, 1.57874 -0.0492126 0.0787402, 1.57874 -0.0492126 -0.00787402, 1.43153 -0.0492157 0, 
            1.42161 -0.049367 -0.00787402, 1.42147 -0.0550336 -1.97172e-07, 1.42169 -0.143198 0, 1.42133 -0.140331 -0.00787402, 
            1.43044 -0.147628 -0.00787402, 1.57874 -0.147638 -0.00787402, 1.57874 -0.541339 0.0787402, 1.57874 -0.442913 0.0787402, 
            1.57874 -0.442913 -0.00787402, 1.42591 -0.443042 0, 1.42235 -0.443508 -0.00787402, 1.42235 -0.54073 0, 
            1.42192 -0.540987 -0.00787402, 1.57874 -0.541339 -0.00787402, 1.57874 -0.738189 0.0787402, 1.57874 -0.639764 0.0787402, 
            1.57874 -0.639764 -0.00787402, 1.42192 -0.640116 0, 1.42235 -0.640359 -0.00787402, 1.42169 -0.733749 0, 
            1.42133 -0.730881 -0.00787402, 1.43044 -0.738179 -0.00787402, 1.57874 -0.738189 -0.00787402, -1.57874 0.738189 0.0787402, 
            -1.57874 0.639764 0.0787402, -1.57874 0.639764 -0.00787402, -1.42826 0.639807 0, -1.42966 0.639798 -0.00787402, 
            -1.42129 0.649177 0, -1.4213 0.647832 -0.00787402, -1.42189 0.737531 0, -1.4224 0.737864 -0.00787402, 
            -1.57874 0.738189 -0.00787402, -1.57874 0.541339 0.0787402, -1.57874 0.442913 0.0787402, -1.57874 0.442913 -0.00787402, 
            -1.4224 0.443238 0, -1.42189 0.443556 -0.00787402, -1.42189 0.540681 0, -1.4224 0.541014 -0.00787402, 
            -1.57874 0.541339 -0.00787402, -1.57874 0.147638 0.0787402, -1.57874 0.0492126 0.0787402, -1.57874 0.0492126 -0.00787402, 
            -1.43153 0.0492157 0, -1.42149 0.0552788 0, -1.42366 0.0529818 -0.00787402, -1.42133 0.0493366 -0.00787402, 
            -1.42189 0.14698 0, -1.4224 0.147313 -0.00787402, -1.57874 0.147638 -0.00787402, -1.57874 -0.0492126 0.0787402, 
            -1.57874 -0.147638 0.0787402, -1.57874 -0.147638 -0.00787402, -1.4224 -0.147313 0, -1.42624 -0.147429 -0.00787402, 
            -1.42189 -0.0498709 0, -1.42108 -0.0574259 -0.00787402, -1.43044 -0.0492221 -0.00787402, -1.57874 -0.0492126 -0.00787402, 
            -1.57874 -0.442913 0.0787402, -1.57874 -0.541339 0.0787402, -1.57874 -0.541339 -0.00787402, -1.43153 -0.541336 0, 
            -1.42361 -0.537434 -2.46182e-07, -1.42145 -0.54118 -0.00787402, -1.42131 -0.447731 0, -1.4224 -0.443238 -0.00787402, 
            -1.57874 -0.442913 -0.00787402, -1.57874 -0.639764 0.0787402, -1.57874 -0.738189 0.0787402, -1.57874 -0.738189 -0.00787402, 
            -1.4224 -0.737864 0, -1.42189 -0.737546 -0.00787402, -1.42189 -0.640422 0, -1.4224 -0.640089 -0.00787402, 
            -1.57874 -0.639764 -0.00787402, -1.26378 -0.728346 -0.00787402, -1.26378 0.866142 -0.00787402, -0.377953 0.866142 -0.00787402, 
            -0.377953 -0.866142 -0.00787402, -1.12598 -0.866142 -0.00787402, -0.181102 0.866142 -0.00787402, -0.181102 -0.866142 -0.00787402, 
            1.25591 0.866142 -0.00787402, 1.25591 -0.866142 -0.00787402, -1.23575 -0.926715 0.350394, -1.2551 -0.888106 0.350394, 
            -1.23966 -0.913637 0.354331, -1.26843 -0.877901 0.354331, -1.29797 -0.864488 0.350394, -1.34109 -0.861947 0.350394, 
            -1.32376 -0.859666 0.354331, -1.38298 -0.887265 0.350394, -1.40673 -0.923342 0.350394, -1.40004 -0.907177 0.354331, 
            -1.40575 -0.972268 0.350394, -1.3864 -1.01088 0.350394, -1.39702 -0.997032 0.354331, -1.33439 -1.0371 0.350394, 
            -1.31774 -1.03931 0.354331, -1.27843 -1.02878 0.350394, -1.23477 -0.975639 0.350394, -1.24146 -0.991811 0.354331
          ]
        }
        color Color
        {
          color
          [
            0.219608 0.219608 0.219608, 0.219608 0.219608 0.219608, 0.219608 0.219608 0.219608, 0.219608 0.219608 0.219608, 
            0.219608 0.219608 0.219608, 0.219608 0.219608 0.219608, 0.219608 0.219608 0.219608, 0.219608 0.219608 0.219608, 
            0.219608 0.219608 0.219608, 0.219608 0.219608 0.219608, 0.219608 0.219608 0.219608, 0.219608 0.219608 0.219608, 
            0.219608 0.219608 0.219608, 0.219608 0.219608 0.219608, 0.219608 0.219608 0.219608, 0.219608 0.219608 0.219608, 
            0.219608 0.219608 0.219608, 0.219608 0.219608 0.219608, 0.219608 0.219608 0.219608, 0.219608 0.219608 0.219608, 
            0.219608 0.219608 0.219608, 0.219608 0.219608 0.219608, 0.219608 0.219608 0.219608, 0.219608 0.219608 0.219608, 
            0.219608 0.219608 0.219608, 0.219608 0.219608 0.219608, 0.219608 0.219608 0.219608, 0.219608 0.219608 0.219608, 
            0.219608 0.219608 0.219608, 0.219608 0.219608 0.219608, 0.219608 0.219608 0.219608, 0.219608 0.219608 0.219608, 
            0.219608 0.219608 0.219608, 0.219608 0.219608 0.219608, 0.219608 0.219608 0.219608, 0.219608 0.219608 0.219608, 
            0.219608 0.219608 0.219608, 0.219608 0.219608 0.219608, 0.219608 0.219608 0.219608, 0.219608 0.219608 0.219608, 
            0.219608 0.219608 0.219608, 0.219608 0.219608 0.219608, 0.219608 0.219608 0.219608, 0.219608 0.219608 0.219608, 
            0.219608 0.219608 0.219608, 0.219608 0.219608 0.219608, 0.219608 0.219608 0.219608, 0.219608 0.219608 0.219608, 
            0.219608 0.219608 0.219608, 0.219608 0.219608 0.219608, 0.219608 0.219608 0.219608, 0.219608 0.219608 0.219608, 
            0.219608 0.219608 0.219608, 0.219608 0.219608 0.219608, 0.219608 0.219608 0.219608, 0.219608 0.219608 0.219608, 
            0.219608 0.219608 0.219608, 0.219608 0.219608 0.219608, 0.219608 0.219608 0.219608, 0.219608 0.219608 0.219608, 
            0.219608 0.219608 0.219608, 0.219608 0.219608 0.219608, 0.219608 0.219608 0.219608, 0.219608 0.219608 0.219608, 
            0.219608 0.219608 0.219608, 0.219608 0.219608 0.219608, 0.219608 0.219608 0.219608, 0.219608 0.219608 0.219608, 
            0.219608 0.219608 0.219608, 0.219608 0.219608 0.219608, 0.219608 0.219608 0.219608, 0.219608 0.219608 0.219608, 
            0.219608 0.219608 0.219608, 0.219608 0.219608 0.219608, 0.219608 0.219608 0.219608, 0.219608 0.219608 0.219608, 
            0.219608 0.219608 0.219608, 0.219608 0.219608 0.219608, 0.219608 0.219608 0.219608, 0.219608 0.219608 0.219608, 
            0.219608 0.219608 0.219608, 0.219608 0.219608 0.219608, 0.219608 0.219608 0.219608, 0.219608 0.219608 0.219608, 
            0.219608 0.219608 0.219608, 0.219608 0.219608 0.219608, 0.219608 0.219608 0.219608, 0.219608 0.219608 0.219608, 
            0.219608 0.219608 0.219608, 0.219608 0.219608 0.219608, 0.219608 0.219608 0.219608, 0.219608 0.219608 0.219608, 
            0.219608 0.219608 0.219608, 0.219608 0.219608 0.219608, 0.219608 0.219608 0.219608, 0.219608 0.219608 0.219608, 
            0.219608 0.219608 0.219608, 0.219608 0.219608 0.219608, 0.219608 0.219608 0.219608, 0.219608 0.219608 0.219608, 
            0.219608 0.219608 0.219608, 0.219608 0.219608 0.219608, 0.219608 0.219608 0.219608, 0.219608 0.219608 0.219608, 
            0.219608 0.219608 0.219608, 0.219608 0.219608 0.219608, 0.219608 0.219608 0.219608, 0.219608 0.219608 0.219608, 
            0.219608 0.219608 0.219608, 0.219608 0.219608 0.219608, 0.219608 0.219608 0.219608, 0.219608 0.219608 0.219608, 
            0.219608 0.219608 0.219608, 0.219608 0.219608 0.219608, 0.219608 0.219608 0.219608, 0.219608 0.219608 0.219608, 
            0.219608 0.219608 0.219608, 0.219608 0.219608 0.219608, 0.219608 0.219608 0.219608, 0.219608 0.219608 0.219608, 
            0.219608 0.219608 0.219608, 0.219608 0.219608 0.219608, 0.219608 0.219608 0.219608, 0.219608 0.219608 0.219608, 
            0.219608 0.219608 0.219608, 0.219608 0.219608 0.219608, 0.219608 0.219608 0.219608, 0.219608 0.219608 0.219608, 
            0.219608 0.219608 0.219608, 0.219608 0.219608 0.219608, 0.219608 0.219608 0.219608, 0.219608 0.219608 0.219608, 
            0.219608 0.219608 0.219608, 0.219608 0.219608 0.219608, 0.219608 0.219608 0.219608, 0.219608 0.219608 0.219608, 
            0.219608 0.219608 0.219608, 0.219608 0.219608 0.219608, 0.219608 0.219608 0.219608, 0.219608 0.219608 0.219608, 
            0.219608 0.219608 0.219608, 0.219608 0.219608 0.219608, 0.219608 0.219608 0.219608, 0.219608 0.219608 0.219608, 
            0.219608 0.219608 0.219608, 0.219608 0.219608 0.219608, 0.219608 0.219608 0.219608, 0.219608 0.219608 0.219608, 
            0.219608 0.219608 0.219608, 0.219608 0.219608 0.219608, 0.219608 0.219608 0.219608, 0.219608 0.219608 0.219608, 
            0.219608 0.219608 0.219608, 0.219608 0.219608 0.219608, 0.219608 0.219608 0.219608, 0.219608 0.219608 0.219608, 
            0.219608 0.219608 0.219608, 0.219608 0.219608 0.219608, 0.219608 0.219608 0.219608, 0.219608 0.219608 0.219608, 
            0.219608 0.219608 0.219608, 0.219608 0.219608 0.219608, 0.219608 0.219608 0.219608, 0.219608 0.219608 0.219608, 
            0.219608 0.219608 0.219608, 0.219608 0.219608 0.219608, 0.219608 0.219608 0.219608, 0.219608 0.219608 0.219608, 
            0.219608 0.219608 0.219608, 0.219608 0.219608 0.219608, 0.219608 0.219608 0.219608, 0.219608 0.219608 0.219608, 
            0.219608 0.219608 0.219608, 0.219608 0.219608 0.219608, 0.219608 0.219608 0.219608, 0.219608 0.219608 0.219608, 
            0.219608 0.219608 0.219608, 0.219608 0.219608 0.219608, 0.219608 0.219608 0.219608, 0.219608 0.219608 0.219608, 
            0.219608 0.219608 0.219608, 0.219608 0.219608 0.219608, 0.219608 0.219608 0.219608, 0.219608 0.219608 0.219608, 
            0.219608 0.219608 0.219608, 0.219608 0.219608 0.219608, 0.219608 0.219608 0.219608, 0.219608 0.219608 0.219608, 
            0.219608 0.219608 0.219608, 0.219608 0.219608 0.219608, 0.219608 0.219608 0.219608, 0.219608 0.219608 0.219608, 
            0.219608 0.219608 0.219608, 0.219608 0.219608 0.219608, 0.219608 0.219608 0.219608, 0.219608 0.219608 0.219608, 
            0.219608 0.219608 0.219608, 0.219608 0.219608 0.219608, 0.219608 0.219608 0.219608, 0.219608 0.219608 0.219608, 
            0.219608 0.219608 0.219608, 0.219608 0.219608 0.219608, 0.219608 0.219608 0.219608, 0.219608 0.219608 0.219608, 
            0.219608 0.219608 0.219608, 0.219608 0.219608 0.219608, 0.219608 0.219608 0.219608, 0.219608 0.219608 0.219608, 
            0.219608 0.219608 0.219608, 0.219608 0.219608 0.219608, 0.219608 0.219608 0.219608, 0.219608 0.219608 0.219608, 
            0.219608 0.219608 0.219608, 0.219608 0.219608 0.219608, 0.219608 0.219608 0.219608, 0.219608 0.219608 0.219608, 
            0.219608 0.219608 0.219608, 0.219608 0.219608 0.219608, 0.219608 0.219608 0.219608, 0.219608 0.219608 0.219608, 
            0.219608 0.219608 0.219608, 0.219608 0.219608 0.219608, 0.219608 0.219608 0.219608, 0.219608 0.219608 0.219608, 
            0.219608 0.219608 0.219608, 0.219608 0.219608 0.219608, 0.219608 0.219608 0.219608, 0.219608 0.219608 0.219608, 
            0.219608 0.219608 0.219608, 0.219608 0.219608 0.219608, 0.219608 0.219608 0.219608, 0.219608 0.219608 0.219608, 
            0.219608 0.219608 0.219608, 0.219608 0.219608 0.219608, 0.219608 0.219608 0.219608, 0.219608 0.219608 0.219608, 
            0.219608 0.219608 0.219608, 0.219608 0.219608 0.219608, 0.219608 0.219608 0.219608, 0.219608 0.219608 0.219608, 
            0.219608 0.219608 0.219608, 0.219608 0.219608 0.219608, 0.219608 0.219608 0.219608, 0.219608 0.219608 0.219608, 
            0.219608 0.219608 0.219608, 0.219608 0.219608 0.219608, 0.219608 0.219608 0.219608, 0.219608 0.219608 0.219608, 
            0.219608 0.219608 0.219608, 0.219608 0.219608 0.219608, 0.219608 0.219608 0.219608, 0.219608 0.219608 0.219608, 
            0.219608 0.219608 0.219608, 0.219608 0.219608 0.219608, 0.219608 0.219608 0.219608, 0.219608 0.219608 0.219608, 
            0.219608 0.219608 0.219608, 0.219608 0.219608 0.219608, 0.219608 0.219608 0.219608, 0.219608 0.219608 0.219608, 
            0.219608 0.219608 0.219608, 0.219608 0.219608 0.219608, 0.219608 0.219608 0.219608, 0.219608 0.219608 0.219608, 
            0.219608 0.219608 0.219608, 0.219608 0.219608 0.219608, 0.219608 0.219608 0.219608, 0.219608 0.219608 0.219608, 
            0.219608 0.219608 0.219608, 0.219608 0.219608 0.219608, 0.219608 0.219608 0.219608, 0.219608 0.219608 0.219608, 
            0.219608 0.219608 0.219608, 0.219608 0.219608 0.219608, 0.219608 0.219608 0.219608, 0.219608 0.219608 0.219608, 
            0.219608 0.219608 0.219608, 0.219608 0.219608 0.219608, 0.219608 0.219608 0.219608, 0.219608 0.219608 0.219608, 
            0.219608 0.219608 0.219608, 0.219608 0.219608 0.219608, 0.219608 0.219608 0.219608, 0.219608 0.219608 0.219608, 
            0.219608 0.219608 0.219608, 0.219608 0.219608 0.219608, 0.219608 0.219608 0.219608, 0.219608 0.219608 0.219608, 
            0.219608 0.219608 0.219608, 0.219608 0.219608 0.219608, 0.219608 0.219608 0.219608, 0.219608 0.219608 0.219608, 
            0.219608 0.219608 0.219608, 0.219608 0.219608 0.219608, 0.219608 0.219608 0.219608, 0.219608 0.219608 0.219608, 
            0.219608 0.219608 0.219608, 0.219608 0.219608 0.219608, 0.219608 0.219608 0.219608, 0.219608 0.219608 0.219608, 
            0.219608 0.219608 0.219608, 0.219608 0.219608 0.219608, 0.219608 0.219608 0.219608, 0.219608 0.219608 0.219608, 
            0.219608 0.219608 0.219608, 0.219608 0.219608 0.219608, 0.219608 0.219608 0.219608, 0.219608 0.219608 0.219608, 
            0.219608 0.219608 0.219608, 0.219608 0.219608 0.219608, 0.219608 0.219608 0.219608, 0.219608 0.219608 0.219608, 
            0.219608 0.219608 0.219608, 0.219608 0.219608 0.219608, 0.219608 0.219608 0.219608, 0.219608 0.219608 0.219608, 
            0.219608 0.219608 0.219608, 0.219608 0.219608 0.219608, 0.219608 0.219608 0.219608, 0.219608 0.219608 0.219608, 
            0.219608 0.219608 0.219608, 0.219608 0.219608 0.219608, 0.219608 0.219608 0.219608, 0.219608 0.219608 0.219608, 
            0.219608 0.219608 0.219608, 0.219608 0.219608 0.219608, 0.219608 0.219608 0.219608, 0.219608 0.219608 0.219608, 
            0.219608 0.219608 0.219608, 0.219608 0.219608 0.219608, 0.219608 0.219608 0.219608, 0.219608 0.219608 0.219608, 
            0.219608 0.219608 0.219608, 0.219608 0.219608 0.219608, 0.219608 0.219608 0.219608, 0.219608 0.219608 0.219608, 
            0.219608 0.219608 0.219608, 0.219608 0.219608 0.219608, 0.219608 0.219608 0.219608, 0.219608 0.219608 0.219608, 
            0.219608 0.219608 0.219608, 0.219608 0.219608 0.219608, 0.219608 0.219608 0.219608, 0.219608 0.219608 0.219608, 
            0.219608 0.219608 0.219608, 0.219608 0.219608 0.219608, 0.219608 0.219608 0.219608, 0.219608 0.219608 0.219608, 
            0.219608 0.219608 0.219608, 0.219608 0.219608 0.219608, 0.219608 0.219608 0.219608, 0.219608 0.219608 0.219608, 
            0.219608 0.219608 0.219608, 0.219608 0.219608 0.219608, 0.219608 0.219608 0.219608, 0.219608 0.219608 0.219608, 
            0.219608 0.219608 0.219608, 0.219608 0.219608 0.219608, 0.219608 0.219608 0.219608, 0.219608 0.219608 0.219608, 
            0.219608 0.219608 0.219608, 0.219608 0.219608 0.219608, 0.219608 0.219608 0.219608, 0.219608 0.219608 0.219608, 
            0.219608 0.219608 0.219608, 0.219608 0.219608 0.219608, 0.219608 0.219608 0.219608, 0.219608 0.219608 0.219608, 
            0.219608 0.219608 0.219608, 0.219608 0.219608 0.219608, 0.219608 0.219608 0.219608, 0.219608 0.219608 0.219608, 
            0.219608 0.219608 0.219608, 0.219608 0.219608 0.219608, 0.219608 0.219608 0.219608, 0.219608 0.219608 0.219608, 
            0.219608 0.219608 0.219608, 0.219608 0.219608 0.219608, 0.219608 0.219608 0.219608, 0.219608 0.219608 0.219608, 
            0.219608 0.219608 0.219608, 0.219608 0.219608 0.219608, 0.219608 0.219608 0.219608, 0.219608 0.219608 0.219608, 
            0.219608 0.219608 0.219608, 0.219608 0.219608 0.219608, 0.219608 0.219608 0.219608, 0.219608 0.219608 0.219608, 
            0.219608 0.219608 0.219608, 0.219608 0.219608 0.219608, 0.219608 0.219608 0.219608, 0.219608 0.219608 0.219608, 
            0.219608 0.219608 0.219608, 0.219608 0.219608 0.219608, 0.219608 0.219608 0.219608, 0.219608 0.219608 0.219608, 
            0.219608 0.219608 0.219608, 0.219608 0.219608 0.219608, 0.219608 0.219608 0.219608, 0.219608 0.219608 0.219608, 
            0.219608 0.219608 0.219608, 0.219608 0.219608 0.219608, 0.219608 0.219608 0.219608, 0.219608 0.219608 0.219608, 
            0.219608 0.219608 0.219608, 0.219608 0.219608 0.219608, 0.219608 0.219608 0.219608, 0.219608 0.219608 0.219608, 
            0.219608 0.219608 0.219608, 0.219608 0.219608 0.219608, 0.219608 0.219608 0.219608, 0.219608 0.219608 0.219608, 
            0.219608 0.219608 0.219608, 0.219608 0.219608 0.219608, 0.219608 0.219608 0.219608, 0.219608 0.219608 0.219608, 
            0.219608 0.219608 0.219608, 0.219608 0.219608 0.219608, 0.219608 0.219608 0.219608, 0.219608 0.219608 0.219608, 
            0.219608 0.219608 0.219608, 0.219608 0.219608 0.219608, 0.219608 0.219608 0.219608, 0.219608 0.219608 0.219608, 
            0.219608 0.219608 0.219608, 0.219608 0.219608 0.219608, 0.219608 0.219608 0.219608, 0.219608 0.219608 0.219608, 
            0.219608 0.219608 0.219608, 0.219608 0.219608 0.219608, 0.219608 0.219608 0.219608, 0.219608 0.219608 0.219608, 
            0.219608 0.219608 0.219608, 0.219608 0.219608 0.219608, 0.219608 0.219608 0.219608, 0.219608 0.219608 0.219608, 
            0.219608 0.219608 0.219608, 0.219608 0.219608 0.219608, 0.219608 0.219608 0.219608, 0.219608 0.219608 0.219608, 
            0.219608 0.219608 0.219608, 0.219608 0.219608 0.219608, 0.219608 0.219608 0.219608, 0.219608 0.219608 0.219608, 
            0.219608 0.219608 0.219608, 0.219608 0.219608 0.219608, 0.219608 0.219608 0.219608, 0.219608 0.219608 0.219608, 
            0.219608 0.219608 0.219608, 0.219608 0.219608 0.219608, 0.219608 0.219608 0.219608, 0.219608 0.219608 0.219608, 
            0.219608 0.219608 0.219608, 0.219608 0.219608 0.219608, 0.219608 0.219608 0.219608, 0.219608 0.219608 0.219608, 
            0.219608 0.219608 0.219608, 0.219608 0.219608 0.219608, 0.219608 0.219608 0.219608, 0.219608 0.219608 0.219608, 
            0.219608 0.219608 0.219608, 0.219608 0.219608 0.219608, 0.219608 0.219608 0.219608, 0.219608 0.219608 0.219608, 
            0.219608 0.219608 0.219608, 0.219608 0.219608 0.219608, 0.219608 0.219608 0.219608, 0.219608 0.219608 0.219608, 
            0.219608 0.219608 0.219608, 0.219608 0.219608 0.219608, 0.219608 0.219608 0.219608, 0.219608 0.219608 0.219608, 
            0.219608 0.219608 0.219608, 0.219608 0.219608 0.219608, 0.219608 0.219608 0.219608, 0.219608 0.219608 0.219608, 
            0.219608 0.219608 0.219608, 0.219608 0.219608 0.219608, 0.219608 0.219608 0.219608, 0.219608 0.219608 0.219608, 
            0.219608 0.219608 0.219608, 0.219608 0.219608 0.219608, 0.219608 0.219608 0.219608, 0.219608 0.219608 0.219608, 
            0.219608 0.219608 0.219608, 0.219608 0.219608 0.219608, 0.219608 0.219608 0.219608, 0.219608 0.219608 0.219608, 
            0.219608 0.219608 0.219608, 0.219608 0.219608 0.219608, 0.219608 0.219608 0.219608, 0.219608 0.219608 0.219608, 
            0.219608 0.219608 0.219608, 0.219608 0.219608 0.219608, 0.219608 0.219608 0.219608, 0.219608 0.219608 0.219608, 
            0.219608 0.219608 0.219608, 0.219608 0.219608 0.219608, 0.219608 0.219608 0.219608, 0.219608 0.219608 0.219608, 
            0.219608 0.219608 0.219608, 0.219608 0.219608 0.219608, 0.219608 0.219608 0.219608, 0.219608 0.219608 0.219608, 
            0.219608 0.219608 0.219608, 0.219608 0.219608 0.219608, 0.219608 0.219608 0.219608, 0.219608 0.219608 0.219608, 
            0.219608 0.219608 0.219608, 0.219608 0.219608 0.219608, 0.219608 0.219608 0.219608, 0.219608 0.219608 0.219608, 
            0.219608 0.219608 0.219608, 0.219608 0.219608 0.219608, 0.219608 0.219608 0.219608, 0.219608 0.219608 0.219608, 
            0.219608 0.219608 0.219608, 0.219608 0.219608 0.219608, 0.219608 0.219608 0.219608, 0.219608 0.219608 0.219608, 
            0.219608 0.219608 0.219608, 0.219608 0.219608 0.219608, 0.219608 0.219608 0.219608, 0.219608 0.219608 0.219608, 
            0.219608 0.219608 0.219608, 0.219608 0.219608 0.219608, 0.219608 0.219608 0.219608, 0.219608 0.219608 0.219608, 
            0.219608 0.219608 0.219608, 0.219608 0.219608 0.219608, 0.219608 0.219608 0.219608, 0.219608 0.219608 0.219608, 
            0.219608 0.219608 0.219608, 0.219608 0.219608 0.219608, 0.219608 0.219608 0.219608, 0.219608 0.219608 0.219608, 
            0.219608 0.219608 0.219608, 0.219608 0.219608 0.219608, 0.219608 0.219608 0.219608, 0.219608 0.219608 0.219608, 
            0.219608 0.219608 0.219608, 0.219608 0.219608 0.219608, 0.219608 0.219608 0.219608, 0.219608 0.219608 0.219608, 
            0.219608 0.219608 0.219608, 0.219608 0.219608 0.219608, 0.219608 0.219608 0.219608, 0.219608 0.219608 0.219608, 
            0.219608 0.219608 0.219608, 0.219608 0.219608 0.219608, 0.219608 0.219608 0.219608, 0.219608 0.219608 0.219608, 
            0.219608 0.219608 0.219608, 0.219608 0.219608 0.219608, 0.219608 0.219608 0.219608, 0.219608 0.219608 0.219608, 
            0.219608 0.219608 0.219608, 0.219608 0.219608 0.219608, 0.219608 0.219608 0.219608, 0.219608 0.219608 0.219608, 
            0.219608 0.219608 0.219608, 0.219608 0.219608 0.219608, 0.219608 0.219608 0.219608, 0.219608 0.219608 0.219608, 
            0.219608 0.219608 0.219608, 0.219608 0.219608 0.219608, 0.219608 0.219608 0.219608, 0.219608 0.219608 0.219608, 
            0.219608 0.219608 0.219608, 0.219608 0.219608 0.219608, 0.219608 0.219608 0.219608, 0.219608 0.219608 0.219608, 
            0.219608 0.219608 0.219608, 0.219608 0.219608 0.219608, 0.219608 0.219608 0.219608, 0.219608 0.219608 0.219608, 
            0.219608 0.219608 0.219608, 0.219608 0.219608 0.219608, 0.219608 0.219608 0.219608, 0.219608 0.219608 0.219608, 
            0.219608 0.219608 0.219608, 0.219608 0.219608 0.219608, 0.219608 0.219608 0.219608, 0.219608 0.219608 0.219608, 
            0.219608 0.219608 0.219608, 0.219608 0.219608 0.219608, 0.219608 0.219608 0.219608, 0.219608 0.219608 0.219608, 
            0.219608 0.219608 0.219608, 0.219608 0.219608 0.219608, 0.219608 0.219608 0.219608, 0.219608 0.219608 0.219608, 
            0.219608 0.219608 0.219608, 0.219608 0.219608 0.219608, 0.219608 0.219608 0.219608, 0.219608 0.219608 0.219608, 
            0.219608 0.219608 0.219608, 0.219608 0.219608 0.219608, 0.219608 0.219608 0.219608, 0.219608 0.219608 0.219608, 
            0.219608 0.219608 0.219608, 0.219608 0.219608 0.219608, 0.219608 0.219608 0.219608, 0.219608 0.219608 0.219608, 
            0.219608 0.219608 0.219608, 0.219608 0.219608 0.219608, 0.219608 0.219608 0.219608, 0.219608 0.219608 0.219608, 
            0.219608 0.219608 0.219608, 0.219608 0.219608 0.219608, 0.219608 0.219608 0.219608, 0.219608 0.219608 0.219608, 
            0.219608 0.219608 0.219608, 0.219608 0.219608 0.219608, 0.219608 0.219608 0.219608, 0.219608 0.219608 0.219608, 
            0.219608 0.219608 0.219608, 0.219608 0.219608 0.219608, 0.219608 0.219608 0.219608, 0.219608 0.219608 0.219608, 
            0.219608 0.219608 0.219608, 0.219608 0.219608 0.219608, 0.219608 0.219608 0.219608, 0.219608 0.219608 0.219608, 
            0.219608 0.219608 0.219608, 0.219608 0.219608 0.219608, 0.219608 0.219608 0.219608, 0.219608 0.219608 0.219608, 
            0.219608 0.219608 0.219608, 0.219608 0.219608 0.219608, 0.219608 0.219608 0.219608, 0.219608 0.219608 0.219608, 
            0.219608 0.219608 0.219608, 0.219608 0.219608 0.219608, 0.219608 0.219608 0.219608, 0.666667 0.694118 0.764706, 
            0.666667 0.694118 0.764706, 0.666667 0.694118 0.764706, 0.666667 0.694118 0.764706, 0.666667 0.694118 0.764706, 
            0.666667 0.694118 0.764706, 0.666667 0.694118 0.764706, 0.666667 0.694118 0.764706, 0.666667 0.694118 0.764706, 
            0.666667 0.694118 0.764706, 0.666667 0.694118 0.764706, 0.666667 0.694118 0.764706, 0.666667 0.694118 0.764706, 
            0.666667 0.694118 0.764706, 0.666667 0.694118 0.764706, 0.666667 0.694118 0.764706, 0.666667 0.694118 0.764706, 
            0.666667 0.694118 0.764706, 0.666667 0.694118 0.764706, 0.666667 0.694118 0.764706, 0.666667 0.694118 0.764706, 
            0.666667 0.694118 0.764706, 0.666667 0.694118 0.764706, 0.666667 0.694118 0.764706, 0.666667 0.694118 0.764706, 
            0.666667 0.694118 0.764706, 0.666667 0.694118 0.764706, 0.666667 0.694118 0.764706, 0.666667 0.694118 0.764706, 
            0.666667 0.694118 0.764706, 0.666667 0.694118 0.764706, 0.666667 0.694118 0.764706, 0.666667 0.694118 0.764706, 
            0.666667 0.694118 0.764706, 0.666667 0.694118 0.764706, 0.666667 0.694118 0.764706, 0.666667 0.694118 0.764706, 
            0.666667 0.694118 0.764706, 0.666667 0.694118 0.764706, 0.666667 0.694118 0.764706, 0.666667 0.694118 0.764706, 
            0.666667 0.694118 0.764706, 0.666667 0.694118 0.764706, 0.666667 0.694118 0.764706, 0.666667 0.694118 0.764706, 
            0.666667 0.694118 0.764706, 0.666667 0.694118 0.764706, 0.666667 0.694118 0.764706, 0.666667 0.694118 0.764706, 
            0.666667 0.694118 0.764706, 0.666667 0.694118 0.764706, 0.666667 0.694118 0.764706, 0.666667 0.694118 0.764706, 
            0.666667 0.694118 0.764706, 0.666667 0.694118 0.764706, 0.666667 0.694118 0.764706, 0.666667 0.694118 0.764706, 
            0.666667 0.694118 0.764706, 0.666667 0.694118 0.764706, 0.666667 0.694118 0.764706, 0.666667 0.694118 0.764706, 
            0.666667 0.694118 0.764706, 0.666667 0.694118 0.764706, 0.666667 0.694118 0.764706, 0.666667 0.694118 0.764706, 
            0.666667 0.694118 0.764706, 0.666667 0.694118 0.764706, 0.666667 0.694118 0.764706, 0.666667 0.694118 0.764706, 
            0.666667 0.694118 0.764706, 0.666667 0.694118 0.764706, 0.666667 0.694118 0.764706, 0.666667 0.694118 0.764706, 
            0.666667 0.694118 0.764706, 0.666667 0.694118 0.764706, 0.666667 0.694118 0.764706, 0.666667 0.694118 0.764706, 
            0.666667 0.694118 0.764706, 0.666667 0.694118 0.764706, 0.666667 0.694118 0.764706, 0.666667 0.694118 0.764706, 
            0.666667 0.694118 0.764706, 0.666667 0.694118 0.764706, 0.666667 0.694118 0.764706, 0.666667 0.694118 0.764706, 
            0.666667 0.694118 0.764706, 0.666667 0.694118 0.764706, 0.666667 0.694118 0.764706, 0.666667 0.694118 0.764706, 
            0.666667 0.694118 0.764706, 0.666667 0.694118 0.764706, 0.666667 0.694118 0.764706, 0.666667 0.694118 0.764706, 
            0.666667 0.694118 0.764706, 0.666667 0.694118 0.764706, 0.666667 0.694118 0.764706, 0.666667 0.694118 0.764706, 
            0.666667 0.694118 0.764706, 0.666667 0.694118 0.764706, 0.666667 0.694118 0.764706, 0.666667 0.694118 0.764706, 
            0.666667 0.694118 0.764706, 0.666667 0.694118 0.764706, 0.666667 0.694118 0.764706, 0.666667 0.694118 0.764706, 
            0.666667 0.694118 0.764706, 0.666667 0.694118 0.764706, 0.666667 0.694118 0.764706, 0.666667 0.694118 0.764706, 
            0.666667 0.694118 0.764706, 0.666667 0.694118 0.764706, 0.666667 0.694118 0.764706, 0.666667 0.694118 0.764706, 
            0.666667 0.694118 0.764706, 0.666667 0.694118 0.764706, 0.666667 0.694118 0.764706, 0.666667 0.694118 0.764706, 
            0.666667 0.694118 0.764706, 0.666667 0.694118 0.764706, 0.666667 0.694118 0.764706, 0.666667 0.694118 0.764706, 
            0.666667 0.694118 0.764706, 0.666667 0.694118 0.764706, 0.666667 0.694118 0.764706, 0.666667 0.694118 0.764706, 
            0.666667 0.694118 0.764706, 0.666667 0.694118 0.764706, 0.666667 0.694118 0.764706, 0.666667 0.694118 0.764706, 
            0.666667 0.694118 0.764706, 0.666667 0.694118 0.764706, 0.666667 0.694118 0.764706, 0.666667 0.694118 0.764706, 
            0.666667 0.694118 0.764706, 0.666667 0.694118 0.764706, 0.666667 0.694118 0.764706, 0.666667 0.694118 0.764706, 
            0.666667 0.694118 0.764706, 0.666667 0.694118 0.764706, 0.666667 0.694118 0.764706, 0.666667 0.694118 0.764706, 
            0.666667 0.694118 0.764706, 0.666667 0.694118 0.764706, 0.666667 0.694118 0.764706, 0.666667 0.694118 0.764706, 
            0.666667 0.694118 0.764706, 0.666667 0.694118 0.764706, 0.666667 0.694118 0.764706, 0.666667 0.694118 0.764706, 
            0.666667 0.694118 0.764706, 0.666667 0.694118 0.764706, 0.666667 0.694118 0.764706, 0.666667 0.694118 0.764706, 
            0.666667 0.694118 0.764706, 0.666667 0.694118 0.764706, 0.666667 0.694118 0.764706, 0.666667 0.694118 0.764706, 
            0.666667 0.694118 0.764706, 0.666667 0.694118 0.764706, 0.666667 0.694118 0.764706, 0.666667 0.694118 0.764706, 
            0.666667 0.694118 0.764706, 0.666667 0.694118 0.764706, 0.666667 0.694118 0.764706, 0.666667 0.694118 0.764706, 
            0.666667 0.694118 0.764706, 0.666667 0.694118 0.764706, 0.666667 0.694118 0.764706, 0.666667 0.694118 0.764706, 
            0.666667 0.694118 0.764706, 0.666667 0.694118 0.764706, 0.666667 0.694118 0.764706, 0.666667 0.694118 0.764706, 
            0.666667 0.694118 0.764706, 0.666667 0.694118 0.764706, 0.666667 0.694118 0.764706, 0.666667 0.694118 0.764706, 
            0.666667 0.694118 0.764706, 0.666667 0.694118 0.764706, 0.666667 0.694118 0.764706, 0.666667 0.694118 0.764706, 
            0.666667 0.694118 0.764706, 0.666667 0.694118 0.764706, 0.666667 0.694118 0.764706, 0.666667 0.694118 0.764706, 
            0.666667 0.694118 0.764706, 0.666667 0.694118 0.764706, 0.666667 0.694118 0.764706, 0.666667 0.694118 0.764706, 
            0.666667 0.694118 0.764706, 0.666667 0.694118 0.764706, 0.666667 0.694118 0.764706, 0.666667 0.694118 0.764706, 
            0.666667 0.694118 0.764706, 0.666667 0.694118 0.764706, 0.666667 0.694118 0.764706, 0.666667 0.694118 0.764706, 
            0.666667 0.694118 0.764706, 0.666667 0.694118 0.764706, 0.666667 0.694118 0.764706, 0.666667 0.694118 0.764706, 
            0.666667 0.694118 0.764706, 0.666667 0.694118 0.764706, 0.666667 0.694118 0.764706, 0.666667 0.694118 0.764706, 
            0.666667 0.694118 0.764706, 0.666667 0.694118 0.764706, 0.666667 0.694118 0.764706, 0.666667 0.694118 0.764706, 
            0.666667 0.694118 0.764706, 0.666667 0.694118 0.764706, 0.666667 0.694118 0.764706, 0.666667 0.694118 0.764706, 
            0.666667 0.694118 0.764706, 0.666667 0.694118 0.764706, 0.666667 0.694118 0.764706, 0.666667 0.694118 0.764706, 
            0.666667 0.694118 0.764706, 0.666667 0.694118 0.764706, 0.666667 0.694118 0.764706, 0.666667 0.694118 0.764706, 
            0.666667 0.694118 0.764706, 0.666667 0.694118 0.764706, 0.666667 0.694118 0.764706, 0.666667 0.694118 0.764706, 
            0.666667 0.694118 0.764706, 0.666667 0.694118 0.764706, 0.666667 0.694118 0.764706, 0.666667 0.694118 0.764706, 
            0.666667 0.694118 0.764706, 0.666667 0.694118 0.764706, 0.666667 0.694118 0.764706, 0.666667 0.694118 0.764706, 
            0.666667 0.694118 0.764706, 0.666667 0.694118 0.764706, 0.666667 0.694118 0.764706, 0.666667 0.694118 0.764706, 
            0.666667 0.694118 0.764706, 0.666667 0.694118 0.764706, 0.666667 0.694118 0.764706, 0.666667 0.694118 0.764706, 
            0.666667 0.694118 0.764706, 0.666667 0.694118 0.764706, 0.666667 0.694118 0.764706, 0.666667 0.694118 0.764706, 
            0.666667 0.694118 0.764706, 0.666667 0.694118 0.764706, 0.666667 0.694118 0.764706, 0.666667 0.694118 0.764706, 
            0.666667 0.694118 0.764706, 0.666667 0.694118 0.764706, 0.666667 0.694118 0.764706, 0.666667 0.694118 0.764706, 
            0.666667 0.694118 0.764706, 0.666667 0.694118 0.764706, 0.666667 0.694118 0.764706, 0.666667 0.694118 0.764706, 
            0.666667 0.694118 0.764706, 0.666667 0.694118 0.764706, 0.666667 0.694118 0.764706, 0.666667 0.694118 0.764706, 
            0.666667 0.694118 0.764706, 0.666667 0.694118 0.764706, 0.666667 0.694118 0.764706, 0.666667 0.694118 0.764706, 
            0.666667 0.694118 0.764706, 0.666667 0.694118 0.764706, 0.666667 0.694118 0.764706, 0.666667 0.694118 0.764706, 
            0.666667 0.694118 0.764706, 0.666667 0.694118 0.764706, 0.666667 0.694118 0.764706, 0.666667 0.694118 0.764706, 
            0.666667 0.694118 0.764706, 0.666667 0.694118 0.764706, 0.666667 0.694118 0.764706, 0.666667 0.694118 0.764706, 
            0.666667 0.694118 0.764706, 0.666667 0.694118 0.764706, 0.666667 0.694118 0.764706, 0.666667 0.694118 0.764706, 
            0.666667 0.694118 0.764706, 0.666667 0.694118 0.764706, 0.666667 0.694118 0.764706, 0.666667 0.694118 0.764706, 
            0.666667 0.694118 0.764706, 0.666667 0.694118 0.764706, 0.666667 0.694118 0.764706, 0.666667 0.694118 0.764706, 
            0.666667 0.694118 0.764706, 0.666667 0.694118 0.764706, 0.666667 0.694118 0.764706, 0.666667 0.694118 0.764706, 
            0.666667 0.694118 0.764706, 0.666667 0.694118 0.764706, 0.666667 0.694118 0.764706, 0.666667 0.694118 0.764706, 
            0.666667 0.694118 0.764706, 0.666667 0.694118 0.764706, 0.666667 0.694118 0.764706, 0.666667 0.694118 0.764706, 
            0.666667 0.694118 0.764706, 0.666667 0.694118 0.764706, 0.666667 0.694118 0.764706, 0.666667 0.694118 0.764706, 
            0.666667 0.694118 0.764706, 0.666667 0.694118 0.764706, 0.666667 0.694118 0.764706, 0.666667 0.694118 0.764706, 
            0.666667 0.694118 0.764706, 0.666667 0.694118 0.764706, 0.666667 0.694118 0.764706, 0.666667 0.694118 0.764706, 
            0.666667 0.694118 0.764706, 0.666667 0.694118 0.764706, 1 1 1, 1 1 1, 
            1 1 1, 1 1 1, 1 1 1, 1 1 1, 
            1 1 1, 1 1 1, 1 1 1, 1 1 1, 
            1 1 1, 1 1 1, 1 1 1, 1 1 1, 
            1 1 1, 1 1 1, 1 1 1, 1 1 1
          ]
        }
        coordIndex
        [
          17,1,0,-1, 6,5,7,-1, 5,8,27,-1, 27,8,9,-1, 27,9,4,-1, 14,3,10,-1, 
          12,10,11,-1, 10,12,14,-1, 14,12,13,-1, 1,3,14,-1, 24,3,1,-1, 24,2,3,-1, 
          27,15,16,-1, 27,16,18,-1, 19,22,18,-1, 22,27,18,-1, 21,20,17,-1, 21,17,22,-1, 
          22,17,27,-1, 20,23,17,-1, 17,23,24,-1, 17,24,1,-1, 2,24,25,-1, 4,26,27,-1, 
          27,26,15,-1, 14,7,5,-1, 27,14,5,-1, 1,14,27,-1, 28,29,30,-1, 31,32,33,-1, 
          33,34,35,-1, 36,37,38,-1, 77,40,106,-1, 91,43,93,-1, 448,45,101,-1, 78,47,316,-1, 
          180,49,50,-1, 182,52,53,-1, 66,55,57,-1, 56,66,57,-1, 247,59,250,-1, 35,158,159,-1, 
          33,61,53,-1, 33,53,62,-1, 31,33,62,-1, 63,64,48,-1, 48,64,65,-1, 54,55,66,-1, 
          66,56,38,-1, 66,38,67,-1, 68,69,558,-1, 71,98,74,-1, 73,71,74,-1, 442,76,167,-1, 
          39,40,77,-1, 46,47,78,-1, 372,80,174,-1, 179,82,83,-1, 49,179,83,-1, 327,85,528,-1, 
          204,87,89,-1, 90,204,89,-1, 88,204,90,-1, 42,43,91,-1, 91,41,30,-1, 91,30,92,-1, 
          91,93,41,-1, 41,93,94,-1, 222,94,95,-1, 96,97,98,-1, 71,96,98,-1, 99,164,165,-1, 
          229,99,165,-1, 448,101,102,-1, 103,448,102,-1, 104,448,103,-1, 104,105,307,-1, 77,106,107,-1, 
          108,77,107,-1, 41,448,108,-1, 109,110,313,-1, 65,111,112,-1, 113,65,112,-1, 177,65,113,-1, 
          117,114,116,-1, 117,144,114,-1, 56,144,117,-1, 118,119,215,-1, 120,118,121,-1, 125,122,124,-1, 
          126,122,125,-1, 126,285,122,-1, 72,41,126,-1, 408,128,129,-1, 130,131,132,-1, 52,130,132,-1, 
          52,132,51,-1, 57,133,56,-1, 135,133,134,-1, 56,133,135,-1, 136,137,257,-1, 139,202,140,-1, 
          140,202,141,-1, 88,142,143,-1, 144,203,143,-1, 119,203,144,-1, 56,119,144,-1, 115,116,114,-1, 
          207,146,147,-1, 405,149,56,-1, 150,151,153,-1, 154,150,153,-1, 152,469,154,-1, 155,156,157,-1, 
          118,155,157,-1, 33,35,159,-1, 61,33,159,-1, 161,159,160,-1, 159,161,162,-1, 163,159,162,-1, 
          228,159,163,-1, 61,229,165,-1, 442,61,165,-1, 441,442,166,-1, 442,167,168,-1, 169,442,168,-1, 
          447,442,169,-1, 170,171,173,-1, 371,170,173,-1, 372,174,41,-1, 41,174,175,-1, 28,175,176,-1, 
          28,41,175,-1, 30,41,28,-1, 65,177,48,-1, 179,177,178,-1, 48,177,49,-1, 49,177,179,-1, 
          82,179,81,-1, 49,180,181,-1, 48,49,181,-1, 48,181,53,-1, 53,181,182,-1, 52,182,130,-1, 
          183,184,185,-1, 186,187,188,-1, 62,186,188,-1, 53,373,62,-1, 189,190,191,-1, 526,192,195,-1, 
          194,526,195,-1, 194,195,196,-1, 197,198,199,-1, 201,198,200,-1, 199,198,119,-1, 254,198,201,-1, 
          141,202,203,-1, 119,141,203,-1, 143,203,204,-1, 88,143,204,-1, 87,204,86,-1, 117,205,145,-1, 
          207,117,145,-1, 206,266,207,-1, 207,145,146,-1, 208,209,210,-1, 211,208,210,-1, 56,267,211,-1, 
          68,70,354,-1, 214,70,213,-1, 354,70,214,-1, 121,216,217,-1, 121,118,216,-1, 118,215,216,-1, 
          218,219,220,-1, 221,218,220,-1, 119,218,221,-1, 94,222,41,-1, 41,222,223,-1, 41,223,224,-1, 
          285,41,224,-1, 285,224,74,-1, 225,226,227,-1, 159,228,61,-1, 61,228,229,-1, 99,229,100,-1, 
          230,231,232,-1, 233,234,235,-1, 236,237,238,-1, 238,237,239,-1, 238,239,83,-1, 49,239,240,-1, 
          83,239,49,-1, 185,241,183,-1, 243,241,242,-1, 183,241,243,-1, 322,242,244,-1, 243,242,52,-1, 
          135,245,56,-1, 247,245,246,-1, 326,245,247,-1, 326,56,245,-1, 59,247,58,-1, 191,248,189,-1, 
          189,248,249,-1, 189,249,250,-1, 250,249,251,-1, 250,251,247,-1, 253,251,252,-1, 326,251,253,-1, 
          198,254,255,-1, 119,198,255,-1, 119,255,256,-1, 511,137,258,-1, 259,260,261,-1, 262,263,264,-1, 
          206,265,266,-1, 117,207,266,-1, 117,266,56,-1, 56,266,267,-1, 211,267,208,-1, 268,269,271,-1, 
          539,349,271,-1, 270,349,539,-1, 273,414,276,-1, 275,273,276,-1, 221,277,119,-1, 279,277,278,-1, 
          119,277,279,-1, 199,119,279,-1, 199,279,280,-1, 71,281,225,-1, 96,71,225,-1, 96,225,282,-1, 
          282,225,227,-1, 98,283,284,-1, 285,98,284,-1, 74,98,285,-1, 126,41,285,-1, 123,124,122,-1, 
          286,432,287,-1, 287,432,288,-1, 289,290,361,-1, 502,292,293,-1, 72,502,293,-1, 294,295,296,-1, 
          296,295,129,-1, 296,129,128,-1, 297,296,128,-1, 298,299,300,-1, 441,298,300,-1, 301,302,303,-1, 
          447,301,303,-1, 304,305,306,-1, 104,307,308,-1, 448,104,308,-1, 108,308,309,-1, 108,448,308,-1, 
          108,309,77,-1, 232,310,230,-1, 230,310,311,-1, 230,311,108,-1, 109,311,312,-1, 313,311,109,-1, 
          311,313,314,-1, 108,311,314,-1, 108,314,41,-1, 41,314,315,-1, 317,315,78,-1, 78,316,317,-1, 
          41,315,317,-1, 170,317,172,-1, 235,318,233,-1, 170,318,319,-1, 233,318,172,-1, 170,319,320,-1, 
          172,318,170,-1, 244,321,322,-1, 52,242,322,-1, 52,322,53,-1, 324,322,323,-1, 53,322,324,-1, 
          253,325,326,-1, 247,251,326,-1, 56,326,327,-1, 528,56,327,-1, 85,327,84,-1, 257,328,329,-1, 
          138,257,329,-1, 136,257,138,-1, 261,330,259,-1, 259,330,331,-1, 259,331,332,-1, 332,331,333,-1, 
          332,333,90,-1, 88,333,334,-1, 90,333,88,-1, 145,335,262,-1, 146,145,262,-1, 146,262,336,-1, 
          336,262,264,-1, 211,338,340,-1, 342,211,340,-1, 339,343,341,-1, 341,343,342,-1, 337,338,211,-1, 
          344,342,343,-1, 211,342,344,-1, 56,211,344,-1, 56,344,345,-1, 149,346,56,-1, 348,346,347,-1, 
          36,346,348,-1, 36,56,346,-1, 38,56,36,-1, 271,349,268,-1, 351,349,350,-1, 268,349,351,-1, 
          352,353,354,-1, 214,352,354,-1, 68,354,212,-1, 355,356,357,-1, 358,359,360,-1, 289,361,362,-1, 
          363,289,362,-1, 72,434,363,-1, 364,365,366,-1, 306,367,304,-1, 104,367,368,-1, 304,367,103,-1, 
          104,368,369,-1, 103,367,104,-1, 173,370,371,-1, 317,170,371,-1, 317,371,41,-1, 41,371,372,-1, 
          80,372,79,-1, 324,373,53,-1, 186,373,374,-1, 62,373,186,-1, 379,376,378,-1, 379,375,376,-1, 
          565,375,379,-1, 56,381,60,-1, 60,382,383,-1, 384,385,457,-1, 485,388,486,-1, 256,390,391,-1, 
          119,256,391,-1, 119,391,392,-1, 393,394,396,-1, 395,393,396,-1, 395,396,141,-1, 397,398,399,-1, 
          400,401,402,-1, 402,401,403,-1, 402,403,340,-1, 342,403,404,-1, 340,403,342,-1, 345,405,56,-1, 
          149,405,406,-1, 149,406,148,-1, 436,128,408,-1, 72,436,408,-1, 408,409,466,-1, 72,408,410,-1, 
          72,410,48,-1, 48,410,60,-1, 48,60,63,-1, 63,60,485,-1, 412,413,414,-1, 273,412,414,-1, 
          557,414,274,-1, 415,416,417,-1, 418,419,420,-1, 420,419,421,-1, 420,421,423,-1, 153,420,423,-1, 
          422,420,153,-1, 154,423,424,-1, 153,423,154,-1, 118,425,355,-1, 155,118,355,-1, 155,355,426,-1, 
          426,355,357,-1, 157,427,428,-1, 118,157,428,-1, 118,428,119,-1, 119,428,429,-1, 119,429,218,-1, 
          126,430,358,-1, 288,126,358,-1, 288,358,431,-1, 431,358,360,-1, 288,432,126,-1, 434,432,433,-1, 
          126,432,434,-1, 72,126,434,-1, 363,434,289,-1, 127,128,435,-1, 408,129,407,-1, 435,128,436,-1, 
          366,437,364,-1, 298,437,438,-1, 364,437,166,-1, 298,438,439,-1, 166,437,298,-1, 300,440,441,-1, 
          166,298,441,-1, 165,166,442,-1, 447,61,442,-1, 76,442,75,-1, 443,444,445,-1, 303,446,447,-1, 
          169,479,447,-1, 61,447,448,-1, 41,61,448,-1, 45,448,44,-1, 449,450,451,-1, 85,525,192,-1, 
          527,451,452,-1, 453,454,456,-1, 455,453,456,-1, 384,457,386,-1, 60,457,458,-1, 386,457,383,-1, 
          459,460,461,-1, 399,462,397,-1, 397,462,463,-1, 397,463,138,-1, 136,463,464,-1, 138,463,136,-1, 
          409,465,466,-1, 410,408,466,-1, 410,466,467,-1, 152,468,469,-1, 150,154,469,-1, 150,469,560,-1, 
          471,472,473,-1, 214,474,415,-1, 352,214,415,-1, 352,415,475,-1, 475,415,417,-1, 293,476,72,-1, 
          72,476,477,-1, 72,477,436,-1, 445,478,443,-1, 443,478,479,-1, 443,479,169,-1, 301,479,480,-1, 
          447,479,301,-1, 456,454,481,-1, 60,456,481,-1, 60,481,482,-1, 383,457,60,-1, 484,458,483,-1, 
          60,458,484,-1, 487,63,485,-1, 487,411,63,-1, 388,485,387,-1, 485,486,487,-1, 389,411,487,-1, 
          389,487,488,-1, 489,490,119,-1, 119,490,491,-1, 119,491,141,-1, 395,491,492,-1, 141,491,395,-1, 
          393,493,494,-1, 394,393,494,-1, 394,494,495,-1, 495,494,459,-1, 495,459,496,-1, 496,459,461,-1, 
          273,497,471,-1, 412,273,471,-1, 412,471,498,-1, 498,471,473,-1, 499,500,501,-1, 291,292,502,-1, 
          519,72,363,-1, 502,72,503,-1, 504,505,506,-1, 482,507,60,-1, 60,507,508,-1, 60,508,382,-1, 
          484,509,60,-1, 485,509,510,-1, 60,509,485,-1, 137,511,512,-1, 119,511,489,-1, 257,137,512,-1, 
          513,511,119,-1, 512,511,513,-1, 513,119,392,-1, 514,515,516,-1, 516,515,517,-1, 516,517,351,-1, 
          268,517,518,-1, 351,517,268,-1, 72,519,503,-1, 520,519,499,-1, 503,519,520,-1, 520,499,501,-1, 
          375,521,522,-1, 376,375,522,-1, 376,522,524,-1, 524,522,504,-1, 523,376,524,-1, 524,504,506,-1, 
          451,85,192,-1, 526,451,192,-1, 449,451,526,-1, 195,192,193,-1, 451,527,528,-1, 85,451,528,-1, 
          56,528,381,-1, 381,528,529,-1, 381,529,380,-1, 530,531,532,-1, 530,533,534,-1, 531,530,534,-1, 
          531,534,381,-1, 536,537,538,-1, 469,539,119,-1, 540,541,542,-1, 386,543,536,-1, 384,386,536,-1, 
          384,536,544,-1, 544,536,538,-1, 467,545,410,-1, 276,545,546,-1, 410,545,276,-1, 215,119,539,-1, 
          469,119,410,-1, 271,215,539,-1, 271,547,215,-1, 270,539,272,-1, 548,549,456,-1, 456,549,550,-1, 
          60,548,456,-1, 542,551,540,-1, 540,551,552,-1, 540,552,553,-1, 553,552,554,-1, 553,554,453,-1, 
          454,554,555,-1, 453,554,454,-1, 274,556,557,-1, 276,414,557,-1, 276,557,410,-1, 410,557,558,-1, 
          70,558,559,-1, 470,150,560,-1, 560,469,410,-1, 560,410,69,-1, 69,410,558,-1, 68,558,70,-1, 
          535,531,381,-1, 562,534,561,-1, 381,534,562,-1, 60,381,562,-1, 60,562,563,-1, 548,60,563,-1, 
          565,548,563,-1, 564,548,379,-1, 379,548,565,-1, 375,565,377,-1, 566,567,568,-1, 568,567,569,-1, 
          568,569,532,-1, 530,569,570,-1, 532,569,530,-1, 571,445,444,-1, 366,365,572,-1, 572,365,573,-1, 
          30,29,17,-1, 17,29,574,-1, 17,574,575,-1, 235,234,575,-1, 575,234,576,-1, 575,576,17,-1, 
          17,576,577,-1, 232,231,577,-1, 577,231,578,-1, 577,578,17,-1, 17,578,579,-1, 444,580,571,-1, 
          571,580,27,-1, 571,27,581,-1, 581,17,579,-1, 581,579,305,-1, 305,579,306,-1, 34,33,582,-1, 
          582,33,27,-1, 582,27,573,-1, 581,27,17,-1, 573,27,572,-1, 572,27,580,-1, 583,584,1,-1, 
          585,538,537,-1, 586,506,505,-1, 587,191,190,-1, 542,541,588,-1, 588,541,589,-1, 567,566,584,-1, 
          584,566,590,-1, 584,590,1,-1, 1,590,591,-1, 67,38,592,-1, 592,38,1,-1, 592,1,593,-1, 
          33,32,27,-1, 27,32,594,-1, 27,594,595,-1, 190,593,587,-1, 587,593,1,-1, 587,1,596,-1, 
          596,1,591,-1, 596,591,196,-1, 196,591,194,-1, 185,184,595,-1, 595,184,597,-1, 595,597,27,-1, 
          27,597,598,-1, 237,236,598,-1, 598,236,599,-1, 598,599,27,-1, 27,599,600,-1, 537,601,585,-1, 
          585,601,27,-1, 585,27,602,-1, 602,27,600,-1, 602,600,488,-1, 488,600,389,-1, 505,583,586,-1, 
          586,583,1,-1, 586,1,589,-1, 589,1,27,-1, 589,27,588,-1, 588,27,601,-1, 603,264,263,-1, 
          604,461,460,-1, 38,37,1,-1, 1,37,605,-1, 1,605,606,-1, 1,607,608,-1, 399,398,609,-1, 
          609,398,610,-1, 197,199,611,-1, 611,199,0,-1, 611,0,610,-1, 614,0,1,-1, 610,0,609,-1, 
          609,0,612,-1, 401,400,606,-1, 606,400,613,-1, 606,613,1,-1, 1,613,603,-1, 1,603,607,-1, 
          607,603,263,-1, 261,260,608,-1, 608,260,614,-1, 608,614,1,-1, 0,614,604,-1, 0,604,612,-1, 
          612,604,460,-1, 0,199,280,-1, 280,615,0,-1, 0,615,616,-1, 0,616,620,-1, 617,515,514,-1, 
          0,619,624,-1, 514,618,617,-1, 0,618,619,-1, 617,618,0,-1, 620,617,0,-1, 620,616,356,-1, 
          356,616,357,-1, 621,417,416,-1, 0,623,628,-1, 416,622,621,-1, 0,622,623,-1, 621,622,0,-1, 
          624,621,0,-1, 624,619,418,-1, 418,619,419,-1, 625,295,294,-1, 626,627,17,-1, 294,626,625,-1, 
          625,626,17,-1, 625,17,628,-1, 628,17,0,-1, 628,623,472,-1, 472,623,473,-1, 629,360,359,-1, 
          630,631,17,-1, 359,630,629,-1, 629,630,17,-1, 629,17,632,-1, 632,17,627,-1, 632,627,500,-1, 
          500,627,501,-1, 92,30,633,-1, 633,30,17,-1, 633,17,634,-1, 634,17,631,-1, 634,631,226,-1, 
          226,631,227,-1, 635,636,615,-1, 615,636,616,-1, 616,636,357,-1, 357,636,643,-1, 357,637,639,-1, 
          426,357,639,-1, 426,639,638,-1, 638,639,429,-1, 639,640,429,-1, 429,640,641,-1, 641,640,642,-1, 
          641,642,640,-1, 641,640,280,-1, 280,640,643,-1, 280,643,615,-1, 615,643,635,-1, 637,357,643,-1, 
          643,636,635,-1, 637,643,639,-1, 639,643,640,-1, 644,645,620,-1, 620,645,617,-1, 617,645,515,-1, 
          515,645,652,-1, 515,646,648,-1, 517,515,648,-1, 517,648,647,-1, 647,648,215,-1, 648,649,215,-1, 
          215,649,650,-1, 650,649,651,-1, 650,651,649,-1, 650,649,356,-1, 356,649,652,-1, 356,652,620,-1, 
          620,652,644,-1, 646,515,652,-1, 652,645,644,-1, 646,652,648,-1, 648,652,649,-1, 653,654,618,-1, 
          618,654,619,-1, 619,654,419,-1, 419,654,663,-1, 419,655,657,-1, 656,419,657,-1, 656,657,659,-1, 
          656,659,658,-1, 659,660,658,-1, 658,660,661,-1, 661,660,662,-1, 661,662,660,-1, 661,660,514,-1, 
          514,660,663,-1, 514,663,618,-1, 618,663,653,-1, 655,419,663,-1, 663,654,653,-1, 655,663,657,-1, 
          657,663,660,-1, 657,660,659,-1, 664,665,624,-1, 624,665,621,-1, 621,665,417,-1, 417,665,674,-1, 
          417,666,668,-1, 667,417,668,-1, 667,668,670,-1, 667,670,669,-1, 670,671,669,-1, 669,671,672,-1, 
          672,671,673,-1, 672,673,671,-1, 672,671,418,-1, 418,671,674,-1, 418,674,624,-1, 624,674,664,-1, 
          666,417,674,-1, 674,665,664,-1, 666,674,668,-1, 668,674,671,-1, 668,671,670,-1, 675,676,622,-1, 
          622,676,623,-1, 623,676,473,-1, 473,676,685,-1, 473,677,679,-1, 678,473,679,-1, 678,679,681,-1, 
          678,681,680,-1, 681,682,680,-1, 680,682,683,-1, 683,682,684,-1, 683,684,682,-1, 683,682,416,-1, 
          416,682,685,-1, 416,685,622,-1, 622,685,675,-1, 677,473,685,-1, 685,676,675,-1, 677,685,679,-1, 
          679,685,682,-1, 679,682,681,-1, 686,687,628,-1, 628,687,625,-1, 625,687,295,-1, 295,687,694,-1, 
          295,688,690,-1, 129,295,690,-1, 129,690,689,-1, 690,693,689,-1, 689,693,545,-1, 545,693,692,-1, 
          545,692,691,-1, 691,692,693,-1, 691,693,472,-1, 472,693,694,-1, 472,694,628,-1, 628,694,686,-1, 
          688,295,694,-1, 694,687,686,-1, 688,694,690,-1, 690,694,693,-1, 695,696,626,-1, 626,696,627,-1, 
          627,696,501,-1, 501,696,705,-1, 501,697,699,-1, 698,501,699,-1, 698,699,701,-1, 698,701,700,-1, 
          701,702,700,-1, 700,702,703,-1, 703,702,704,-1, 703,704,702,-1, 703,702,294,-1, 294,702,705,-1, 
          294,705,626,-1, 626,705,695,-1, 697,501,705,-1, 705,696,695,-1, 697,705,699,-1, 699,705,702,-1, 
          699,702,701,-1, 706,707,632,-1, 632,707,629,-1, 629,707,360,-1, 360,707,716,-1, 360,708,710,-1, 
          709,360,710,-1, 709,710,712,-1, 709,712,711,-1, 712,713,711,-1, 711,713,714,-1, 714,713,715,-1, 
          714,715,713,-1, 714,713,500,-1, 500,713,716,-1, 500,716,632,-1, 632,716,706,-1, 708,360,716,-1, 
          716,707,706,-1, 708,716,710,-1, 710,716,713,-1, 710,713,712,-1, 717,718,630,-1, 630,718,631,-1, 
          631,718,227,-1, 227,718,727,-1, 227,719,721,-1, 720,227,721,-1, 720,721,722,-1, 720,722,723,-1, 
          722,724,723,-1, 723,724,725,-1, 725,724,726,-1, 725,726,724,-1, 725,724,359,-1, 359,724,727,-1, 
          359,727,630,-1, 630,727,717,-1, 719,227,727,-1, 727,718,717,-1, 719,727,721,-1, 721,727,724,-1, 
          721,724,722,-1, 728,729,634,-1, 634,729,633,-1, 633,729,92,-1, 92,729,736,-1, 92,730,732,-1, 
          91,92,732,-1, 91,732,731,-1, 731,732,222,-1, 732,733,222,-1, 222,733,734,-1, 734,733,735,-1, 
          734,735,733,-1, 734,733,226,-1, 226,733,736,-1, 226,736,634,-1, 634,736,728,-1, 730,92,736,-1, 
          736,729,728,-1, 730,736,732,-1, 732,736,733,-1, 737,738,593,-1, 593,738,592,-1, 745,744,190,-1, 
          190,744,739,-1, 190,739,593,-1, 593,739,737,-1, 592,738,67,-1, 67,738,739,-1, 67,740,743,-1, 
          741,67,743,-1, 741,743,742,-1, 741,742,743,-1, 741,743,245,-1, 245,743,744,-1, 245,744,746,-1, 
          245,746,745,-1, 745,746,744,-1, 740,67,739,-1, 739,738,737,-1, 740,739,743,-1, 743,739,744,-1, 
          747,748,596,-1, 596,748,587,-1, 755,754,196,-1, 196,754,749,-1, 196,749,596,-1, 596,749,747,-1, 
          587,748,191,-1, 191,748,749,-1, 191,750,752,-1, 751,191,752,-1, 751,752,753,-1, 751,753,327,-1, 
          327,753,754,-1, 327,754,756,-1, 327,756,755,-1, 755,756,754,-1, 750,191,749,-1, 749,748,747,-1, 
          750,749,752,-1, 752,749,754,-1, 752,754,753,-1, 757,758,590,-1, 590,758,591,-1, 765,764,566,-1, 
          566,764,759,-1, 566,759,590,-1, 590,759,757,-1, 591,758,194,-1, 194,758,759,-1, 194,760,762,-1, 
          761,194,762,-1, 761,762,763,-1, 761,763,529,-1, 529,763,764,-1, 529,764,765,-1, 760,194,759,-1, 
          759,758,757,-1, 760,759,762,-1, 762,759,764,-1, 762,764,763,-1, 766,767,583,-1, 583,767,584,-1, 
          774,773,505,-1, 505,773,768,-1, 505,768,583,-1, 583,768,766,-1, 584,767,567,-1, 567,767,768,-1, 
          567,769,771,-1, 770,567,771,-1, 770,771,772,-1, 770,772,563,-1, 563,772,773,-1, 563,773,774,-1, 
          769,567,768,-1, 768,767,766,-1, 769,768,771,-1, 771,768,773,-1, 771,773,772,-1, 775,776,589,-1, 
          589,776,586,-1, 783,777,541,-1, 541,777,778,-1, 541,778,589,-1, 589,778,775,-1, 586,776,506,-1, 
          506,776,778,-1, 506,779,781,-1, 780,506,781,-1, 780,781,782,-1, 780,782,549,-1, 549,782,777,-1, 
          549,777,784,-1, 549,784,783,-1, 783,784,777,-1, 779,506,778,-1, 778,776,775,-1, 779,778,781,-1, 
          781,778,777,-1, 781,777,782,-1, 785,786,601,-1, 601,786,588,-1, 793,792,537,-1, 537,792,787,-1, 
          537,787,601,-1, 601,787,785,-1, 588,786,542,-1, 542,786,787,-1, 542,788,790,-1, 789,542,790,-1, 
          789,790,791,-1, 789,791,507,-1, 507,791,792,-1, 507,792,794,-1, 507,794,793,-1, 793,794,792,-1, 
          788,542,787,-1, 787,786,785,-1, 788,787,790,-1, 790,787,792,-1, 790,792,791,-1, 795,796,602,-1, 
          602,796,585,-1, 803,802,488,-1, 488,802,797,-1, 488,797,602,-1, 602,797,795,-1, 585,796,538,-1, 
          538,796,797,-1, 538,798,800,-1, 799,538,800,-1, 799,800,801,-1, 799,801,509,-1, 509,801,802,-1, 
          509,802,803,-1, 798,538,797,-1, 797,796,795,-1, 798,797,800,-1, 800,797,802,-1, 800,802,801,-1, 
          804,805,599,-1, 599,805,600,-1, 812,811,236,-1, 236,811,806,-1, 236,806,599,-1, 599,806,804,-1, 
          600,805,389,-1, 389,805,806,-1, 389,807,809,-1, 808,389,809,-1, 808,809,810,-1, 808,810,177,-1, 
          177,810,811,-1, 177,811,812,-1, 807,389,806,-1, 806,805,804,-1, 807,806,809,-1, 809,806,811,-1, 
          809,811,810,-1, 813,814,597,-1, 597,814,598,-1, 821,820,184,-1, 184,820,815,-1, 184,815,597,-1, 
          597,815,813,-1, 598,814,237,-1, 237,814,815,-1, 237,816,819,-1, 817,237,819,-1, 817,819,818,-1, 
          817,818,819,-1, 817,819,130,-1, 130,819,820,-1, 130,820,821,-1, 816,237,815,-1, 815,814,813,-1, 
          816,815,819,-1, 819,815,820,-1, 822,823,594,-1, 594,823,595,-1, 830,824,32,-1, 32,824,825,-1, 
          32,825,594,-1, 594,825,822,-1, 595,823,185,-1, 185,823,825,-1, 185,826,828,-1, 827,185,828,-1, 
          827,828,829,-1, 827,829,828,-1, 827,828,373,-1, 373,828,824,-1, 373,824,831,-1, 373,831,830,-1, 
          830,831,824,-1, 826,185,825,-1, 825,823,822,-1, 826,825,828,-1, 828,825,824,-1, 832,833,610,-1, 
          610,833,611,-1, 611,833,197,-1, 197,833,839,-1, 197,834,835,-1, 835,834,836,-1, 835,836,391,-1, 
          836,838,391,-1, 391,838,837,-1, 837,838,398,-1, 398,838,839,-1, 398,839,833,-1, 610,398,832,-1, 
          834,197,839,-1, 398,833,832,-1, 834,839,836,-1, 836,839,838,-1, 840,841,612,-1, 612,841,609,-1, 
          609,841,399,-1, 399,841,849,-1, 399,842,843,-1, 843,842,844,-1, 843,844,845,-1, 844,847,845,-1, 
          845,847,846,-1, 846,847,848,-1, 846,848,459,-1, 459,848,460,-1, 460,848,849,-1, 460,849,841,-1, 
          612,460,840,-1, 842,399,849,-1, 460,841,840,-1, 842,849,844,-1, 844,849,848,-1, 847,844,848,-1, 
          850,851,614,-1, 614,851,604,-1, 604,851,461,-1, 461,851,859,-1, 461,852,853,-1, 853,852,854,-1, 
          853,854,855,-1, 854,857,855,-1, 855,857,856,-1, 856,857,858,-1, 856,858,259,-1, 259,858,260,-1, 
          260,858,859,-1, 260,859,851,-1, 614,260,850,-1, 852,461,859,-1, 260,851,850,-1, 854,852,859,-1, 
          858,857,859,-1, 859,857,854,-1, 860,861,607,-1, 607,861,608,-1, 608,861,261,-1, 261,861,869,-1, 
          261,862,863,-1, 863,862,864,-1, 863,864,865,-1, 864,867,865,-1, 865,867,866,-1, 866,867,868,-1, 
          866,868,262,-1, 262,868,263,-1, 263,868,869,-1, 263,869,861,-1, 607,263,860,-1, 862,261,869,-1, 
          263,861,860,-1, 864,862,869,-1, 868,867,869,-1, 869,867,864,-1, 870,871,613,-1, 613,871,603,-1, 
          603,871,264,-1, 264,871,877,-1, 264,872,873,-1, 873,872,874,-1, 873,874,267,-1, 874,876,267,-1, 
          267,876,875,-1, 875,876,400,-1, 400,876,877,-1, 400,877,871,-1, 613,400,870,-1, 872,264,877,-1, 
          400,871,870,-1, 872,877,874,-1, 874,877,876,-1, 878,879,605,-1, 605,879,606,-1, 606,879,401,-1, 
          401,879,886,-1, 401,880,881,-1, 881,880,882,-1, 882,884,881,-1, 881,884,883,-1, 883,884,885,-1, 
          883,885,36,-1, 36,885,37,-1, 37,885,886,-1, 37,886,879,-1, 605,37,878,-1, 880,401,886,-1, 
          37,879,878,-1, 880,886,882,-1, 882,886,885,-1, 884,882,885,-1, 887,888,574,-1, 574,888,575,-1, 
          575,888,235,-1, 235,888,896,-1, 235,889,890,-1, 890,889,891,-1, 890,891,893,-1, 890,893,892,-1, 
          892,893,894,-1, 894,893,895,-1, 894,895,29,-1, 29,895,896,-1, 29,896,888,-1, 574,29,887,-1, 
          889,235,896,-1, 29,888,887,-1, 889,896,891,-1, 891,896,895,-1, 893,891,895,-1, 897,898,576,-1, 
          576,898,577,-1, 577,898,232,-1, 232,898,904,-1, 232,899,900,-1, 900,899,901,-1, 900,901,902,-1, 
          902,901,903,-1, 902,903,234,-1, 234,903,904,-1, 234,904,898,-1, 576,234,897,-1, 899,232,904,-1, 
          234,898,897,-1, 899,904,901,-1, 901,904,903,-1, 905,906,578,-1, 578,906,579,-1, 579,906,306,-1, 
          306,906,914,-1, 306,907,908,-1, 908,907,911,-1, 908,911,910,-1, 908,910,909,-1, 909,910,911,-1, 
          909,911,912,-1, 912,911,913,-1, 912,913,231,-1, 231,913,914,-1, 231,914,906,-1, 578,231,905,-1, 
          907,306,914,-1, 231,906,905,-1, 914,913,907,-1, 907,913,911,-1, 915,916,581,-1, 581,916,571,-1, 
          571,916,445,-1, 445,916,923,-1, 445,917,918,-1, 918,917,919,-1, 918,919,921,-1, 918,921,920,-1, 
          920,921,922,-1, 920,922,305,-1, 305,922,923,-1, 305,923,916,-1, 581,305,915,-1, 917,445,923,-1, 
          305,916,915,-1, 919,917,921,-1, 917,923,921,-1, 921,923,922,-1, 924,925,580,-1, 580,925,572,-1, 
          572,925,366,-1, 366,925,932,-1, 366,926,927,-1, 927,926,929,-1, 927,929,928,-1, 928,929,930,-1, 
          930,929,931,-1, 930,931,443,-1, 443,931,444,-1, 444,931,932,-1, 444,932,925,-1, 580,444,924,-1, 
          926,366,932,-1, 444,925,924,-1, 926,932,929,-1, 929,932,931,-1, 933,934,573,-1, 573,934,582,-1, 
          582,934,34,-1, 34,934,940,-1, 34,935,936,-1, 936,935,937,-1, 936,937,938,-1, 938,937,939,-1, 
          938,939,365,-1, 365,939,940,-1, 365,940,934,-1, 573,365,933,-1, 935,34,940,-1, 365,934,933,-1, 
          935,940,937,-1, 937,940,939,-1, 61,41,941,-1, 941,41,942,-1, 943,942,72,-1, 72,942,41,-1, 
          944,943,48,-1, 48,943,72,-1, 945,944,53,-1, 53,944,48,-1, 941,942,945,-1, 945,942,943,-1, 
          945,943,944,-1, 946,947,410,-1, 410,947,60,-1, 948,946,119,-1, 119,946,410,-1, 949,948,56,-1, 
          56,948,119,-1, 947,949,60,-1, 60,949,56,-1, 948,949,946,-1, 946,949,947,-1, 53,61,945,-1, 
          945,61,941,-1, 966,3,950,-1, 950,3,952,-1, 950,952,951,-1, 951,952,953,-1, 951,953,954,-1, 
          954,953,956,-1, 954,956,955,-1, 955,956,19,-1, 955,19,957,-1, 957,19,959,-1, 957,959,958,-1, 
          958,959,26,-1, 958,26,960,-1, 960,26,962,-1, 960,962,961,-1, 961,962,5,-1, 961,5,963,-1, 
          963,5,964,-1, 963,964,965,-1, 965,964,13,-1, 965,13,967,-1, 965,967,966,-1, 966,967,3,-1, 
          961,966,950,-1, 961,965,966,-1, 961,963,965,-1, 961,958,960,-1, 961,955,957,-1, 961,957,958,-1, 
          951,954,961,-1, 961,954,955,-1, 950,951,961,-1
        ]
      }
      appearance Appearance
      {
        material Material
        {
	       ambientIntensity 0.2
	       diffuseColor 0.9 0.9 0.9
	       specularColor .1 .1 .1
	       shininess .5
        }
      }
    }
  ]
}
