#VRML V2.0 utf8

# Generated by VCGLIB, (C)Copyright 1999-2001 VCG, IEI-CNR

NavigationInfo {
	type [ "EXAMINE", "ANY" ]
}
Transform {
  scale 1 1 1
  translation 0 0 0
  children
  [
    Shape
    {
      geometry IndexedFaceSet
      {
        creaseAngle .5
        solid FALSE
        coord Coordinate
        {
          point
          [
            3.41142 2.39103 0.0984252, 3.42773 2.37851 0.0984252, 3.44024 2.3622 0.0984252, 3.37205 2.40157 0.0984252, 
            3.4481 2.34321 0.0984252, 3.45079 2.32283 0.0984252, 3.39243 2.39889 0.0984252, 3.44683 -2.349 0.0984252, 
            3.37205 -2.40157 0.0984252, 3.45079 -2.32283 0.0984252, 0 -2.40157 0.0984252, 3.43361 -2.37193 0.0984252, 
            3.42114 -2.3844 0.0984252, 3.38957 -2.3996 0.0984252, 3.40621 -2.39378 0.0984252, -3.37205 2.40157 0.0984252, 
            -3.45079 2.40157 0.0984252, -3.41142 2.39103 0.0984252, -3.4481 2.34321 0.0984252, -3.42773 2.37851 0.0984252, 
            -3.44024 2.3622 0.0984252, -3.45079 2.32283 0.0984252, -3.39243 2.39889 0.0984252, -3.37205 -2.40157 0.0984252, 
            -3.39243 -2.39889 0.0984252, -3.4481 -2.34321 0.0984252, -3.45079 -2.32283 0.0984252, -3.41142 -2.39103 0.0984252, 
            -3.42773 -2.37851 0.0984252, -3.44024 -2.3622 0.0984252, -2.64961 2.40157 0.639134, -2.64961 2.40157 0.737559, 
            -2.85039 2.40157 0.639134, -2.85039 2.40157 0.737559, -3.37205 2.40157 2.09055, -2.14961 2.40157 0.639134, 
            -2.14961 2.40157 0.737559, -2.35039 2.40157 0.639134, -2.35039 2.40157 0.737559, -1.64961 2.40157 0.737559, 
            -1.64961 2.40157 0.639134, -1.85039 2.40157 0.639134, -1.85039 2.40157 0.737559, -1.14961 2.40157 0.639134, 
            -1.14961 2.40157 0.737559, -1.35039 2.40157 0.639134, -1.35039 2.40157 0.737559, -0.649606 2.40157 0.737559, 
            -0.350394 2.40157 0.639134, -0.149606 2.40157 0.639134, -0.149606 2.40157 0.737559, -0.649606 2.40157 0.639134, 
            -0.350394 2.40157 0.737559, -0.850394 2.40157 0.639134, -0.850394 2.40157 0.737559, 0.350394 2.40157 0.737559, 
            0.350394 2.40157 0.639134, 0.149606 2.40157 0.639134, 0.149606 2.40157 0.737559, 0.850394 2.40157 0.639134, 
            0.850394 2.40157 0.737559, 0.649606 2.40157 0.639134, 0.649606 2.40157 0.737559, 1.35039 2.40157 0.737559, 
            1.35039 2.40157 0.639134, 1.14961 2.40157 0.639134, 1.14961 2.40157 0.737559, 1.85039 2.40157 0.639134, 
            1.85039 2.40157 0.737559, 1.64961 2.40157 0.639134, 1.64961 2.40157 0.737559, 2.35039 2.40157 0.639134, 
            2.35039 2.40157 0.737559, 2.14961 2.40157 0.639134, 2.14961 2.40157 0.737559, 2.64961 2.40157 0.639134, 
            2.64961 2.40157 0.737559, 2.85039 2.40157 0.737559, 2.85039 2.40157 0.639134, 0 2.40157 2.09055, 
            3.37205 2.40157 2.09055, -3.37205 -2.40157 2.09055, -2.14961 -2.40157 0.639134, -2.64961 -2.40157 0.639134, 
            -2.85039 -2.40157 0.639134, -2.85039 -2.40157 0.737559, -2.64961 -2.40157 0.737559, -1.64961 -2.40157 0.639134, 
            -2.35039 -2.40157 0.639134, -2.35039 -2.40157 0.737559, -2.14961 -2.40157 0.737559, -1.14961 -2.40157 0.639134, 
            -1.85039 -2.40157 0.639134, -1.85039 -2.40157 0.737559, -1.64961 -2.40157 0.737559, -1.35039 -2.40157 0.639134, 
            -1.35039 -2.40157 0.737559, -1.14961 -2.40157 0.737559, -1 -2.40157 2.09055, -0.350394 -2.40157 0.737559, 
            -0.149606 -2.40157 0.737559, 0 -2.40157 2.09055, -0.649606 -2.40157 0.639134, -0.850394 -2.40157 0.639134, 
            -0.850394 -2.40157 0.737559, -0.149606 -2.40157 0.639134, -0.350394 -2.40157 0.639134, -0.649606 -2.40157 0.737559, 
            0.350394 -2.40157 0.639134, 0.149606 -2.40157 0.639134, 0.149606 -2.40157 0.737559, 0.350394 -2.40157 0.737559, 
            0.5 -2.40157 2.09055, 0.850394 -2.40157 0.639134, 0.649606 -2.40157 0.639134, 0.649606 -2.40157 0.737559, 
            0.850394 -2.40157 0.737559, 1 -2.40157 2.09055, 1.85039 -2.40157 0.639134, 1.35039 -2.40157 0.639134, 
            1.14961 -2.40157 0.639134, 1.14961 -2.40157 0.737559, 1.35039 -2.40157 0.737559, 1.5 -2.40157 2.09055, 
            2.35039 -2.40157 0.639134, 1.64961 -2.40157 0.639134, 1.64961 -2.40157 0.737559, 1.85039 -2.40157 0.737559, 
            2 -2.40157 2.09055, 2.14961 -2.40157 0.639134, 2.14961 -2.40157 0.737559, 2.35039 -2.40157 0.737559, 
            2.5 -2.40157 2.09055, 2.64961 -2.40157 0.639134, 2.64961 -2.40157 0.737559, 2.85039 -2.40157 0.639134, 
            3.37205 -2.40157 0.36878, 2.85039 -2.40157 0.737559, 3.37205 -2.40157 2.09055, 3.45079 2.32283 2.09055, 
            3.45079 -2.32283 2.09055, -3.45079 2.32283 2.09055, -3.45079 -2.32283 2.09055, -2.57742 -1.90261 2.16929, 
            3.37205 -2.32283 2.16929, -2.53535 -1.84778 2.16929, -2.5089 -1.78393 2.16929, -2.83314 -1.97113 2.16929, 
            -2.897 -1.94469 2.16929, -3.37205 -2.32283 2.16929, -2.63225 -1.94469 2.16929, -2.6961 -1.97113 2.16929, 
            -2.76462 -1.98015 2.16929, -2.95183 -1.90261 2.16929, -2.9939 -1.84778 2.16929, -3.02035 -1.78393 2.16929, 
            -2.95183 -1.52821 2.16929, -2.897 -1.48614 2.16929, -3.37205 2.32283 2.16929, -2.83314 -1.45969 2.16929, 
            -2.57742 -1.52821 2.16929, -2.53535 -1.58304 2.16929, 3.37205 2.32283 2.16929, -2.5089 -1.64689 2.16929, 
            -2.49988 -1.71541 2.16929, -3.02937 -1.71541 2.16929, -3.02035 -1.64689 2.16929, -2.9939 -1.58304 2.16929, 
            -2.76462 -1.45067 2.16929, -2.6961 -1.45969 2.16929, -2.63225 -1.48614 2.16929, -2.85039 -2.79098 0.0984252, 
            -2.64961 -2.79098 0.0984252, -2.64961 -3.14961 0.0984252, -2.85039 -3.14961 0.0984252, -2.64961 -3.14961 0, 
            -2.85039 -3.14961 0, -2.64961 -2.76561 0.000641844, -2.85039 -2.64487 0.639134, -2.64961 -2.64487 0.639134, 
            -2.85039 -2.71137 0.7117, -2.85039 -2.66721 0.737158, -2.85039 -2.76893 0.000279648, -2.85039 -2.69698 0.0547376, 
            -2.85039 -2.74031 0.672513, -2.64961 -2.6961 0.058432, -2.64961 -2.67077 0.736664, -2.64961 -2.73975 0.679127, 
            -2.85039 2.64487 0.639134, -2.64961 2.64487 0.639134, -2.85039 2.67077 0.736664, -2.64961 2.71137 0.7117, 
            -2.64961 2.66721 0.737158, -2.64961 3.14961 0, -2.64961 3.14961 0.0984252, -2.64961 2.79098 0.0984252, 
            -2.64961 2.76893 0.000279648, -2.64961 2.69698 0.0547376, -2.64961 2.74031 0.672513, -2.85039 2.79098 0.0984252, 
            -2.85039 2.6961 0.058432, -2.85039 3.14961 0.0984252, -2.85039 3.14961 0, -2.85039 2.76561 0.000641844, 
            -2.85039 2.73975 0.679126, -2.35039 -2.79098 0.0984252, -2.14961 -2.79098 0.0984252, -2.14961 -3.14961 0.0984252, 
            -2.35039 -3.14961 0.0984252, -2.14961 -3.14961 0, -2.35039 -3.14961 0, -2.14961 -2.76561 0.000641844, 
            -2.35039 -2.64487 0.639134, -2.14961 -2.64487 0.639134, -2.35039 -2.71137 0.7117, -2.35039 -2.66721 0.737158, 
            -2.35039 -2.76893 0.000279648, -2.35039 -2.69698 0.0547376, -2.35039 -2.74031 0.672513, -2.14961 -2.6961 0.058432, 
            -2.14961 -2.40157 0.639134, -2.14961 -2.67077 0.736664, -2.14961 -2.73975 0.679127, -2.35039 2.64487 0.639134, 
            -2.14961 2.64487 0.639134, -2.35039 2.67077 0.736664, -2.14961 2.71137 0.7117, -2.14961 2.66721 0.737158, 
            -2.14961 3.14961 0, -2.14961 3.14961 0.0984252, -2.14961 2.79098 0.0984252, -2.14961 2.76893 0.000279648, 
            -2.14961 2.69698 0.0547376, -2.14961 2.74031 0.672513, -2.35039 2.79098 0.0984252, -2.35039 2.6961 0.058432, 
            -2.35039 3.14961 0.0984252, -2.35039 3.14961 0, -2.35039 2.76561 0.000641844, -2.35039 2.73975 0.679126, 
            -1.85039 -2.79098 0.0984252, -1.64961 -2.79098 0.0984252, -1.64961 -3.14961 0.0984252, -1.85039 -3.14961 0.0984252, 
            -1.64961 -3.14961 0, -1.85039 -3.14961 0, -1.64961 -2.76561 0.000641848, -1.85039 -2.64487 0.639134, 
            -1.64961 -2.64487 0.639134, -1.85039 -2.71137 0.7117, -1.85039 -2.66721 0.737158, -1.85039 -2.76893 0.000279649, 
            -1.85039 -2.69698 0.0547376, -1.85039 -2.74031 0.672513, -1.64961 -2.6961 0.058432, -1.64961 -2.40157 0.639134, 
            -1.64961 -2.67077 0.736664, -1.64961 -2.73975 0.679126, -1.85039 2.64487 0.639134, -1.64961 2.64487 0.639134, 
            -1.85039 2.67077 0.736664, -1.64961 2.40157 0.737559, -1.64961 2.71137 0.7117, -1.64961 2.66721 0.737158, 
            -1.64961 3.14961 0, -1.64961 3.14961 0.0984252, -1.64961 2.79098 0.0984252, -1.64961 2.76893 0.000279649, 
            -1.64961 2.69698 0.0547376, -1.64961 2.74031 0.672513, -1.85039 2.79098 0.0984252, -1.85039 2.6961 0.058432, 
            -1.85039 3.14961 0.0984252, -1.85039 3.14961 0, -1.85039 2.76561 0.000641848, -1.85039 2.73975 0.679126, 
            -1.35039 -2.79098 0.0984252, -1.14961 -2.79098 0.0984252, -1.14961 -3.14961 0.0984252, -1.35039 -3.14961 0.0984252, 
            -1.14961 -3.14961 0, -1.35039 -3.14961 0, -1.14961 -2.76561 0.000641848, -1.35039 -2.64487 0.639134, 
            -1.14961 -2.64487 0.639134, -1.35039 -2.71137 0.7117, -1.35039 -2.66721 0.737158, -1.35039 -2.76893 0.000279649, 
            -1.35039 -2.69698 0.0547376, -1.35039 -2.74031 0.672513, -1.14961 -2.6961 0.058432, -1.14961 -2.40157 0.639134, 
            -1.14961 -2.67077 0.736664, -1.14961 -2.73975 0.679126, -1.35039 2.64487 0.639134, -1.14961 2.64487 0.639134, 
            -1.35039 2.67077 0.736664, -1.14961 2.71137 0.7117, -1.14961 2.66721 0.737158, -1.14961 3.14961 0, 
            -1.14961 3.14961 0.0984252, -1.14961 2.79098 0.0984252, -1.14961 2.76893 0.000279649, -1.14961 2.69698 0.0547376, 
            -1.14961 2.74031 0.672513, -1.35039 2.79098 0.0984252, -1.35039 2.6961 0.058432, -1.35039 3.14961 0.0984252, 
            -1.35039 3.14961 0, -1.35039 2.76561 0.000641848, -1.35039 2.73975 0.679126, -0.850394 -2.79098 0.0984252, 
            -0.649606 -2.79098 0.0984252, -0.649606 -3.14961 0.0984252, -0.850394 -3.14961 0.0984252, -0.649606 -3.14961 0, 
            -0.850394 -3.14961 0, -0.649606 -2.76561 0.000641848, -0.850394 -2.64487 0.639134, -0.649606 -2.64487 0.639134, 
            -0.850394 -2.71137 0.7117, -0.850394 -2.66721 0.737158, -0.850394 -2.76893 0.000279649, -0.850394 -2.69698 0.0547377, 
            -0.850394 -2.74031 0.672513, -0.649606 -2.6961 0.0584321, -0.649606 -2.67077 0.736664, -0.649606 -2.73975 0.679127, 
            -0.850394 2.64487 0.639134, -0.649606 2.64487 0.639134, -0.850394 2.67077 0.736664, -0.649606 2.40157 0.737559, 
            -0.649606 2.71137 0.7117, -0.649606 2.66721 0.737158, -0.649606 3.14961 0, -0.649606 3.14961 0.0984252, 
            -0.649606 2.79098 0.0984252, -0.649606 2.76893 0.000279649, -0.649606 2.69553 0.0650454, -0.649606 2.72448 0.0258587, 
            -0.649606 2.74031 0.672513, -0.850394 2.79098 0.0984252, -0.850394 2.71412 0.0358733, -0.850394 3.14961 0.0984252, 
            -0.850394 3.14961 0, -0.850394 2.76561 0.000641848, -0.850394 2.73975 0.679126, -0.850394 2.69408 0.0774732, 
            -0.350394 -2.79098 0.0984252, -0.149606 -2.79098 0.0984252, -0.149606 -3.14961 0.0984252, -0.350394 -3.14961 0.0984252, 
            -0.149606 -3.14961 0, -0.350394 -3.14961 0, -0.149606 -2.76561 0.000641842, -0.350394 -2.64487 0.639134, 
            -0.149606 -2.64487 0.639134, -0.350394 -2.71137 0.7117, -0.350394 -2.66721 0.737158, -0.350394 -2.76893 0.000279647, 
            -0.350394 -2.69698 0.0547377, -0.350394 -2.74031 0.672513, -0.149606 -2.6961 0.058432, -0.149606 -2.67077 0.736664, 
            -0.149606 -2.73975 0.679127, -0.350394 2.64487 0.639134, -0.149606 2.64487 0.639134, -0.350394 2.67076 0.736664, 
            -0.149606 2.71137 0.7117, -0.149606 2.66721 0.737158, -0.149606 3.14961 0, -0.149606 3.14961 0.0984252, 
            -0.149606 2.79098 0.0984252, -0.149606 2.76893 0.000279648, -0.149606 2.69698 0.0547377, -0.149606 2.74031 0.672513, 
            -0.350394 2.79098 0.0984252, -0.350394 2.6961 0.058432, -0.350394 3.14961 0.0984252, -0.350394 3.14961 0, 
            -0.350394 2.76561 0.000641845, -0.350394 2.73975 0.679126, 0.149606 -2.79098 0.0984252, 0.350394 -2.79098 0.0984252, 
            0.350394 -3.14961 0.0984252, 0.149606 -3.14961 0.0984252, 0.350394 -3.14961 0, 0.149606 -3.14961 0, 
            0.350394 -2.76561 0.000641842, 0.149606 -2.64487 0.639134, 0.350394 -2.64487 0.639134, 0.149606 -2.71137 0.7117, 
            0.149606 -2.66721 0.737158, 0.149606 -2.76893 0.000279647, 0.149606 -2.69698 0.0547377, 0.149606 -2.74031 0.672513, 
            0.350394 -2.6961 0.058432, 0.350394 -2.67077 0.736664, 0.350394 -2.73975 0.679127, 0.149606 2.64487 0.639134, 
            0.350394 2.64487 0.639134, 0.149606 2.67076 0.736664, 0.350394 2.71137 0.7117, 0.350394 2.66721 0.737158, 
            0.350394 3.14961 0, 0.350394 3.14961 0.0984252, 0.350394 2.79098 0.0984252, 0.350394 2.76893 0.000279648, 
            0.350394 2.69698 0.0547377, 0.350394 2.74031 0.672513, 0.149606 2.79098 0.0984252, 0.149606 2.6961 0.058432, 
            0.149606 3.14961 0.0984252, 0.149606 3.14961 0, 0.149606 2.76561 0.000641845, 0.149606 2.73975 0.679126, 
            0.649606 -2.79098 0.0984252, 0.850394 -2.79098 0.0984252, 0.850394 -3.14961 0.0984252, 0.649606 -3.14961 0.0984252, 
            0.850394 -3.14961 0, 0.649606 -3.14961 0, 0.850394 -2.76561 0.000641848, 0.649606 -2.64487 0.639134, 
            0.850394 -2.64487 0.639134, 0.649606 -2.71137 0.7117, 0.649606 -2.66721 0.737158, 0.649606 -2.76893 0.000279649, 
            0.649606 -2.69698 0.0547377, 0.649606 -2.74031 0.672513, 0.850394 -2.71412 0.0358733, 0.850394 -2.67077 0.736664, 
            0.850394 -2.73975 0.679127, 0.850394 -2.69408 0.0774727, 0.649606 2.64487 0.639134, 0.850394 2.64487 0.639134, 
            0.649606 2.67077 0.736664, 0.850394 2.71137 0.7117, 0.850394 2.66721 0.737158, 0.850394 3.14961 0, 
            0.850394 3.14961 0.0984252, 0.850394 2.79098 0.0984252, 0.850394 2.76893 0.000279649, 0.850394 2.69553 0.0650454, 
            0.850394 2.72448 0.0258587, 0.850394 2.74031 0.672513, 0.649606 2.79098 0.0984252, 0.649606 2.71412 0.0358733, 
            0.649606 3.14961 0.0984252, 0.649606 3.14961 0, 0.649606 2.76561 0.000641848, 0.649606 2.73975 0.679126, 
            0.649606 2.69408 0.0774732, 1.14961 -2.79098 0.0984252, 1.35039 -2.79098 0.0984252, 1.35039 -3.14961 0.0984252, 
            1.14961 -3.14961 0.0984252, 1.35039 -3.14961 0, 1.14961 -3.14961 0, 1.35039 -2.76561 0.000641848, 
            1.14961 -2.64487 0.639134, 1.35039 -2.64487 0.639134, 1.14961 -2.71137 0.7117, 1.14961 -2.66721 0.737158, 
            1.14961 -2.76893 0.000279649, 1.14961 -2.69698 0.0547376, 1.14961 -2.74031 0.672513, 1.35039 -2.6961 0.058432, 
            1.35039 -2.67077 0.736664, 1.35039 -2.73975 0.679126, 1.14961 2.64487 0.639134, 1.35039 2.64487 0.639134, 
            1.14961 2.67077 0.736664, 1.35039 2.40157 0.737559, 1.35039 2.71137 0.7117, 1.35039 2.66721 0.737158, 
            1.35039 3.14961 0, 1.35039 3.14961 0.0984252, 1.35039 2.79098 0.0984252, 1.35039 2.76893 0.000279649, 
            1.35039 2.69698 0.0547376, 1.35039 2.74031 0.672513, 1.14961 2.79098 0.0984252, 1.14961 2.6961 0.058432, 
            1.14961 3.14961 0.0984252, 1.14961 3.14961 0, 1.14961 2.76561 0.000641848, 1.14961 2.73975 0.679126, 
            1.64961 -2.79098 0.0984252, 1.85039 -2.79098 0.0984252, 1.85039 -3.14961 0.0984252, 1.64961 -3.14961 0.0984252, 
            1.85039 -3.14961 0, 1.64961 -3.14961 0, 1.85039 -2.76561 0.000641848, 1.64961 -2.64487 0.639134, 
            1.85039 -2.64487 0.639134, 1.64961 -2.71137 0.7117, 1.64961 -2.66721 0.737158, 1.64961 -2.76893 0.000279649, 
            1.64961 -2.69698 0.0547376, 1.64961 -2.74031 0.672513, 1.85039 -2.6961 0.058432, 1.85039 -2.40157 0.639134, 
            1.85039 -2.67077 0.736664, 1.85039 -2.73975 0.679126, 1.64961 2.64487 0.639134, 1.85039 2.64487 0.639134, 
            1.64961 2.67077 0.736664, 1.85039 2.71137 0.7117, 1.85039 2.66721 0.737158, 1.85039 3.14961 0, 
            1.85039 3.14961 0.0984252, 1.85039 2.79098 0.0984252, 1.85039 2.76893 0.000279649, 1.85039 2.69698 0.0547376, 
            1.85039 2.74031 0.672513, 1.64961 2.79098 0.0984252, 1.64961 2.6961 0.058432, 1.64961 3.14961 0.0984252, 
            1.64961 3.14961 0, 1.64961 2.76561 0.000641848, 1.64961 2.73975 0.679126, 2.14961 -2.79098 0.0984252, 
            2.35039 -2.79098 0.0984252, 2.35039 -3.14961 0.0984252, 2.14961 -3.14961 0.0984252, 2.35039 -3.14961 0, 
            2.14961 -3.14961 0, 2.35039 -2.76561 0.000641844, 2.14961 -2.64487 0.639134, 2.35039 -2.64487 0.639134, 
            2.14961 -2.71137 0.7117, 2.14961 -2.66721 0.737158, 2.14961 -2.76893 0.000279648, 2.14961 -2.69698 0.0547376, 
            2.14961 -2.74031 0.672513, 2.35039 -2.6961 0.058432, 2.35039 -2.40157 0.639134, 2.35039 -2.67077 0.736664, 
            2.35039 -2.73975 0.679127, 2.14961 2.64487 0.639134, 2.35039 2.64487 0.639134, 2.14961 2.67077 0.736664, 
            2.35039 2.71137 0.7117, 2.35039 2.66721 0.737158, 2.35039 3.14961 0, 2.35039 3.14961 0.0984252, 
            2.35039 2.79098 0.0984252, 2.35039 2.76893 0.000279648, 2.35039 2.69698 0.0547376, 2.35039 2.74031 0.672513, 
            2.14961 2.79098 0.0984252, 2.14961 2.6961 0.058432, 2.14961 3.14961 0.0984252, 2.14961 3.14961 0, 
            2.14961 2.76561 0.000641844, 2.14961 2.73975 0.679126, 2.64961 -2.79098 0.0984252, 2.85039 -2.79098 0.0984252, 
            2.85039 -3.14961 0.0984252, 2.64961 -3.14961 0.0984252, 2.85039 -3.14961 0, 2.64961 -3.14961 0, 
            2.85039 -2.76561 0.000641844, 2.64961 -2.64487 0.639134, 2.85039 -2.64487 0.639134, 2.64961 -2.71137 0.7117, 
            2.64961 -2.66721 0.737158, 2.64961 -2.76893 0.000279648, 2.64961 -2.69698 0.0547376, 2.64961 -2.74031 0.672513, 
            2.85039 -2.6961 0.058432, 2.85039 -2.67077 0.736664, 2.85039 -2.73975 0.679127, 2.64961 2.64487 0.639134, 
            2.85039 2.64487 0.639134, 2.64961 2.67077 0.736664, 2.85039 2.71137 0.7117, 2.85039 2.66721 0.737158, 
            2.85039 3.14961 0, 2.85039 3.14961 0.0984252, 2.85039 2.79098 0.0984252, 2.85039 2.76893 0.000279648, 
            2.85039 2.69698 0.0547376, 2.85039 2.74031 0.672513, 2.64961 2.79098 0.0984252, 2.64961 2.6961 0.058432, 
            2.64961 3.14961 0.0984252, 2.64961 3.14961 0, 2.64961 2.76561 0.000641844, 2.64961 2.73975 0.679126, 
            -2.55664 -1.83549 2.16535, -2.53265 -1.77757 2.16535, -2.52447 -1.71541 2.16535, -2.53265 -1.65325 2.16535, 
            -2.70247 -1.94739 2.16535, -2.64454 -1.92339 2.16535, -2.59481 -1.88523 2.16535, -2.8847 -1.92339 2.16535, 
            -2.82678 -1.94739 2.16535, -2.76462 -1.95557 2.16535, -2.9966 -1.77757 2.16535, -2.97261 -1.83549 2.16535, 
            -2.93444 -1.88523 2.16535, -2.97261 -1.59533 2.16535, -2.9966 -1.65325 2.16535, -3.00478 -1.71541 2.16535, 
            -2.82678 -1.48344 2.16535, -2.8847 -1.50743 2.16535, -2.93444 -1.54559 2.16535, -2.64454 -1.50743 2.16535, 
            -2.70247 -1.48344 2.16535, -2.76462 -1.47525 2.16535, -2.55664 -1.59533 2.16535, -2.59481 -1.54559 2.16535, 
            -3.37205 2.40157 2.09055, -3.39233 2.3989 2.11087, -3.41142 2.39103 2.09055, -3.42773 2.37851 2.09055, 
            -3.44024 2.3622 2.09055, -3.4481 2.34321 2.09055, 3.37205 2.39889 2.11093, 3.37205 2.40157 2.09055, 
            -3.37205 2.39103 2.12992, 3.37205 2.39103 2.12992, -3.37205 2.37851 2.14623, 3.37205 2.37851 2.14623, 
            -3.37205 2.3622 2.15874, 3.37205 2.3622 2.15874, -3.37205 2.34321 2.16661, 3.37205 2.34321 2.16661, 
            3.39243 2.39889 2.09055, 3.41142 2.39103 2.09055, 3.42773 2.37851 2.09055, 3.44024 2.3622 2.09055, 
            3.44811 2.34311 2.11085, 3.37205 2.40157 0.0984252, -3.4481 2.32283 2.11093, -3.42512 2.37431 2.13224, 
            -3.39243 2.32283 2.16661, -3.40391 2.35206 2.15917, -3.41142 2.32283 2.15874, -3.42773 2.32283 2.14623, 
            -3.44024 2.32283 2.12992, 3.39243 2.32283 2.16661, 3.40779 2.37563 2.1473, 3.41142 2.32283 2.15874, 
            3.42773 2.32283 2.14623, 3.44024 2.32283 2.12992, 3.4346 2.35551 2.13218, -3.37205 -2.40157 0.0984252, 
            -3.44811 -2.34311 2.11085, -3.44024 -2.3622 2.09055, -3.42773 -2.37851 2.09055, -3.41142 -2.39103 2.09055, 
            -3.39243 -2.39889 2.09055, -3.44024 -2.32283 2.12992, -3.42773 -2.32283 2.14623, -3.41142 -2.32283 2.15874, 
            -3.39243 -2.32283 2.16661, 3.4481 -2.32283 2.11093, 3.44024 -2.32283 2.12992, 3.42773 -2.32283 2.14623, 
            3.41142 -2.32283 2.15874, 3.39243 -2.32283 2.16661, 3.37204 -2.40154 2.09055, 3.41142 -2.39103 2.09055, 
            3.43309 -2.37153 2.09055, 3.42772 -2.37851 2.09055, 3.4483 -2.34176 2.09055, 3.44299 -2.357 0.0984252, 
            3.44136 -2.3595 2.09055, 3.44881 -2.34036 0.0984252, -3.37205 -2.39889 2.11093, -3.37205 -2.34321 2.16661, 
            -3.40779 -2.37563 2.1473, -3.37205 -2.3622 2.15874, -3.37205 -2.37851 2.14623, -3.37205 -2.39103 2.12992, 
            -3.4346 -2.35551 2.13218, 3.39458 -2.39805 2.10542, 3.43812 -2.3628 2.11244, 3.41856 -2.36734 2.14441, 
            3.40391 -2.35206 2.15917, 3.37205 -2.39889 2.11093, 3.37205 -2.39103 2.12992, 3.37205 -2.37851 2.14623, 
            3.37205 -2.3622 2.15874, 3.37205 -2.34321 2.16661, -3.37205 -2.40157 2.09055, -2.99644 -1.65329 2.16601, 
            -2.97247 -1.59541 2.16601, -2.93433 -1.54571 2.16601, -2.88462 -1.50757 2.16601, -2.82674 -1.48359 2.16601, 
            -2.76462 -1.47541 2.16601, -2.70251 -1.48359 2.16601, -2.64462 -1.50757 2.16601, -2.59492 -1.54571 2.16601, 
            -2.55678 -1.59541 2.16601, -2.5328 -1.65329 2.16601, -2.52463 -1.71541 2.16601, -2.5328 -1.77753 2.16601, 
            -2.55678 -1.83541 2.16601, -2.59492 -1.88512 2.16601, -2.64463 -1.92325 2.16601, -2.70251 -1.94723 2.16601, 
            -2.76462 -1.95541 2.16601, -2.82674 -1.94723 2.16601, -2.88462 -1.92325 2.16601, -2.93433 -1.88511 2.16601, 
            -2.99385 -1.84776 2.16993, -2.99644 -1.77752 2.16601, -3.00462 -1.71541 2.16601
          ]
        }
        color Color
        {
          color
          [
            0.054902 0.054902 0.054902, 0.054902 0.054902 0.054902, 0.054902 0.054902 0.054902, 0.054902 0.054902 0.054902, 
            0.054902 0.054902 0.054902, 0.054902 0.054902 0.054902, 0.054902 0.054902 0.054902, 0.054902 0.054902 0.054902, 
            0.054902 0.054902 0.054902, 0.054902 0.054902 0.054902, 0.054902 0.054902 0.054902, 0.054902 0.054902 0.054902, 
            0.054902 0.054902 0.054902, 0.054902 0.054902 0.054902, 0.054902 0.054902 0.054902, 0.054902 0.054902 0.054902, 
            0.054902 0.054902 0.054902, 0.054902 0.054902 0.054902, 0.054902 0.054902 0.054902, 0.054902 0.054902 0.054902, 
            0.054902 0.054902 0.054902, 0.054902 0.054902 0.054902, 0.054902 0.054902 0.054902, 0.054902 0.054902 0.054902, 
            0.054902 0.054902 0.054902, 0.054902 0.054902 0.054902, 0.054902 0.054902 0.054902, 0.054902 0.054902 0.054902, 
            0.054902 0.054902 0.054902, 0.054902 0.054902 0.054902, 0.054902 0.054902 0.054902, 0.054902 0.054902 0.054902, 
            0.054902 0.054902 0.054902, 0.054902 0.054902 0.054902, 0.054902 0.054902 0.054902, 0.054902 0.054902 0.054902, 
            0.054902 0.054902 0.054902, 0.054902 0.054902 0.054902, 0.054902 0.054902 0.054902, 0.054902 0.054902 0.054902, 
            0.054902 0.054902 0.054902, 0.054902 0.054902 0.054902, 0.054902 0.054902 0.054902, 0.054902 0.054902 0.054902, 
            0.054902 0.054902 0.054902, 0.054902 0.054902 0.054902, 0.054902 0.054902 0.054902, 0.054902 0.054902 0.054902, 
            0.054902 0.054902 0.054902, 0.054902 0.054902 0.054902, 0.054902 0.054902 0.054902, 0.054902 0.054902 0.054902, 
            0.054902 0.054902 0.054902, 0.054902 0.054902 0.054902, 0.054902 0.054902 0.054902, 0.054902 0.054902 0.054902, 
            0.054902 0.054902 0.054902, 0.054902 0.054902 0.054902, 0.054902 0.054902 0.054902, 0.054902 0.054902 0.054902, 
            0.054902 0.054902 0.054902, 0.054902 0.054902 0.054902, 0.054902 0.054902 0.054902, 0.054902 0.054902 0.054902, 
            0.054902 0.054902 0.054902, 0.054902 0.054902 0.054902, 0.054902 0.054902 0.054902, 0.054902 0.054902 0.054902, 
            0.054902 0.054902 0.054902, 0.054902 0.054902 0.054902, 0.054902 0.054902 0.054902, 0.054902 0.054902 0.054902, 
            0.054902 0.054902 0.054902, 0.054902 0.054902 0.054902, 0.054902 0.054902 0.054902, 0.054902 0.054902 0.054902, 
            0.054902 0.054902 0.054902, 0.054902 0.054902 0.054902, 0.054902 0.054902 0.054902, 0.054902 0.054902 0.054902, 
            0.054902 0.054902 0.054902, 0.054902 0.054902 0.054902, 0.054902 0.054902 0.054902, 0.054902 0.054902 0.054902, 
            0.054902 0.054902 0.054902, 0.054902 0.054902 0.054902, 0.054902 0.054902 0.054902, 0.054902 0.054902 0.054902, 
            0.054902 0.054902 0.054902, 0.054902 0.054902 0.054902, 0.054902 0.054902 0.054902, 0.054902 0.054902 0.054902, 
            0.054902 0.054902 0.054902, 0.054902 0.054902 0.054902, 0.054902 0.054902 0.054902, 0.054902 0.054902 0.054902, 
            0.054902 0.054902 0.054902, 0.054902 0.054902 0.054902, 0.054902 0.054902 0.054902, 0.054902 0.054902 0.054902, 
            0.054902 0.054902 0.054902, 0.054902 0.054902 0.054902, 0.054902 0.054902 0.054902, 0.054902 0.054902 0.054902, 
            0.054902 0.054902 0.054902, 0.054902 0.054902 0.054902, 0.054902 0.054902 0.054902, 0.054902 0.054902 0.054902, 
            0.054902 0.054902 0.054902, 0.054902 0.054902 0.054902, 0.054902 0.054902 0.054902, 0.054902 0.054902 0.054902, 
            0.054902 0.054902 0.054902, 0.054902 0.054902 0.054902, 0.054902 0.054902 0.054902, 0.054902 0.054902 0.054902, 
            0.054902 0.054902 0.054902, 0.054902 0.054902 0.054902, 0.054902 0.054902 0.054902, 0.054902 0.054902 0.054902, 
            0.054902 0.054902 0.054902, 0.054902 0.054902 0.054902, 0.054902 0.054902 0.054902, 0.054902 0.054902 0.054902, 
            0.054902 0.054902 0.054902, 0.054902 0.054902 0.054902, 0.054902 0.054902 0.054902, 0.054902 0.054902 0.054902, 
            0.054902 0.054902 0.054902, 0.054902 0.054902 0.054902, 0.054902 0.054902 0.054902, 0.054902 0.054902 0.054902, 
            0.054902 0.054902 0.054902, 0.054902 0.054902 0.054902, 0.054902 0.054902 0.054902, 0.054902 0.054902 0.054902, 
            0.054902 0.054902 0.054902, 0.054902 0.054902 0.054902, 0.054902 0.054902 0.054902, 0.054902 0.054902 0.054902, 
            0.054902 0.054902 0.054902, 0.054902 0.054902 0.054902, 0.054902 0.054902 0.054902, 0.054902 0.054902 0.054902, 
            0.054902 0.054902 0.054902, 0.054902 0.054902 0.054902, 0.054902 0.054902 0.054902, 0.054902 0.054902 0.054902, 
            0.054902 0.054902 0.054902, 0.054902 0.054902 0.054902, 0.054902 0.054902 0.054902, 0.054902 0.054902 0.054902, 
            0.054902 0.054902 0.054902, 0.054902 0.054902 0.054902, 0.054902 0.054902 0.054902, 0.054902 0.054902 0.054902, 
            0.054902 0.054902 0.054902, 0.054902 0.054902 0.054902, 0.054902 0.054902 0.054902, 0.054902 0.054902 0.054902, 
            0.054902 0.054902 0.054902, 0.054902 0.054902 0.054902, 0.054902 0.054902 0.054902, 0.054902 0.054902 0.054902, 
            0.054902 0.054902 0.054902, 0.054902 0.054902 0.054902, 0.054902 0.054902 0.054902, 0.054902 0.054902 0.054902, 
            0.054902 0.054902 0.054902, 0.054902 0.054902 0.054902, 0.054902 0.054902 0.054902, 0.698039 0.698039 0.698039, 
            0.698039 0.698039 0.698039, 0.698039 0.698039 0.698039, 0.698039 0.698039 0.698039, 0.698039 0.698039 0.698039, 
            0.698039 0.698039 0.698039, 0.698039 0.698039 0.698039, 0.698039 0.698039 0.698039, 0.698039 0.698039 0.698039, 
            0.698039 0.698039 0.698039, 0.698039 0.698039 0.698039, 0.698039 0.698039 0.698039, 0.698039 0.698039 0.698039, 
            0.698039 0.698039 0.698039, 0.698039 0.698039 0.698039, 0.698039 0.698039 0.698039, 0.698039 0.698039 0.698039, 
            0.698039 0.698039 0.698039, 0.698039 0.698039 0.698039, 0.698039 0.698039 0.698039, 0.698039 0.698039 0.698039, 
            0.698039 0.698039 0.698039, 0.698039 0.698039 0.698039, 0.698039 0.698039 0.698039, 0.698039 0.698039 0.698039, 
            0.698039 0.698039 0.698039, 0.698039 0.698039 0.698039, 0.698039 0.698039 0.698039, 0.698039 0.698039 0.698039, 
            0.698039 0.698039 0.698039, 0.698039 0.698039 0.698039, 0.698039 0.698039 0.698039, 0.698039 0.698039 0.698039, 
            0.698039 0.698039 0.698039, 0.698039 0.698039 0.698039, 0.698039 0.698039 0.698039, 0.698039 0.698039 0.698039, 
            0.698039 0.698039 0.698039, 0.698039 0.698039 0.698039, 0.698039 0.698039 0.698039, 0.698039 0.698039 0.698039, 
            0.698039 0.698039 0.698039, 0.698039 0.698039 0.698039, 0.698039 0.698039 0.698039, 0.698039 0.698039 0.698039, 
            0.698039 0.698039 0.698039, 0.698039 0.698039 0.698039, 0.698039 0.698039 0.698039, 0.698039 0.698039 0.698039, 
            0.698039 0.698039 0.698039, 0.698039 0.698039 0.698039, 0.698039 0.698039 0.698039, 0.698039 0.698039 0.698039, 
            0.698039 0.698039 0.698039, 0.698039 0.698039 0.698039, 0.698039 0.698039 0.698039, 0.698039 0.698039 0.698039, 
            0.698039 0.698039 0.698039, 0.698039 0.698039 0.698039, 0.698039 0.698039 0.698039, 0.698039 0.698039 0.698039, 
            0.698039 0.698039 0.698039, 0.698039 0.698039 0.698039, 0.698039 0.698039 0.698039, 0.698039 0.698039 0.698039, 
            0.698039 0.698039 0.698039, 0.698039 0.698039 0.698039, 0.698039 0.698039 0.698039, 0.698039 0.698039 0.698039, 
            0.698039 0.698039 0.698039, 0.698039 0.698039 0.698039, 0.698039 0.698039 0.698039, 0.698039 0.698039 0.698039, 
            0.698039 0.698039 0.698039, 0.698039 0.698039 0.698039, 0.698039 0.698039 0.698039, 0.698039 0.698039 0.698039, 
            0.698039 0.698039 0.698039, 0.698039 0.698039 0.698039, 0.698039 0.698039 0.698039, 0.698039 0.698039 0.698039, 
            0.698039 0.698039 0.698039, 0.698039 0.698039 0.698039, 0.698039 0.698039 0.698039, 0.698039 0.698039 0.698039, 
            0.698039 0.698039 0.698039, 0.698039 0.698039 0.698039, 0.698039 0.698039 0.698039, 0.698039 0.698039 0.698039, 
            0.698039 0.698039 0.698039, 0.698039 0.698039 0.698039, 0.698039 0.698039 0.698039, 0.698039 0.698039 0.698039, 
            0.698039 0.698039 0.698039, 0.698039 0.698039 0.698039, 0.698039 0.698039 0.698039, 0.698039 0.698039 0.698039, 
            0.698039 0.698039 0.698039, 0.698039 0.698039 0.698039, 0.698039 0.698039 0.698039, 0.698039 0.698039 0.698039, 
            0.698039 0.698039 0.698039, 0.698039 0.698039 0.698039, 0.698039 0.698039 0.698039, 0.698039 0.698039 0.698039, 
            0.698039 0.698039 0.698039, 0.698039 0.698039 0.698039, 0.698039 0.698039 0.698039, 0.698039 0.698039 0.698039, 
            0.698039 0.698039 0.698039, 0.698039 0.698039 0.698039, 0.698039 0.698039 0.698039, 0.698039 0.698039 0.698039, 
            0.698039 0.698039 0.698039, 0.698039 0.698039 0.698039, 0.698039 0.698039 0.698039, 0.698039 0.698039 0.698039, 
            0.698039 0.698039 0.698039, 0.698039 0.698039 0.698039, 0.698039 0.698039 0.698039, 0.698039 0.698039 0.698039, 
            0.698039 0.698039 0.698039, 0.698039 0.698039 0.698039, 0.698039 0.698039 0.698039, 0.698039 0.698039 0.698039, 
            0.698039 0.698039 0.698039, 0.698039 0.698039 0.698039, 0.698039 0.698039 0.698039, 0.698039 0.698039 0.698039, 
            0.698039 0.698039 0.698039, 0.698039 0.698039 0.698039, 0.698039 0.698039 0.698039, 0.698039 0.698039 0.698039, 
            0.698039 0.698039 0.698039, 0.698039 0.698039 0.698039, 0.698039 0.698039 0.698039, 0.698039 0.698039 0.698039, 
            0.698039 0.698039 0.698039, 0.698039 0.698039 0.698039, 0.698039 0.698039 0.698039, 0.698039 0.698039 0.698039, 
            0.698039 0.698039 0.698039, 0.698039 0.698039 0.698039, 0.698039 0.698039 0.698039, 0.698039 0.698039 0.698039, 
            0.698039 0.698039 0.698039, 0.698039 0.698039 0.698039, 0.698039 0.698039 0.698039, 0.698039 0.698039 0.698039, 
            0.698039 0.698039 0.698039, 0.698039 0.698039 0.698039, 0.698039 0.698039 0.698039, 0.698039 0.698039 0.698039, 
            0.698039 0.698039 0.698039, 0.698039 0.698039 0.698039, 0.698039 0.698039 0.698039, 0.698039 0.698039 0.698039, 
            0.698039 0.698039 0.698039, 0.698039 0.698039 0.698039, 0.698039 0.698039 0.698039, 0.698039 0.698039 0.698039, 
            0.698039 0.698039 0.698039, 0.698039 0.698039 0.698039, 0.698039 0.698039 0.698039, 0.698039 0.698039 0.698039, 
            0.698039 0.698039 0.698039, 0.698039 0.698039 0.698039, 0.698039 0.698039 0.698039, 0.698039 0.698039 0.698039, 
            0.698039 0.698039 0.698039, 0.698039 0.698039 0.698039, 0.698039 0.698039 0.698039, 0.698039 0.698039 0.698039, 
            0.698039 0.698039 0.698039, 0.698039 0.698039 0.698039, 0.698039 0.698039 0.698039, 0.698039 0.698039 0.698039, 
            0.698039 0.698039 0.698039, 0.698039 0.698039 0.698039, 0.698039 0.698039 0.698039, 0.698039 0.698039 0.698039, 
            0.698039 0.698039 0.698039, 0.698039 0.698039 0.698039, 0.698039 0.698039 0.698039, 0.698039 0.698039 0.698039, 
            0.698039 0.698039 0.698039, 0.698039 0.698039 0.698039, 0.698039 0.698039 0.698039, 0.698039 0.698039 0.698039, 
            0.698039 0.698039 0.698039, 0.698039 0.698039 0.698039, 0.698039 0.698039 0.698039, 0.698039 0.698039 0.698039, 
            0.698039 0.698039 0.698039, 0.698039 0.698039 0.698039, 0.698039 0.698039 0.698039, 0.698039 0.698039 0.698039, 
            0.698039 0.698039 0.698039, 0.698039 0.698039 0.698039, 0.698039 0.698039 0.698039, 0.698039 0.698039 0.698039, 
            0.698039 0.698039 0.698039, 0.698039 0.698039 0.698039, 0.698039 0.698039 0.698039, 0.698039 0.698039 0.698039, 
            0.698039 0.698039 0.698039, 0.698039 0.698039 0.698039, 0.698039 0.698039 0.698039, 0.698039 0.698039 0.698039, 
            0.698039 0.698039 0.698039, 0.698039 0.698039 0.698039, 0.698039 0.698039 0.698039, 0.698039 0.698039 0.698039, 
            0.698039 0.698039 0.698039, 0.698039 0.698039 0.698039, 0.698039 0.698039 0.698039, 0.698039 0.698039 0.698039, 
            0.698039 0.698039 0.698039, 0.698039 0.698039 0.698039, 0.698039 0.698039 0.698039, 0.698039 0.698039 0.698039, 
            0.698039 0.698039 0.698039, 0.698039 0.698039 0.698039, 0.698039 0.698039 0.698039, 0.698039 0.698039 0.698039, 
            0.698039 0.698039 0.698039, 0.698039 0.698039 0.698039, 0.698039 0.698039 0.698039, 0.698039 0.698039 0.698039, 
            0.698039 0.698039 0.698039, 0.698039 0.698039 0.698039, 0.698039 0.698039 0.698039, 0.698039 0.698039 0.698039, 
            0.698039 0.698039 0.698039, 0.698039 0.698039 0.698039, 0.698039 0.698039 0.698039, 0.698039 0.698039 0.698039, 
            0.698039 0.698039 0.698039, 0.698039 0.698039 0.698039, 0.698039 0.698039 0.698039, 0.698039 0.698039 0.698039, 
            0.698039 0.698039 0.698039, 0.698039 0.698039 0.698039, 0.698039 0.698039 0.698039, 0.698039 0.698039 0.698039, 
            0.698039 0.698039 0.698039, 0.698039 0.698039 0.698039, 0.698039 0.698039 0.698039, 0.698039 0.698039 0.698039, 
            0.698039 0.698039 0.698039, 0.698039 0.698039 0.698039, 0.698039 0.698039 0.698039, 0.698039 0.698039 0.698039, 
            0.698039 0.698039 0.698039, 0.698039 0.698039 0.698039, 0.698039 0.698039 0.698039, 0.698039 0.698039 0.698039, 
            0.698039 0.698039 0.698039, 0.698039 0.698039 0.698039, 0.698039 0.698039 0.698039, 0.698039 0.698039 0.698039, 
            0.698039 0.698039 0.698039, 0.698039 0.698039 0.698039, 0.698039 0.698039 0.698039, 0.698039 0.698039 0.698039, 
            0.698039 0.698039 0.698039, 0.698039 0.698039 0.698039, 0.698039 0.698039 0.698039, 0.698039 0.698039 0.698039, 
            0.698039 0.698039 0.698039, 0.698039 0.698039 0.698039, 0.698039 0.698039 0.698039, 0.698039 0.698039 0.698039, 
            0.698039 0.698039 0.698039, 0.698039 0.698039 0.698039, 0.698039 0.698039 0.698039, 0.698039 0.698039 0.698039, 
            0.698039 0.698039 0.698039, 0.698039 0.698039 0.698039, 0.698039 0.698039 0.698039, 0.698039 0.698039 0.698039, 
            0.698039 0.698039 0.698039, 0.698039 0.698039 0.698039, 0.698039 0.698039 0.698039, 0.698039 0.698039 0.698039, 
            0.698039 0.698039 0.698039, 0.698039 0.698039 0.698039, 0.698039 0.698039 0.698039, 0.698039 0.698039 0.698039, 
            0.698039 0.698039 0.698039, 0.698039 0.698039 0.698039, 0.698039 0.698039 0.698039, 0.698039 0.698039 0.698039, 
            0.698039 0.698039 0.698039, 0.698039 0.698039 0.698039, 0.698039 0.698039 0.698039, 0.698039 0.698039 0.698039, 
            0.698039 0.698039 0.698039, 0.698039 0.698039 0.698039, 0.698039 0.698039 0.698039, 0.698039 0.698039 0.698039, 
            0.698039 0.698039 0.698039, 0.698039 0.698039 0.698039, 0.698039 0.698039 0.698039, 0.698039 0.698039 0.698039, 
            0.698039 0.698039 0.698039, 0.698039 0.698039 0.698039, 0.698039 0.698039 0.698039, 0.698039 0.698039 0.698039, 
            0.698039 0.698039 0.698039, 0.698039 0.698039 0.698039, 0.698039 0.698039 0.698039, 0.698039 0.698039 0.698039, 
            0.698039 0.698039 0.698039, 0.698039 0.698039 0.698039, 0.698039 0.698039 0.698039, 0.698039 0.698039 0.698039, 
            0.698039 0.698039 0.698039, 0.698039 0.698039 0.698039, 0.698039 0.698039 0.698039, 0.698039 0.698039 0.698039, 
            0.698039 0.698039 0.698039, 0.698039 0.698039 0.698039, 0.698039 0.698039 0.698039, 0.698039 0.698039 0.698039, 
            0.698039 0.698039 0.698039, 0.698039 0.698039 0.698039, 0.698039 0.698039 0.698039, 0.698039 0.698039 0.698039, 
            0.698039 0.698039 0.698039, 0.698039 0.698039 0.698039, 0.698039 0.698039 0.698039, 0.698039 0.698039 0.698039, 
            0.698039 0.698039 0.698039, 0.698039 0.698039 0.698039, 0.698039 0.698039 0.698039, 0.698039 0.698039 0.698039, 
            0.698039 0.698039 0.698039, 0.698039 0.698039 0.698039, 0.698039 0.698039 0.698039, 0.698039 0.698039 0.698039, 
            0.698039 0.698039 0.698039, 0.698039 0.698039 0.698039, 0.698039 0.698039 0.698039, 0.698039 0.698039 0.698039, 
            0.698039 0.698039 0.698039, 0.698039 0.698039 0.698039, 0.698039 0.698039 0.698039, 0.698039 0.698039 0.698039, 
            0.698039 0.698039 0.698039, 0.698039 0.698039 0.698039, 0.698039 0.698039 0.698039, 0.698039 0.698039 0.698039, 
            0.698039 0.698039 0.698039, 0.698039 0.698039 0.698039, 0.698039 0.698039 0.698039, 0.698039 0.698039 0.698039, 
            0.698039 0.698039 0.698039, 0.698039 0.698039 0.698039, 0.698039 0.698039 0.698039, 0.698039 0.698039 0.698039, 
            0.698039 0.698039 0.698039, 0.698039 0.698039 0.698039, 0.698039 0.698039 0.698039, 0.698039 0.698039 0.698039, 
            0.698039 0.698039 0.698039, 0.698039 0.698039 0.698039, 0.698039 0.698039 0.698039, 0.698039 0.698039 0.698039, 
            0.698039 0.698039 0.698039, 0.698039 0.698039 0.698039, 0.698039 0.698039 0.698039, 0.698039 0.698039 0.698039, 
            0.698039 0.698039 0.698039, 0.698039 0.698039 0.698039, 0.698039 0.698039 0.698039, 0.698039 0.698039 0.698039, 
            0.698039 0.698039 0.698039, 0.698039 0.698039 0.698039, 0.698039 0.698039 0.698039, 0.698039 0.698039 0.698039, 
            0.698039 0.698039 0.698039, 0.698039 0.698039 0.698039, 0.698039 0.698039 0.698039, 0.698039 0.698039 0.698039, 
            0.698039 0.698039 0.698039, 0.698039 0.698039 0.698039, 0.698039 0.698039 0.698039, 0.698039 0.698039 0.698039, 
            0.698039 0.698039 0.698039, 0.698039 0.698039 0.698039, 0.698039 0.698039 0.698039, 0.698039 0.698039 0.698039, 
            0.698039 0.698039 0.698039, 0.698039 0.698039 0.698039, 0.698039 0.698039 0.698039, 0.698039 0.698039 0.698039, 
            0.698039 0.698039 0.698039, 0.698039 0.698039 0.698039, 0.698039 0.698039 0.698039, 0.698039 0.698039 0.698039, 
            0.698039 0.698039 0.698039, 0.698039 0.698039 0.698039, 0.698039 0.698039 0.698039, 0.698039 0.698039 0.698039, 
            0.698039 0.698039 0.698039, 0.698039 0.698039 0.698039, 0.698039 0.698039 0.698039, 0.698039 0.698039 0.698039, 
            0.698039 0.698039 0.698039, 0.698039 0.698039 0.698039, 0.698039 0.698039 0.698039, 0.698039 0.698039 0.698039, 
            0.698039 0.698039 0.698039, 0.698039 0.698039 0.698039, 0.698039 0.698039 0.698039, 0.698039 0.698039 0.698039, 
            0.698039 0.698039 0.698039, 0.698039 0.698039 0.698039, 0.698039 0.698039 0.698039, 0.698039 0.698039 0.698039, 
            0.14902 0.14902 0.14902, 0.14902 0.14902 0.14902, 0.14902 0.14902 0.14902, 0.14902 0.14902 0.14902, 
            0.14902 0.14902 0.14902, 0.14902 0.14902 0.14902, 0.14902 0.14902 0.14902, 0.14902 0.14902 0.14902, 
            0.14902 0.14902 0.14902, 0.14902 0.14902 0.14902, 0.14902 0.14902 0.14902, 0.14902 0.14902 0.14902, 
            0.14902 0.14902 0.14902, 0.14902 0.14902 0.14902, 0.14902 0.14902 0.14902, 0.14902 0.14902 0.14902, 
            0.14902 0.14902 0.14902, 0.14902 0.14902 0.14902, 0.14902 0.14902 0.14902, 0.14902 0.14902 0.14902, 
            0.14902 0.14902 0.14902, 0.14902 0.14902 0.14902, 0.14902 0.14902 0.14902, 0.14902 0.14902 0.14902, 
            0.054902 0.054902 0.054902, 0.054902 0.054902 0.054902, 0.054902 0.054902 0.054902, 0.054902 0.054902 0.054902, 
            0.054902 0.054902 0.054902, 0.054902 0.054902 0.054902, 0.054902 0.054902 0.054902, 0.054902 0.054902 0.054902, 
            0.054902 0.054902 0.054902, 0.054902 0.054902 0.054902, 0.054902 0.054902 0.054902, 0.054902 0.054902 0.054902, 
            0.054902 0.054902 0.054902, 0.054902 0.054902 0.054902, 0.054902 0.054902 0.054902, 0.054902 0.054902 0.054902, 
            0.054902 0.054902 0.054902, 0.054902 0.054902 0.054902, 0.054902 0.054902 0.054902, 0.054902 0.054902 0.054902, 
            0.054902 0.054902 0.054902, 0.054902 0.054902 0.054902, 0.054902 0.054902 0.054902, 0.054902 0.054902 0.054902, 
            0.054902 0.054902 0.054902, 0.054902 0.054902 0.054902, 0.054902 0.054902 0.054902, 0.054902 0.054902 0.054902, 
            0.054902 0.054902 0.054902, 0.054902 0.054902 0.054902, 0.054902 0.054902 0.054902, 0.054902 0.054902 0.054902, 
            0.054902 0.054902 0.054902, 0.054902 0.054902 0.054902, 0.054902 0.054902 0.054902, 0.054902 0.054902 0.054902, 
            0.054902 0.054902 0.054902, 0.054902 0.054902 0.054902, 0.054902 0.054902 0.054902, 0.054902 0.054902 0.054902, 
            0.054902 0.054902 0.054902, 0.054902 0.054902 0.054902, 0.054902 0.054902 0.054902, 0.054902 0.054902 0.054902, 
            0.054902 0.054902 0.054902, 0.054902 0.054902 0.054902, 0.054902 0.054902 0.054902, 0.054902 0.054902 0.054902, 
            0.054902 0.054902 0.054902, 0.054902 0.054902 0.054902, 0.054902 0.054902 0.054902, 0.054902 0.054902 0.054902, 
            0.054902 0.054902 0.054902, 0.054902 0.054902 0.054902, 0.054902 0.054902 0.054902, 0.054902 0.054902 0.054902, 
            0.054902 0.054902 0.054902, 0.054902 0.054902 0.054902, 0.054902 0.054902 0.054902, 0.054902 0.054902 0.054902, 
            0.054902 0.054902 0.054902, 0.054902 0.054902 0.054902, 0.054902 0.054902 0.054902, 0.054902 0.054902 0.054902, 
            0.054902 0.054902 0.054902, 0.054902 0.054902 0.054902, 0.054902 0.054902 0.054902, 0.054902 0.054902 0.054902, 
            0.054902 0.054902 0.054902, 0.054902 0.054902 0.054902, 0.054902 0.054902 0.054902, 0.054902 0.054902 0.054902, 
            0.054902 0.054902 0.054902, 0.054902 0.054902 0.054902, 0.054902 0.054902 0.054902, 0.054902 0.054902 0.054902, 
            0.054902 0.054902 0.054902, 0.054902 0.054902 0.054902, 0.054902 0.054902 0.054902, 0.054902 0.054902 0.054902, 
            0.054902 0.054902 0.054902, 0.054902 0.054902 0.054902, 0.054902 0.054902 0.054902, 0.054902 0.054902 0.054902, 
            0.054902 0.054902 0.054902, 0.054902 0.054902 0.054902, 0.054902 0.054902 0.054902, 0.054902 0.054902 0.054902, 
            0.054902 0.054902 0.054902, 0.054902 0.054902 0.054902, 0.054902 0.054902 0.054902, 0.054902 0.054902 0.054902, 
            0.054902 0.054902 0.054902, 0.054902 0.054902 0.054902, 0.054902 0.054902 0.054902, 0.054902 0.054902 0.054902, 
            0.054902 0.054902 0.054902, 0.054902 0.054902 0.054902, 0.054902 0.054902 0.054902
          ]
        }
        coordIndex
        [
          0,1,5,-1, 5,1,2,-1, 10,3,5,-1, 5,3,6,-1, 5,6,0,-1, 2,4,5,-1, 
          10,5,8,-1, 8,5,9,-1, 8,9,7,-1, 7,11,8,-1, 8,11,12,-1, 8,12,13,-1, 
          13,12,14,-1, 10,16,3,-1, 17,18,19,-1, 19,18,20,-1, 16,21,15,-1, 15,21,18,-1, 
          15,18,22,-1, 22,18,17,-1, 10,23,16,-1, 24,25,23,-1, 23,25,26,-1, 23,26,16,-1, 
          24,27,25,-1, 25,27,28,-1, 25,28,29,-1, 15,34,16,-1, 16,30,31,-1, 30,16,32,-1, 
          32,16,33,-1, 33,16,34,-1, 33,34,31,-1, 31,34,16,-1, 16,35,36,-1, 35,16,37,-1, 
          37,16,38,-1, 38,16,34,-1, 38,34,36,-1, 36,34,39,-1, 36,39,16,-1, 3,40,39,-1, 
          40,3,41,-1, 41,3,16,-1, 41,16,42,-1, 42,16,39,-1, 39,79,3,-1, 3,43,44,-1, 
          43,3,45,-1, 45,3,46,-1, 46,3,79,-1, 46,79,44,-1, 44,79,47,-1, 44,47,3,-1, 
          48,49,3,-1, 3,49,50,-1, 3,50,79,-1, 51,47,52,-1, 52,48,51,-1, 51,48,3,-1, 
          51,3,53,-1, 53,3,54,-1, 54,3,47,-1, 47,79,52,-1, 52,79,50,-1, 55,79,3,-1, 
          55,3,56,-1, 56,3,57,-1, 57,3,58,-1, 58,3,79,-1, 58,79,55,-1, 3,59,60,-1, 
          59,3,61,-1, 61,3,62,-1, 62,3,79,-1, 62,79,60,-1, 60,79,63,-1, 60,63,3,-1, 
          3,64,63,-1, 64,3,65,-1, 65,3,66,-1, 66,3,63,-1, 63,80,3,-1, 3,67,68,-1, 
          67,3,69,-1, 69,3,70,-1, 70,3,80,-1, 70,80,68,-1, 68,80,3,-1, 3,71,72,-1, 
          71,3,73,-1, 73,3,74,-1, 74,3,80,-1, 74,80,72,-1, 72,80,3,-1, 75,3,76,-1, 
          76,3,77,-1, 77,3,78,-1, 78,3,75,-1, 39,34,79,-1, 63,79,80,-1, 82,83,85,-1, 
          85,83,84,-1, 86,81,85,-1, 82,88,89,-1, 90,81,89,-1, 89,81,82,-1, 82,81,86,-1, 
          82,86,83,-1, 87,92,93,-1, 94,81,93,-1, 93,81,87,-1, 87,81,90,-1, 87,90,82,-1, 
          91,95,96,-1, 97,98,96,-1, 96,98,81,-1, 96,81,91,-1, 91,81,94,-1, 91,94,87,-1, 
          99,100,101,-1, 102,103,104,-1, 10,105,106,-1, 102,10,106,-1, 102,106,107,-1, 106,99,107,-1, 
          107,99,101,-1, 107,101,104,-1, 104,101,98,-1, 104,98,102,-1, 102,98,97,-1, 102,97,91,-1, 
          113,108,10,-1, 10,108,109,-1, 10,109,110,-1, 111,112,110,-1, 110,112,101,-1, 110,101,10,-1, 
          10,101,100,-1, 10,100,105,-1, 81,23,85,-1, 85,23,82,-1, 82,23,87,-1, 87,23,91,-1, 
          91,23,10,-1, 91,10,102,-1, 113,114,115,-1, 116,117,115,-1, 115,117,112,-1, 115,112,113,-1, 
          113,112,111,-1, 113,111,108,-1, 118,119,116,-1, 116,119,120,-1, 116,120,121,-1, 122,123,121,-1, 
          121,123,117,-1, 121,117,116,-1, 118,125,126,-1, 127,128,126,-1, 126,128,123,-1, 126,123,118,-1, 
          118,123,122,-1, 118,122,119,-1, 124,129,130,-1, 131,132,130,-1, 130,132,128,-1, 130,128,124,-1, 
          124,128,127,-1, 124,127,118,-1, 135,133,134,-1, 135,136,137,-1, 137,136,138,-1, 137,138,134,-1, 
          134,138,132,-1, 134,132,135,-1, 135,132,131,-1, 135,131,124,-1, 113,10,116,-1, 116,10,118,-1, 
          118,10,124,-1, 124,10,135,-1, 135,10,8,-1, 135,8,136,-1, 5,139,140,-1, 5,140,9,-1, 
          141,21,142,-1, 142,21,16,-1, 142,16,26,-1, 143,144,145,-1, 145,144,146,-1, 147,148,149,-1, 
          143,150,144,-1, 144,150,151,-1, 144,151,149,-1, 149,151,152,-1, 149,152,147,-1, 148,153,149,-1, 
          149,153,154,-1, 149,154,155,-1, 156,157,158,-1, 158,157,159,-1, 160,161,162,-1, 162,161,163,-1, 
          162,163,144,-1, 144,163,164,-1, 144,164,146,-1, 155,165,149,-1, 149,165,166,-1, 149,166,158,-1, 
          158,166,167,-1, 158,167,156,-1, 159,168,158,-1, 158,168,169,-1, 158,169,162,-1, 162,169,170,-1, 
          162,170,160,-1, 184,171,187,-1, 187,171,172,-1, 173,172,174,-1, 174,172,171,-1, 175,173,176,-1, 
          176,173,174,-1, 177,175,182,-1, 182,175,176,-1, 183,178,185,-1, 185,178,179,-1, 178,180,181,-1, 
          85,84,181,-1, 181,84,178,-1, 176,174,182,-1, 182,174,171,-1, 171,183,182,-1, 178,184,180,-1, 
          184,178,171,-1, 171,178,183,-1, 173,175,172,-1, 172,175,177,-1, 83,86,179,-1, 179,86,186,-1, 
          172,177,185,-1, 179,186,187,-1, 172,185,187,-1, 187,185,179,-1, 186,86,181,-1, 181,86,85,-1, 
          179,178,83,-1, 83,178,84,-1, 188,189,32,-1, 32,189,30,-1, 190,33,192,-1, 192,33,31,-1, 
          189,191,192,-1, 31,30,192,-1, 192,30,189,-1, 193,194,196,-1, 196,194,195,-1, 195,197,196,-1, 
          189,198,191,-1, 198,189,195,-1, 195,189,197,-1, 201,202,199,-1, 199,202,203,-1, 32,33,188,-1, 
          188,33,190,-1, 188,190,204,-1, 199,203,200,-1, 199,200,204,-1, 204,200,188,-1, 197,189,200,-1, 
          200,189,188,-1, 203,202,196,-1, 196,202,193,-1, 194,193,201,-1, 201,193,202,-1, 195,194,199,-1, 
          199,194,201,-1, 198,195,204,-1, 204,195,199,-1, 197,200,203,-1, 197,203,196,-1, 198,204,191,-1, 
          191,204,190,-1, 191,190,192,-1, 186,181,180,-1, 186,180,187,-1, 187,180,184,-1, 177,182,183,-1, 
          177,183,185,-1, 218,205,222,-1, 222,205,206,-1, 207,206,208,-1, 208,206,205,-1, 209,207,210,-1, 
          210,207,208,-1, 211,209,216,-1, 216,209,210,-1, 217,212,219,-1, 219,212,213,-1, 212,214,215,-1, 
          89,88,215,-1, 215,88,212,-1, 210,208,216,-1, 216,208,205,-1, 205,217,216,-1, 212,218,214,-1, 
          218,212,205,-1, 205,212,217,-1, 207,209,206,-1, 206,209,211,-1, 220,90,213,-1, 213,90,221,-1, 
          206,211,219,-1, 213,221,222,-1, 206,219,222,-1, 222,219,213,-1, 221,90,215,-1, 215,90,89,-1, 
          213,212,220,-1, 220,212,88,-1, 223,224,37,-1, 37,224,35,-1, 225,38,227,-1, 227,38,36,-1, 
          224,226,227,-1, 36,35,227,-1, 227,35,224,-1, 228,229,231,-1, 231,229,230,-1, 230,232,231,-1, 
          224,233,226,-1, 233,224,230,-1, 230,224,232,-1, 236,237,234,-1, 234,237,238,-1, 37,38,223,-1, 
          223,38,225,-1, 223,225,239,-1, 234,238,235,-1, 234,235,239,-1, 239,235,223,-1, 232,224,235,-1, 
          235,224,223,-1, 238,237,231,-1, 231,237,228,-1, 229,228,236,-1, 236,228,237,-1, 230,229,234,-1, 
          234,229,236,-1, 233,230,239,-1, 239,230,234,-1, 253,240,257,-1, 257,240,241,-1, 242,241,243,-1, 
          243,241,240,-1, 244,242,245,-1, 245,242,243,-1, 246,244,251,-1, 251,244,245,-1, 252,247,254,-1, 
          254,247,248,-1, 247,249,250,-1, 93,92,250,-1, 250,92,247,-1, 245,243,251,-1, 251,243,240,-1, 
          240,252,251,-1, 247,253,249,-1, 253,247,240,-1, 240,247,252,-1, 242,244,241,-1, 241,244,246,-1, 
          255,94,248,-1, 248,94,256,-1, 241,246,254,-1, 248,256,257,-1, 241,254,257,-1, 257,254,248,-1, 
          256,94,250,-1, 250,94,93,-1, 248,247,255,-1, 255,247,92,-1, 258,259,41,-1, 41,259,40,-1, 
          260,42,263,-1, 263,42,261,-1, 259,262,263,-1, 261,40,263,-1, 263,40,259,-1, 264,265,267,-1, 
          267,265,266,-1, 266,268,267,-1, 259,269,262,-1, 269,259,266,-1, 266,259,268,-1, 272,273,270,-1, 
          270,273,274,-1, 41,42,258,-1, 258,42,260,-1, 258,260,275,-1, 270,274,271,-1, 270,271,275,-1, 
          275,271,258,-1, 268,259,271,-1, 271,259,258,-1, 274,273,267,-1, 267,273,264,-1, 265,264,272,-1, 
          272,264,273,-1, 266,265,270,-1, 270,265,272,-1, 269,266,275,-1, 275,266,270,-1, 289,276,293,-1, 
          293,276,277,-1, 278,277,279,-1, 279,277,276,-1, 280,278,281,-1, 281,278,279,-1, 282,280,287,-1, 
          287,280,281,-1, 288,283,290,-1, 290,283,284,-1, 283,285,286,-1, 96,95,286,-1, 286,95,283,-1, 
          281,279,287,-1, 287,279,276,-1, 276,288,287,-1, 283,289,285,-1, 289,283,276,-1, 276,283,288,-1, 
          278,280,277,-1, 277,280,282,-1, 291,97,284,-1, 284,97,292,-1, 277,282,290,-1, 284,292,293,-1, 
          277,290,293,-1, 293,290,284,-1, 292,97,286,-1, 286,97,96,-1, 284,283,291,-1, 291,283,95,-1, 
          294,295,45,-1, 45,295,43,-1, 296,46,298,-1, 298,46,44,-1, 295,297,298,-1, 44,43,298,-1, 
          298,43,295,-1, 299,300,302,-1, 302,300,301,-1, 301,303,302,-1, 295,304,297,-1, 304,295,301,-1, 
          301,295,303,-1, 307,308,305,-1, 305,308,309,-1, 45,46,294,-1, 294,46,296,-1, 294,296,310,-1, 
          305,309,306,-1, 305,306,310,-1, 310,306,294,-1, 303,295,306,-1, 306,295,294,-1, 309,308,302,-1, 
          302,308,299,-1, 300,299,307,-1, 307,299,308,-1, 301,300,305,-1, 305,300,307,-1, 304,301,310,-1, 
          310,301,305,-1, 324,311,327,-1, 327,311,312,-1, 313,312,314,-1, 314,312,311,-1, 315,313,316,-1, 
          316,313,314,-1, 317,315,322,-1, 322,315,316,-1, 323,318,325,-1, 325,318,319,-1, 318,320,321,-1, 
          104,103,321,-1, 321,103,318,-1, 316,314,322,-1, 322,314,311,-1, 311,323,322,-1, 318,324,320,-1, 
          324,318,311,-1, 311,318,323,-1, 313,315,312,-1, 312,315,317,-1, 102,107,319,-1, 319,107,326,-1, 
          312,317,325,-1, 319,326,327,-1, 312,325,327,-1, 327,325,319,-1, 326,107,321,-1, 321,107,104,-1, 
          319,318,102,-1, 102,318,103,-1, 328,329,53,-1, 53,329,51,-1, 330,54,333,-1, 333,54,331,-1, 
          329,332,333,-1, 331,51,333,-1, 333,51,329,-1, 334,335,337,-1, 337,335,336,-1, 336,338,339,-1, 
          336,339,337,-1, 329,340,332,-1, 340,329,336,-1, 336,329,338,-1, 343,344,341,-1, 341,344,345,-1, 
          53,54,328,-1, 328,54,330,-1, 328,330,346,-1, 341,345,342,-1, 342,347,341,-1, 341,347,346,-1, 
          346,347,328,-1, 338,329,347,-1, 347,329,328,-1, 345,344,337,-1, 337,344,334,-1, 335,334,343,-1, 
          343,334,344,-1, 336,335,341,-1, 341,335,343,-1, 340,336,346,-1, 346,336,341,-1, 361,348,364,-1, 
          364,348,349,-1, 350,349,351,-1, 351,349,348,-1, 352,350,353,-1, 353,350,351,-1, 354,352,359,-1, 
          359,352,353,-1, 360,355,362,-1, 362,355,356,-1, 355,357,358,-1, 99,106,358,-1, 358,106,355,-1, 
          353,351,359,-1, 359,351,348,-1, 348,360,359,-1, 355,361,357,-1, 361,355,348,-1, 348,355,360,-1, 
          350,352,349,-1, 349,352,354,-1, 105,100,356,-1, 356,100,363,-1, 349,354,362,-1, 356,363,364,-1, 
          349,362,364,-1, 364,362,356,-1, 363,100,358,-1, 358,100,99,-1, 356,355,105,-1, 105,355,106,-1, 
          365,366,48,-1, 48,366,49,-1, 367,52,369,-1, 369,52,50,-1, 366,368,369,-1, 50,49,369,-1, 
          369,49,366,-1, 370,371,373,-1, 373,371,372,-1, 372,374,373,-1, 366,375,368,-1, 375,366,372,-1, 
          372,366,374,-1, 378,379,376,-1, 376,379,380,-1, 48,52,365,-1, 365,52,367,-1, 365,367,381,-1, 
          376,380,377,-1, 376,377,381,-1, 381,377,365,-1, 374,366,377,-1, 377,366,365,-1, 380,379,373,-1, 
          373,379,370,-1, 371,370,378,-1, 378,370,379,-1, 372,371,376,-1, 376,371,378,-1, 375,372,381,-1, 
          381,372,376,-1, 395,382,398,-1, 398,382,383,-1, 384,383,385,-1, 385,383,382,-1, 386,384,387,-1, 
          387,384,385,-1, 388,386,393,-1, 393,386,387,-1, 394,389,396,-1, 396,389,390,-1, 389,391,392,-1, 
          110,109,392,-1, 392,109,389,-1, 387,385,393,-1, 393,385,382,-1, 382,394,393,-1, 389,395,391,-1, 
          395,389,382,-1, 382,389,394,-1, 384,386,383,-1, 383,386,388,-1, 108,111,390,-1, 390,111,397,-1, 
          383,388,396,-1, 390,397,398,-1, 383,396,398,-1, 398,396,390,-1, 397,111,392,-1, 392,111,110,-1, 
          390,389,108,-1, 108,389,109,-1, 399,400,57,-1, 57,400,56,-1, 401,58,403,-1, 403,58,55,-1, 
          400,402,403,-1, 55,56,403,-1, 403,56,400,-1, 404,405,407,-1, 407,405,406,-1, 406,408,407,-1, 
          400,409,402,-1, 409,400,406,-1, 406,400,408,-1, 412,413,410,-1, 410,413,414,-1, 57,58,399,-1, 
          399,58,401,-1, 399,401,415,-1, 410,414,411,-1, 410,411,415,-1, 415,411,399,-1, 408,400,411,-1, 
          411,400,399,-1, 414,413,407,-1, 407,413,404,-1, 405,404,412,-1, 412,404,413,-1, 406,405,410,-1, 
          410,405,412,-1, 409,406,415,-1, 415,406,410,-1, 429,416,432,-1, 432,416,417,-1, 418,417,419,-1, 
          419,417,416,-1, 420,418,421,-1, 421,418,419,-1, 422,420,427,-1, 427,420,421,-1, 428,423,433,-1, 
          433,423,424,-1, 423,425,426,-1, 115,114,426,-1, 426,114,423,-1, 421,419,427,-1, 427,419,416,-1, 
          416,428,427,-1, 423,429,425,-1, 429,423,416,-1, 416,423,428,-1, 418,420,417,-1, 417,420,422,-1, 
          113,116,424,-1, 424,116,431,-1, 417,422,430,-1, 424,431,432,-1, 430,433,417,-1, 417,433,432,-1, 
          432,433,424,-1, 431,116,426,-1, 426,116,115,-1, 424,423,113,-1, 113,423,114,-1, 434,435,61,-1, 
          61,435,59,-1, 436,62,438,-1, 438,62,60,-1, 435,437,438,-1, 60,59,438,-1, 438,59,435,-1, 
          439,440,442,-1, 442,440,441,-1, 441,443,444,-1, 441,444,442,-1, 435,445,437,-1, 445,435,441,-1, 
          441,435,443,-1, 448,449,446,-1, 446,449,450,-1, 61,62,434,-1, 434,62,436,-1, 434,436,451,-1, 
          446,450,447,-1, 447,452,446,-1, 446,452,451,-1, 451,452,434,-1, 443,435,452,-1, 452,435,434,-1, 
          450,449,442,-1, 442,449,439,-1, 440,439,448,-1, 448,439,449,-1, 441,440,446,-1, 446,440,448,-1, 
          445,441,451,-1, 451,441,446,-1, 466,453,469,-1, 469,453,454,-1, 455,454,456,-1, 456,454,453,-1, 
          457,455,458,-1, 458,455,456,-1, 459,457,464,-1, 464,457,458,-1, 465,460,467,-1, 467,460,461,-1, 
          460,462,463,-1, 121,120,463,-1, 463,120,460,-1, 458,456,464,-1, 464,456,453,-1, 453,465,464,-1, 
          460,466,462,-1, 466,460,453,-1, 453,460,465,-1, 455,457,454,-1, 454,457,459,-1, 119,122,461,-1, 
          461,122,468,-1, 454,459,467,-1, 461,468,469,-1, 454,467,469,-1, 469,467,461,-1, 468,122,463,-1, 
          463,122,121,-1, 461,460,119,-1, 119,460,120,-1, 470,471,65,-1, 65,471,64,-1, 472,66,475,-1, 
          475,66,473,-1, 471,474,475,-1, 473,64,475,-1, 475,64,471,-1, 476,477,479,-1, 479,477,478,-1, 
          478,480,479,-1, 471,481,474,-1, 481,471,478,-1, 478,471,480,-1, 484,485,482,-1, 482,485,486,-1, 
          65,66,470,-1, 470,66,472,-1, 470,472,487,-1, 482,486,483,-1, 482,483,487,-1, 487,483,470,-1, 
          480,471,483,-1, 483,471,470,-1, 486,485,479,-1, 479,485,476,-1, 477,476,484,-1, 484,476,485,-1, 
          478,477,482,-1, 482,477,484,-1, 481,478,487,-1, 487,478,482,-1, 501,488,505,-1, 505,488,489,-1, 
          490,489,491,-1, 491,489,488,-1, 492,490,493,-1, 493,490,491,-1, 494,492,499,-1, 499,492,493,-1, 
          500,495,502,-1, 502,495,496,-1, 495,497,498,-1, 126,125,498,-1, 498,125,495,-1, 493,491,499,-1, 
          499,491,488,-1, 488,500,499,-1, 495,501,497,-1, 501,495,488,-1, 488,495,500,-1, 490,492,489,-1, 
          489,492,494,-1, 503,127,496,-1, 496,127,504,-1, 489,494,502,-1, 496,504,505,-1, 489,502,505,-1, 
          505,502,496,-1, 504,127,498,-1, 498,127,126,-1, 496,495,503,-1, 503,495,125,-1, 506,507,69,-1, 
          69,507,67,-1, 508,70,510,-1, 510,70,68,-1, 507,509,510,-1, 68,67,510,-1, 510,67,507,-1, 
          511,512,514,-1, 514,512,513,-1, 513,515,514,-1, 507,516,509,-1, 516,507,513,-1, 513,507,515,-1, 
          519,520,517,-1, 517,520,521,-1, 69,70,506,-1, 506,70,508,-1, 506,508,522,-1, 517,521,518,-1, 
          517,518,522,-1, 522,518,506,-1, 515,507,518,-1, 518,507,506,-1, 521,520,514,-1, 514,520,511,-1, 
          512,511,519,-1, 519,511,520,-1, 513,512,517,-1, 517,512,519,-1, 516,513,522,-1, 522,513,517,-1, 
          536,523,540,-1, 540,523,524,-1, 525,524,526,-1, 526,524,523,-1, 527,525,528,-1, 528,525,526,-1, 
          529,527,534,-1, 534,527,528,-1, 535,530,537,-1, 537,530,531,-1, 530,532,533,-1, 130,129,533,-1, 
          533,129,530,-1, 528,526,534,-1, 534,526,523,-1, 523,535,534,-1, 530,536,532,-1, 536,530,523,-1, 
          523,530,535,-1, 525,527,524,-1, 524,527,529,-1, 538,131,531,-1, 531,131,539,-1, 524,529,537,-1, 
          531,539,540,-1, 524,537,540,-1, 540,537,531,-1, 539,131,533,-1, 533,131,130,-1, 531,530,538,-1, 
          538,530,129,-1, 541,542,73,-1, 73,542,71,-1, 543,74,545,-1, 545,74,72,-1, 542,544,545,-1, 
          72,71,545,-1, 545,71,542,-1, 546,547,549,-1, 549,547,548,-1, 548,550,549,-1, 542,551,544,-1, 
          551,542,548,-1, 548,542,550,-1, 554,555,552,-1, 552,555,556,-1, 73,74,541,-1, 541,74,543,-1, 
          541,543,557,-1, 552,556,553,-1, 552,553,557,-1, 557,553,541,-1, 550,542,553,-1, 553,542,541,-1, 
          556,555,549,-1, 549,555,546,-1, 547,546,554,-1, 554,546,555,-1, 548,547,552,-1, 552,547,554,-1, 
          551,548,557,-1, 557,548,552,-1, 571,558,574,-1, 574,558,559,-1, 560,559,561,-1, 561,559,558,-1, 
          562,560,563,-1, 563,560,561,-1, 564,562,569,-1, 569,562,563,-1, 570,565,572,-1, 572,565,566,-1, 
          565,567,568,-1, 134,133,568,-1, 568,133,565,-1, 563,561,569,-1, 569,561,558,-1, 558,570,569,-1, 
          565,571,567,-1, 571,565,558,-1, 558,565,570,-1, 560,562,559,-1, 559,562,564,-1, 135,137,566,-1, 
          566,137,573,-1, 559,564,572,-1, 566,573,574,-1, 559,572,574,-1, 574,572,566,-1, 573,137,568,-1, 
          568,137,134,-1, 566,565,135,-1, 135,565,133,-1, 575,576,75,-1, 75,576,78,-1, 577,76,579,-1, 
          579,76,77,-1, 576,578,579,-1, 77,78,579,-1, 579,78,576,-1, 580,581,583,-1, 583,581,582,-1, 
          582,584,583,-1, 576,585,578,-1, 585,576,582,-1, 582,576,584,-1, 588,589,586,-1, 586,589,590,-1, 
          75,76,575,-1, 575,76,577,-1, 575,577,591,-1, 586,590,587,-1, 586,587,591,-1, 591,587,575,-1, 
          584,576,587,-1, 587,576,575,-1, 590,589,583,-1, 583,589,580,-1, 581,580,588,-1, 588,580,589,-1, 
          582,581,586,-1, 586,581,588,-1, 585,582,591,-1, 591,582,586,-1, 232,235,238,-1, 232,238,231,-1, 
          233,239,226,-1, 226,239,225,-1, 226,225,227,-1, 221,215,214,-1, 221,214,222,-1, 222,214,218,-1, 
          211,216,217,-1, 211,217,219,-1, 268,271,274,-1, 268,274,267,-1, 269,275,262,-1, 262,275,260,-1, 
          262,260,263,-1, 256,250,249,-1, 256,249,257,-1, 257,249,253,-1, 246,251,252,-1, 246,252,254,-1, 
          303,306,309,-1, 303,309,302,-1, 304,310,297,-1, 297,310,296,-1, 297,296,298,-1, 292,286,285,-1, 
          292,285,293,-1, 293,285,289,-1, 282,287,288,-1, 282,288,290,-1, 338,347,342,-1, 338,342,339,-1, 
          339,342,345,-1, 339,345,337,-1, 340,346,332,-1, 332,346,330,-1, 332,330,333,-1, 326,321,320,-1, 
          326,320,327,-1, 327,320,324,-1, 317,322,323,-1, 317,323,325,-1, 374,377,380,-1, 374,380,373,-1, 
          375,381,368,-1, 368,381,367,-1, 368,367,369,-1, 363,358,357,-1, 363,357,364,-1, 364,357,361,-1, 
          354,359,360,-1, 354,360,362,-1, 408,411,414,-1, 408,414,407,-1, 409,415,402,-1, 402,415,401,-1, 
          402,401,403,-1, 397,392,391,-1, 397,391,398,-1, 398,391,395,-1, 388,393,394,-1, 388,394,396,-1, 
          443,452,447,-1, 443,447,444,-1, 444,447,450,-1, 444,450,442,-1, 445,451,437,-1, 437,451,436,-1, 
          437,436,438,-1, 431,426,425,-1, 431,425,432,-1, 432,425,429,-1, 422,427,428,-1, 422,428,430,-1, 
          430,428,433,-1, 480,483,486,-1, 480,486,479,-1, 481,487,474,-1, 474,487,472,-1, 474,472,475,-1, 
          468,463,462,-1, 468,462,469,-1, 469,462,466,-1, 459,464,465,-1, 459,465,467,-1, 515,518,521,-1, 
          515,521,514,-1, 516,522,509,-1, 509,522,508,-1, 509,508,510,-1, 504,498,497,-1, 504,497,505,-1, 
          505,497,501,-1, 494,499,500,-1, 494,500,502,-1, 550,553,556,-1, 550,556,549,-1, 551,557,544,-1, 
          544,557,543,-1, 544,543,545,-1, 539,533,532,-1, 539,532,540,-1, 540,532,536,-1, 529,534,535,-1, 
          529,535,537,-1, 584,587,590,-1, 584,590,583,-1, 585,591,578,-1, 578,591,577,-1, 578,577,579,-1, 
          573,568,567,-1, 573,567,574,-1, 574,567,571,-1, 564,569,570,-1, 564,570,572,-1, 592,593,601,-1, 
          601,593,594,-1, 601,594,595,-1, 596,597,601,-1, 601,597,598,-1, 601,598,592,-1, 599,600,601,-1, 
          602,603,601,-1, 601,603,604,-1, 601,604,599,-1, 605,606,601,-1, 601,606,607,-1, 601,607,602,-1, 
          608,609,601,-1, 601,609,610,-1, 601,610,605,-1, 611,612,601,-1, 601,612,613,-1, 601,613,608,-1, 
          595,614,601,-1, 601,614,615,-1, 601,615,611,-1, 616,15,22,-1, 616,22,617,-1, 617,22,17,-1, 
          617,17,618,-1, 618,17,19,-1, 618,19,619,-1, 619,19,20,-1, 619,20,620,-1, 620,20,18,-1, 
          620,18,621,-1, 621,18,21,-1, 621,21,141,-1, 617,623,616,-1, 623,617,622,-1, 622,617,624,-1, 
          622,624,625,-1, 625,624,626,-1, 625,626,627,-1, 627,626,628,-1, 627,628,629,-1, 629,628,630,-1, 
          629,630,631,-1, 631,630,158,-1, 631,158,162,-1, 6,633,0,-1, 0,633,634,-1, 0,634,1,-1, 
          1,634,635,-1, 1,635,2,-1, 2,635,636,-1, 2,636,4,-1, 4,636,139,-1, 4,139,5,-1, 
          637,623,6,-1, 6,623,632,-1, 6,632,633,-1, 141,638,639,-1, 158,630,641,-1, 640,158,641,-1, 
          641,630,628,-1, 640,641,642,-1, 642,641,643,-1, 643,641,639,-1, 643,639,644,-1, 639,641,628,-1, 
          639,628,626,-1, 639,626,624,-1, 639,624,617,-1, 141,639,621,-1, 621,639,620,-1, 620,639,619,-1, 
          619,639,618,-1, 618,639,617,-1, 638,644,639,-1, 623,622,646,-1, 162,645,646,-1, 631,162,646,-1, 
          646,645,647,-1, 631,646,629,-1, 629,646,627,-1, 627,646,625,-1, 650,646,647,-1, 650,647,648,-1, 
          650,648,649,-1, 650,649,636,-1, 623,646,632,-1, 632,646,633,-1, 633,646,634,-1, 634,646,650,-1, 
          634,650,635,-1, 635,650,636,-1, 622,625,646,-1, 142,26,25,-1, 24,651,690,-1, 142,25,652,-1, 
          652,25,29,-1, 652,29,653,-1, 653,29,28,-1, 653,28,654,-1, 654,28,27,-1, 654,27,655,-1, 
          655,27,24,-1, 655,24,656,-1, 656,24,690,-1, 141,142,652,-1, 141,652,638,-1, 638,652,657,-1, 
          638,657,644,-1, 644,657,658,-1, 644,658,643,-1, 643,658,659,-1, 643,659,642,-1, 642,659,660,-1, 
          642,660,640,-1, 640,660,149,-1, 640,149,158,-1, 140,139,636,-1, 140,636,661,-1, 661,636,649,-1, 
          661,649,662,-1, 662,649,648,-1, 662,648,663,-1, 663,648,647,-1, 663,647,664,-1, 664,647,645,-1, 
          664,645,665,-1, 665,645,162,-1, 665,162,144,-1, 666,8,13,-1, 666,13,681,-1, 681,13,14,-1, 
          681,14,667,-1, 667,14,12,-1, 667,12,669,-1, 11,668,12,-1, 12,668,669,-1, 671,670,672,-1, 
          671,672,11,-1, 11,672,668,-1, 671,673,670,-1, 670,673,9,-1, 670,9,140,-1, 690,674,676,-1, 
          149,660,676,-1, 675,149,676,-1, 676,660,659,-1, 675,676,677,-1, 677,676,678,-1, 678,676,679,-1, 
          680,676,659,-1, 680,659,658,-1, 680,658,657,-1, 680,657,652,-1, 690,676,656,-1, 656,676,655,-1, 
          655,676,654,-1, 654,676,680,-1, 654,680,653,-1, 653,680,652,-1, 674,679,676,-1, 668,672,682,-1, 
          672,670,682,-1, 670,140,661,-1, 682,670,661,-1, 682,661,683,-1, 683,661,662,-1, 683,662,663,-1, 
          683,663,684,-1, 684,663,664,-1, 684,664,665,-1, 684,665,144,-1, 669,668,682,-1, 667,669,681,-1, 
          681,669,682,-1, 681,682,683,-1, 685,666,681,-1, 685,681,686,-1, 686,681,683,-1, 686,683,687,-1, 
          687,683,688,-1, 688,683,684,-1, 688,684,689,-1, 689,684,144,-1, 674,690,666,-1, 666,685,674,-1, 
          674,685,686,-1, 674,686,679,-1, 679,686,687,-1, 679,687,678,-1, 678,687,688,-1, 678,688,677,-1, 
          677,688,689,-1, 677,689,675,-1, 675,689,144,-1, 675,144,149,-1, 165,691,166,-1, 166,691,692,-1, 
          166,692,167,-1, 167,692,693,-1, 167,693,156,-1, 156,693,694,-1, 156,694,157,-1, 157,694,695,-1, 
          157,695,159,-1, 159,695,696,-1, 159,696,168,-1, 168,696,697,-1, 168,697,169,-1, 169,697,698,-1, 
          169,698,170,-1, 170,698,699,-1, 170,699,160,-1, 160,699,700,-1, 160,700,161,-1, 161,700,701,-1, 
          161,701,163,-1, 163,701,702,-1, 163,702,164,-1, 164,702,703,-1, 164,703,146,-1, 146,703,704,-1, 
          146,704,145,-1, 145,704,705,-1, 145,705,143,-1, 143,705,706,-1, 143,706,150,-1, 150,706,707,-1, 
          150,707,151,-1, 151,707,708,-1, 151,708,152,-1, 152,708,709,-1, 152,709,147,-1, 147,709,710,-1, 
          147,710,148,-1, 148,710,711,-1, 148,711,153,-1, 153,711,712,-1, 712,713,155,-1, 155,713,714,-1, 
          155,714,165,-1, 165,714,691,-1, 711,603,712,-1, 712,603,713,-1
        ]
      }
      appearance Appearance
      {
        material Material
        {
	       ambientIntensity 0.2
	       diffuseColor 0.9 0.9 0.9
	       specularColor .1 .1 .1
	       shininess .5
        }
      }
    }
  ]
}
